Hubballi-Regular-20-18.ufo
<glyph name="exclam" format="1">
  <advance width="337"/>
  <unicode hex="0021"/>
  <outline>
    <contour>
      <point x="147" y="276" type="curve" smooth="yes"/>
      <point x="154" y="554" type="line" smooth="yes"/>
      <point x="154" y="564"/>
      <point x="164" y="573"/>
      <point x="175" y="573" type="curve" smooth="yes"/>
      <point x="185" y="573"/>
      <point x="194" y="563"/>
      <point x="194" y="552" type="curve" smooth="yes"/>
      <point x="187" y="274" type="line" smooth="yes"/>
      <point x="187" y="264"/>
      <point x="177" y="255"/>
      <point x="166" y="255" type="curve" smooth="yes"/>
      <point x="156" y="255"/>
      <point x="147" y="265"/>
    </contour>
    <component base="period" xOffset="49"/>
    <component base="period" xOffset="49"/>
  </outline>
</glyph>
<glyph name="numbersign" format="1">
  <advance width="586"/>
  <unicode hex="0023"/>
  <outline>
    <contour>
      <point x="495" y="510" type="curve" smooth="yes"/>
      <point x="319" y="26" type="line" smooth="yes"/>
      <point x="315" y="16"/>
      <point x="303" y="11"/>
      <point x="293" y="14" type="curve" smooth="yes"/>
      <point x="283" y="18"/>
      <point x="278" y="30"/>
      <point x="281" y="40" type="curve" smooth="yes"/>
      <point x="457" y="524" type="line" smooth="yes"/>
      <point x="461" y="534"/>
      <point x="473" y="539"/>
      <point x="483" y="536" type="curve" smooth="yes"/>
      <point x="493" y="532"/>
      <point x="498" y="520"/>
    </contour>
    <contour>
      <point x="295" y="510" type="curve" smooth="yes"/>
      <point x="119" y="26" type="line" smooth="yes"/>
      <point x="115" y="16"/>
      <point x="103" y="11"/>
      <point x="93" y="14" type="curve" smooth="yes"/>
      <point x="83" y="18"/>
      <point x="78" y="30"/>
      <point x="81" y="40" type="curve" smooth="yes"/>
      <point x="257" y="524" type="line" smooth="yes"/>
      <point x="261" y="534"/>
      <point x="273" y="539"/>
      <point x="283" y="536" type="curve" smooth="yes"/>
      <point x="293" y="532"/>
      <point x="298" y="520"/>
    </contour>
    <contour>
      <point x="527" y="368" type="curve" smooth="yes"/>
      <point x="123" y="368" type="line" smooth="yes"/>
      <point x="112" y="368"/>
      <point x="103" y="377"/>
      <point x="103" y="388" type="curve" smooth="yes"/>
      <point x="103" y="399"/>
      <point x="112" y="408"/>
      <point x="123" y="408" type="curve" smooth="yes"/>
      <point x="527" y="408" type="line" smooth="yes"/>
      <point x="538" y="408"/>
      <point x="547" y="399"/>
      <point x="547" y="388" type="curve" smooth="yes"/>
      <point x="547" y="377"/>
      <point x="538" y="368"/>
    </contour>
    <contour>
      <point x="458" y="168" type="curve" smooth="yes"/>
      <point x="54" y="168" type="line" smooth="yes"/>
      <point x="43" y="168"/>
      <point x="34" y="177"/>
      <point x="34" y="188" type="curve" smooth="yes"/>
      <point x="34" y="199"/>
      <point x="43" y="208"/>
      <point x="54" y="208" type="curve" smooth="yes"/>
      <point x="458" y="208" type="line" smooth="yes"/>
      <point x="469" y="208"/>
      <point x="478" y="199"/>
      <point x="478" y="188" type="curve" smooth="yes"/>
      <point x="478" y="177"/>
      <point x="469" y="168"/>
    </contour>
  </outline>
</glyph>
<glyph name="dollar" format="1">
  <advance width="584"/>
  <unicode hex="0024"/>
  <outline>
    <contour>
      <point x="435" y="475" type="curve" smooth="yes"/>
      <point x="383" y="493"/>
      <point x="346" y="504"/>
      <point x="270" y="504" type="curve" smooth="yes"/>
      <point x="191" y="504"/>
      <point x="134" y="466"/>
      <point x="134" y="420" type="curve" smooth="yes"/>
      <point x="134" y="375"/>
      <point x="166" y="330"/>
      <point x="297" y="308" type="curve" smooth="yes"/>
      <point x="457" y="277"/>
      <point x="501" y="216"/>
      <point x="501" y="146" type="curve" smooth="yes"/>
      <point x="501" y="75"/>
      <point x="445" y="4"/>
      <point x="293" y="4" type="curve" smooth="yes"/>
      <point x="221" y="4"/>
      <point x="153" y="19"/>
      <point x="90" y="49" type="curve" smooth="yes"/>
      <point x="81" y="54"/>
      <point x="76" y="66"/>
      <point x="81" y="76" type="curve" smooth="yes"/>
      <point x="86" y="85"/>
      <point x="98" y="90"/>
      <point x="108" y="85" type="curve" smooth="yes"/>
      <point x="165" y="57"/>
      <point x="227" y="44"/>
      <point x="293" y="44" type="curve" smooth="yes"/>
      <point x="403" y="44"/>
      <point x="461" y="89"/>
      <point x="461" y="146" type="curve" smooth="yes"/>
      <point x="461" y="204"/>
      <point x="411" y="245"/>
      <point x="291" y="268" type="curve" smooth="yes"/>
      <point x="114" y="298"/>
      <point x="94" y="365"/>
      <point x="94" y="420" type="curve" smooth="yes"/>
      <point x="94" y="480"/>
      <point x="153" y="544"/>
      <point x="270" y="544" type="curve" smooth="yes"/>
      <point x="352" y="544"/>
      <point x="393" y="533"/>
      <point x="449" y="513" type="curve" smooth="yes"/>
      <point x="459" y="509"/>
      <point x="464" y="498"/>
      <point x="461" y="487" type="curve" smooth="yes"/>
      <point x="457" y="477"/>
      <point x="446" y="472"/>
    </contour>
    <contour>
      <point x="309" y="616" type="curve" smooth="yes"/>
      <point x="309" y="-74" type="line" smooth="yes"/>
      <point x="309" y="-85"/>
      <point x="300" y="-94"/>
      <point x="289" y="-94" type="curve" smooth="yes"/>
      <point x="278" y="-94"/>
      <point x="269" y="-85"/>
      <point x="269" y="-74" type="curve" smooth="yes"/>
      <point x="269" y="616" type="line" smooth="yes"/>
      <point x="269" y="627"/>
      <point x="278" y="636"/>
      <point x="289" y="636" type="curve" smooth="yes"/>
      <point x="300" y="636"/>
      <point x="309" y="627"/>
    </contour>
  </outline>
</glyph>
<glyph name="percent" format="1">
  <advance width="806"/>
  <unicode hex="0025"/>
  <outline>
    <contour>
      <point x="208" y="545" type="curve" smooth="yes"/>
      <point x="277" y="545"/>
      <point x="336" y="483"/>
      <point x="336" y="389" type="curve" smooth="yes"/>
      <point x="336" y="301"/>
      <point x="287" y="233"/>
      <point x="208" y="233" type="curve" smooth="yes"/>
      <point x="136" y="233"/>
      <point x="79" y="302"/>
      <point x="79" y="388" type="curve" smooth="yes"/>
      <point x="79" y="483"/>
      <point x="135" y="545"/>
    </contour>
    <contour>
      <point x="604" y="315" type="curve" smooth="yes"/>
      <point x="673" y="315"/>
      <point x="732" y="253"/>
      <point x="732" y="159" type="curve" smooth="yes"/>
      <point x="732" y="71"/>
      <point x="683" y="3"/>
      <point x="604" y="3" type="curve" smooth="yes"/>
      <point x="532" y="3"/>
      <point x="475" y="72"/>
      <point x="475" y="158" type="curve" smooth="yes"/>
      <point x="475" y="253"/>
      <point x="531" y="315"/>
    </contour>
    <contour>
      <point x="572" y="508" type="curve" smooth="yes"/>
      <point x="289" y="23" type="line" smooth="yes"/>
      <point x="284" y="14"/>
      <point x="271" y="10"/>
      <point x="262" y="16" type="curve" smooth="yes"/>
      <point x="253" y="21"/>
      <point x="249" y="34"/>
      <point x="255" y="43" type="curve" smooth="yes"/>
      <point x="538" y="528" type="line" smooth="yes"/>
      <point x="543" y="537"/>
      <point x="556" y="541"/>
      <point x="565" y="535" type="curve" smooth="yes"/>
      <point x="574" y="530"/>
      <point x="578" y="517"/>
    </contour>
    <contour>
      <point x="208" y="505" type="curve" smooth="yes"/>
      <point x="153" y="505"/>
      <point x="119" y="453"/>
      <point x="119" y="388" type="curve" smooth="yes"/>
      <point x="119" y="328"/>
      <point x="154" y="273"/>
      <point x="208" y="273" type="curve" smooth="yes"/>
      <point x="267" y="273"/>
      <point x="296" y="329"/>
      <point x="296" y="389" type="curve" smooth="yes"/>
      <point x="296" y="453"/>
      <point x="259" y="505"/>
    </contour>
    <contour>
      <point x="604" y="275" type="curve" smooth="yes"/>
      <point x="549" y="275"/>
      <point x="515" y="223"/>
      <point x="515" y="158" type="curve" smooth="yes"/>
      <point x="515" y="98"/>
      <point x="550" y="43"/>
      <point x="604" y="43" type="curve" smooth="yes"/>
      <point x="663" y="43"/>
      <point x="692" y="99"/>
      <point x="692" y="159" type="curve" smooth="yes"/>
      <point x="692" y="223"/>
      <point x="655" y="275"/>
    </contour>
  </outline>
</glyph>
<glyph name="ampersand" format="1">
  <advance width="644"/>
  <unicode hex="0026"/>
  <outline>
    <contour>
      <point x="541" y="275" type="curve" smooth="yes"/>
      <point x="455" y="153" type="line" smooth="yes"/>
      <point x="375" y="40"/>
      <point x="316" y="5"/>
      <point x="238" y="5" type="curve" smooth="yes"/>
      <point x="141" y="5"/>
      <point x="77" y="66"/>
      <point x="77" y="143" type="curve" smooth="yes"/>
      <point x="77" y="213"/>
      <point x="108" y="271"/>
      <point x="269" y="337" type="curve" smooth="yes"/>
      <point x="322" y="359"/>
      <point x="349" y="389"/>
      <point x="349" y="429" type="curve" smooth="yes"/>
      <point x="349" y="473"/>
      <point x="311" y="505"/>
      <point x="263" y="505" type="curve" smooth="yes"/>
      <point x="216" y="505"/>
      <point x="180" y="473"/>
      <point x="180" y="425" type="curve" smooth="yes"/>
      <point x="180" y="376"/>
      <point x="219" y="340"/>
      <point x="272" y="293" type="curve" smooth="yes"/>
      <point x="553" y="48" type="line" smooth="yes"/>
      <point x="561" y="41"/>
      <point x="562" y="28"/>
      <point x="555" y="20" type="curve" smooth="yes"/>
      <point x="548" y="12"/>
      <point x="535" y="11"/>
      <point x="527" y="18" type="curve" smooth="yes"/>
      <point x="246" y="263" type="line" smooth="yes"/>
      <point x="181" y="320"/>
      <point x="140" y="366"/>
      <point x="140" y="425" type="curve" smooth="yes"/>
      <point x="140" y="497"/>
      <point x="192" y="545"/>
      <point x="263" y="545" type="curve" smooth="yes"/>
      <point x="336" y="545"/>
      <point x="389" y="493"/>
      <point x="389" y="429" type="curve" smooth="yes"/>
      <point x="389" y="375"/>
      <point x="358" y="331"/>
      <point x="285" y="301" type="curve" smooth="yes"/>
      <point x="154" y="247"/>
      <point x="117" y="203"/>
      <point x="117" y="143" type="curve" smooth="yes"/>
      <point x="117" y="86"/>
      <point x="169" y="45"/>
      <point x="238" y="45" type="curve" smooth="yes"/>
      <point x="306" y="45"/>
      <point x="355" y="80"/>
      <point x="423" y="177" type="curve" smooth="yes"/>
      <point x="509" y="299" type="line" smooth="yes"/>
      <point x="515" y="307"/>
      <point x="528" y="310"/>
      <point x="537" y="303" type="curve" smooth="yes"/>
      <point x="545" y="297"/>
      <point x="548" y="284"/>
    </contour>
  </outline>
</glyph>
<glyph name="quotesingle" format="1">
  <advance width="255"/>
  <unicode hex="0027"/>
  <outline>
    <contour>
      <point x="143" y="593" type="curve" smooth="yes"/>
      <point x="147" y="580"/>
      <point x="150" y="559"/>
      <point x="150" y="538" type="curve" smooth="yes"/>
      <point x="150" y="488"/>
      <point x="132" y="437"/>
      <point x="104" y="399" type="curve" smooth="yes"/>
      <point x="98" y="390"/>
      <point x="85" y="389"/>
      <point x="76" y="395" type="curve" smooth="yes"/>
      <point x="67" y="401"/>
      <point x="66" y="414"/>
      <point x="72" y="423" type="curve" smooth="yes"/>
      <point x="96" y="455"/>
      <point x="110" y="496"/>
      <point x="110" y="538" type="curve" smooth="yes"/>
      <point x="110" y="555"/>
      <point x="109" y="570"/>
      <point x="105" y="581" type="curve" smooth="yes"/>
      <point x="102" y="591"/>
      <point x="107" y="603"/>
      <point x="118" y="606" type="curve" smooth="yes"/>
      <point x="128" y="609"/>
      <point x="140" y="604"/>
    </contour>
  </outline>
</glyph>
<glyph name="parenleft" format="1">
  <advance width="325"/>
  <unicode hex="0028"/>
  <outline>
    <contour>
      <point x="253" y="600" type="curve" smooth="yes"/>
      <point x="181" y="520"/>
      <point x="122" y="398"/>
      <point x="122" y="269" type="curve" smooth="yes"/>
      <point x="122" y="142"/>
      <point x="177" y="26"/>
      <point x="252" y="-52" type="curve" smooth="yes"/>
      <point x="260" y="-60"/>
      <point x="260" y="-73"/>
      <point x="252" y="-80" type="curve" smooth="yes"/>
      <point x="244" y="-88"/>
      <point x="231" y="-88"/>
      <point x="224" y="-80" type="curve" smooth="yes"/>
      <point x="141" y="6"/>
      <point x="82" y="132"/>
      <point x="82" y="269" type="curve" smooth="yes"/>
      <point x="82" y="408"/>
      <point x="145" y="540"/>
      <point x="223" y="626" type="curve" smooth="yes"/>
      <point x="230" y="634"/>
      <point x="243" y="635"/>
      <point x="251" y="628" type="curve" smooth="yes"/>
      <point x="259" y="621"/>
      <point x="260" y="608"/>
    </contour>
  </outline>
</glyph>
<glyph name="asterisk" format="1">
  <advance width="423"/>
  <unicode hex="002A"/>
  <outline>
    <contour>
      <point x="230" y="517" type="curve" smooth="yes"/>
      <point x="230" y="291" type="line" smooth="yes"/>
      <point x="230" y="280"/>
      <point x="221" y="271"/>
      <point x="210" y="271" type="curve" smooth="yes"/>
      <point x="199" y="271"/>
      <point x="190" y="280"/>
      <point x="190" y="291" type="curve" smooth="yes"/>
      <point x="190" y="517" type="line" smooth="yes"/>
      <point x="190" y="528"/>
      <point x="199" y="537"/>
      <point x="210" y="537" type="curve" smooth="yes"/>
      <point x="221" y="537"/>
      <point x="230" y="528"/>
    </contour>
    <contour>
      <point x="114" y="481" type="curve" smooth="yes"/>
      <point x="327" y="357" type="line" smooth="yes"/>
      <point x="336" y="352"/>
      <point x="340" y="339"/>
      <point x="334" y="330" type="curve" smooth="yes"/>
      <point x="329" y="321"/>
      <point x="316" y="317"/>
      <point x="307" y="323" type="curve" smooth="yes"/>
      <point x="94" y="447" type="line" smooth="yes"/>
      <point x="85" y="452"/>
      <point x="81" y="465"/>
      <point x="87" y="474" type="curve" smooth="yes"/>
      <point x="92" y="483"/>
      <point x="105" y="487"/>
    </contour>
    <contour>
      <point x="94" y="357" type="curve" smooth="yes"/>
      <point x="307" y="481" type="line" smooth="yes"/>
      <point x="316" y="487"/>
      <point x="329" y="483"/>
      <point x="334" y="474" type="curve" smooth="yes"/>
      <point x="340" y="465"/>
      <point x="336" y="452"/>
      <point x="327" y="447" type="curve" smooth="yes"/>
      <point x="114" y="323" type="line" smooth="yes"/>
      <point x="105" y="317"/>
      <point x="92" y="321"/>
      <point x="87" y="330" type="curve" smooth="yes"/>
      <point x="81" y="339"/>
      <point x="85" y="352"/>
    </contour>
  </outline>
</glyph>
<glyph name="plus" format="1">
  <advance width="491"/>
  <unicode hex="002B"/>
  <outline>
    <contour>
      <point x="92" y="279" type="curve" smooth="yes"/>
      <point x="398" y="279" type="line" smooth="yes"/>
      <point x="409" y="279"/>
      <point x="418" y="270"/>
      <point x="418" y="259" type="curve" smooth="yes"/>
      <point x="418" y="248"/>
      <point x="409" y="239"/>
      <point x="398" y="239" type="curve" smooth="yes"/>
      <point x="92" y="239" type="line" smooth="yes"/>
      <point x="81" y="239"/>
      <point x="72" y="248"/>
      <point x="72" y="259" type="curve" smooth="yes"/>
      <point x="72" y="270"/>
      <point x="81" y="279"/>
    </contour>
    <contour>
      <point x="225" y="110" type="curve" smooth="yes"/>
      <point x="225" y="407" type="line" smooth="yes"/>
      <point x="225" y="418"/>
      <point x="234" y="427"/>
      <point x="245" y="427" type="curve" smooth="yes"/>
      <point x="256" y="427"/>
      <point x="265" y="418"/>
      <point x="265" y="407" type="curve" smooth="yes"/>
      <point x="265" y="110" type="line" smooth="yes"/>
      <point x="265" y="99"/>
      <point x="256" y="90"/>
      <point x="245" y="90" type="curve" smooth="yes"/>
      <point x="234" y="90"/>
      <point x="225" y="99"/>
    </contour>
  </outline>
</glyph>
<glyph name="comma" format="1">
  <advance width="240"/>
  <unicode hex="002C"/>
  <outline>
    <contour>
      <point x="134" y="93" type="curve" smooth="yes"/>
      <point x="138" y="80"/>
      <point x="141" y="59"/>
      <point x="141" y="38" type="curve" smooth="yes"/>
      <point x="141" y="-12"/>
      <point x="123" y="-63"/>
      <point x="95" y="-101" type="curve" smooth="yes"/>
      <point x="89" y="-110"/>
      <point x="76" y="-111"/>
      <point x="67" y="-105" type="curve" smooth="yes"/>
      <point x="58" y="-99"/>
      <point x="57" y="-86"/>
      <point x="63" y="-77" type="curve" smooth="yes"/>
      <point x="87" y="-45"/>
      <point x="101" y="-4"/>
      <point x="101" y="38" type="curve" smooth="yes"/>
      <point x="101" y="55"/>
      <point x="100" y="70"/>
      <point x="96" y="81" type="curve" smooth="yes"/>
      <point x="93" y="91"/>
      <point x="98" y="103"/>
      <point x="109" y="106" type="curve" smooth="yes"/>
      <point x="119" y="109"/>
      <point x="131" y="104"/>
    </contour>
  </outline>
</glyph>
<glyph name="period" format="1">
  <advance width="235"/>
  <unicode hex="002E"/>
  <outline>
    <contour>
      <point x="119" y="106" type="curve" smooth="yes"/>
      <point x="143" y="106"/>
      <point x="159" y="85"/>
      <point x="159" y="57" type="curve" smooth="yes"/>
      <point x="159" y="23"/>
      <point x="143" y="8"/>
      <point x="119" y="8" type="curve" smooth="yes"/>
      <point x="99" y="8"/>
      <point x="78" y="24"/>
      <point x="78" y="57" type="curve" smooth="yes"/>
      <point x="78" y="84"/>
      <point x="99" y="106"/>
    </contour>
    <contour>
      <point x="119" y="66" type="curve" smooth="yes"/>
      <point x="115" y="66"/>
      <point x="118" y="58"/>
      <point x="118" y="57" type="curve" smooth="yes"/>
      <point x="118" y="56"/>
      <point x="115" y="48"/>
      <point x="119" y="48" type="curve" smooth="yes"/>
      <point x="123" y="48"/>
      <point x="119" y="57"/>
      <point x="119" y="57" type="curve"/>
      <point x="119" y="57"/>
      <point x="123" y="66"/>
    </contour>
  </outline>
</glyph>
<glyph name="slash" format="1">
  <advance width="325"/>
  <unicode hex="002F"/>
  <outline>
    <contour>
      <point x="300" y="606" type="curve" smooth="yes"/>
      <point x="51" y="-74" type="line" smooth="yes"/>
      <point x="47" y="-84"/>
      <point x="35" y="-89"/>
      <point x="25" y="-86" type="curve" smooth="yes"/>
      <point x="15" y="-82"/>
      <point x="10" y="-70"/>
      <point x="13" y="-60" type="curve" smooth="yes"/>
      <point x="262" y="620" type="line" smooth="yes"/>
      <point x="266" y="630"/>
      <point x="278" y="635"/>
      <point x="288" y="632" type="curve" smooth="yes"/>
      <point x="298" y="628"/>
      <point x="303" y="616"/>
    </contour>
  </outline>
</glyph>
<glyph name="zero" format="1">
  <advance width="576"/>
  <unicode hex="0030"/>
  <outline>
    <contour>
      <point x="289" y="545" type="curve" smooth="yes"/>
      <point x="407" y="545"/>
      <point x="506" y="436"/>
      <point x="506" y="276" type="curve" smooth="yes"/>
      <point x="506" y="125"/>
      <point x="425" y="6"/>
      <point x="289" y="6" type="curve" smooth="yes"/>
      <point x="164" y="6"/>
      <point x="69" y="126"/>
      <point x="69" y="274" type="curve" smooth="yes"/>
      <point x="69" y="436"/>
      <point x="162" y="545"/>
    </contour>
    <contour>
      <point x="289" y="505" type="curve" smooth="yes"/>
      <point x="180" y="505"/>
      <point x="109" y="406"/>
      <point x="109" y="274" type="curve" smooth="yes"/>
      <point x="109" y="153"/>
      <point x="182" y="46"/>
      <point x="289" y="46" type="curve" smooth="yes"/>
      <point x="405" y="46"/>
      <point x="466" y="153"/>
      <point x="466" y="276" type="curve" smooth="yes"/>
      <point x="466" y="406"/>
      <point x="389" y="505"/>
    </contour>
  </outline>
</glyph>
<glyph name="one" format="1">
  <advance width="330"/>
  <unicode hex="0031"/>
  <outline>
    <contour>
      <point x="222" y="506" type="curve" smooth="yes"/>
      <point x="222" y="33" type="line" smooth="yes"/>
      <point x="222" y="22"/>
      <point x="213" y="13"/>
      <point x="202" y="13" type="curve" smooth="yes"/>
      <point x="191" y="13"/>
      <point x="182" y="22"/>
      <point x="182" y="33" type="curve" smooth="yes"/>
      <point x="182" y="506" type="line" smooth="yes"/>
      <point x="182" y="517"/>
      <point x="191" y="526"/>
      <point x="202" y="526" type="curve" smooth="yes"/>
      <point x="213" y="526"/>
      <point x="222" y="517"/>
    </contour>
    <contour>
      <point x="211" y="495" type="curve" smooth="yes"/>
      <point x="81" y="429" type="line" smooth="yes"/>
      <point x="71" y="424"/>
      <point x="59" y="428"/>
      <point x="54" y="438" type="curve" smooth="yes"/>
      <point x="49" y="448"/>
      <point x="53" y="460"/>
      <point x="63" y="465" type="curve" smooth="yes"/>
      <point x="193" y="531" type="line" smooth="yes"/>
      <point x="203" y="536"/>
      <point x="215" y="532"/>
      <point x="220" y="522" type="curve" smooth="yes"/>
      <point x="225" y="512"/>
      <point x="221" y="500"/>
    </contour>
  </outline>
</glyph>
<glyph name="two" format="1">
  <advance width="518"/>
  <unicode hex="0032"/>
  <outline>
    <contour>
      <point x="77" y="56" type="curve" smooth="yes"/>
      <point x="243" y="215" type="line" smooth="yes"/>
      <point x="345" y="312"/>
      <point x="380" y="352"/>
      <point x="380" y="410" type="curve" smooth="yes"/>
      <point x="380" y="460"/>
      <point x="339" y="504"/>
      <point x="263" y="504" type="curve" smooth="yes"/>
      <point x="215" y="504"/>
      <point x="166" y="490"/>
      <point x="123" y="463" type="curve" smooth="yes"/>
      <point x="113" y="457"/>
      <point x="101" y="460"/>
      <point x="95" y="469" type="curve" smooth="yes"/>
      <point x="89" y="479"/>
      <point x="92" y="491"/>
      <point x="101" y="497" type="curve" smooth="yes"/>
      <point x="152" y="528"/>
      <point x="207" y="544"/>
      <point x="263" y="544" type="curve" smooth="yes"/>
      <point x="371" y="544"/>
      <point x="420" y="476"/>
      <point x="420" y="410" type="curve" smooth="yes"/>
      <point x="420" y="344"/>
      <point x="387" y="298"/>
      <point x="271" y="187" type="curve" smooth="yes"/>
      <point x="105" y="28" type="line" smooth="yes"/>
      <point x="97" y="20"/>
      <point x="84" y="20"/>
      <point x="77" y="28" type="curve" smooth="yes"/>
      <point x="69" y="36"/>
      <point x="69" y="49"/>
    </contour>
    <contour>
      <point x="433" y="13" type="curve" smooth="yes"/>
      <point x="81" y="13" type="line" smooth="yes"/>
      <point x="70" y="13"/>
      <point x="61" y="22"/>
      <point x="61" y="33" type="curve" smooth="yes"/>
      <point x="61" y="44"/>
      <point x="70" y="53"/>
      <point x="81" y="53" type="curve" smooth="yes"/>
      <point x="433" y="53" type="line" smooth="yes"/>
      <point x="444" y="53"/>
      <point x="453" y="44"/>
      <point x="453" y="33" type="curve" smooth="yes"/>
      <point x="453" y="22"/>
      <point x="444" y="13"/>
    </contour>
  </outline>
</glyph>
<glyph name="three" format="1">
  <advance width="522"/>
  <unicode hex="0033"/>
  <outline>
    <contour>
      <point x="120" y="538" type="curve" smooth="yes"/>
      <point x="417" y="538" type="line" smooth="yes"/>
      <point x="428" y="538"/>
      <point x="437" y="529"/>
      <point x="437" y="518" type="curve" smooth="yes"/>
      <point x="437" y="507"/>
      <point x="428" y="498"/>
      <point x="417" y="498" type="curve" smooth="yes"/>
      <point x="120" y="498" type="line" smooth="yes"/>
      <point x="109" y="498"/>
      <point x="100" y="507"/>
      <point x="100" y="518" type="curve" smooth="yes"/>
      <point x="100" y="529"/>
      <point x="109" y="538"/>
    </contour>
    <contour>
      <point x="111" y="78" type="curve" smooth="yes"/>
      <point x="151" y="61"/>
      <point x="201" y="49"/>
      <point x="260" y="49" type="curve" smooth="yes"/>
      <point x="359" y="49"/>
      <point x="412" y="96"/>
      <point x="412" y="165" type="curve" smooth="yes"/>
      <point x="412" y="232"/>
      <point x="356" y="275"/>
      <point x="271" y="275" type="curve" smooth="yes"/>
      <point x="227" y="275"/>
      <point x="191" y="268"/>
      <point x="170" y="261" type="curve" smooth="yes"/>
      <point x="160" y="258"/>
      <point x="148" y="264"/>
      <point x="145" y="274" type="curve" smooth="yes"/>
      <point x="142" y="284"/>
      <point x="148" y="296"/>
      <point x="158" y="299" type="curve" smooth="yes"/>
      <point x="181" y="306"/>
      <point x="221" y="315"/>
      <point x="271" y="315" type="curve" smooth="yes"/>
      <point x="388" y="315"/>
      <point x="452" y="252"/>
      <point x="452" y="165" type="curve" smooth="yes"/>
      <point x="452" y="78"/>
      <point x="393" y="9"/>
      <point x="260" y="9" type="curve" smooth="yes"/>
      <point x="195" y="9"/>
      <point x="139" y="23"/>
      <point x="95" y="42" type="curve" smooth="yes"/>
      <point x="85" y="46"/>
      <point x="80" y="58"/>
      <point x="85" y="68" type="curve" smooth="yes"/>
      <point x="89" y="78"/>
      <point x="101" y="83"/>
    </contour>
    <contour>
      <point x="422" y="495" type="curve" smooth="yes"/>
      <point x="183" y="269" type="line" smooth="yes"/>
      <point x="175" y="262"/>
      <point x="162" y="262"/>
      <point x="154" y="270" type="curve" smooth="yes"/>
      <point x="147" y="278"/>
      <point x="147" y="291"/>
      <point x="155" y="299" type="curve" smooth="yes"/>
      <point x="394" y="525" type="line" smooth="yes"/>
      <point x="402" y="532"/>
      <point x="415" y="532"/>
      <point x="423" y="524" type="curve" smooth="yes"/>
      <point x="430" y="516"/>
      <point x="430" y="503"/>
    </contour>
  </outline>
</glyph>
<glyph name="four" format="1">
  <advance width="541"/>
  <unicode hex="0034"/>
  <outline>
    <contour>
      <point x="392" y="528" type="curve" smooth="yes"/>
      <point x="392" y="33" type="line" smooth="yes"/>
      <point x="392" y="22"/>
      <point x="383" y="13"/>
      <point x="372" y="13" type="curve" smooth="yes"/>
      <point x="361" y="13"/>
      <point x="352" y="22"/>
      <point x="352" y="33" type="curve" smooth="yes"/>
      <point x="352" y="528" type="line" smooth="yes"/>
      <point x="352" y="539"/>
      <point x="361" y="548"/>
      <point x="372" y="548" type="curve" smooth="yes"/>
      <point x="383" y="548"/>
      <point x="392" y="539"/>
    </contour>
    <contour>
      <point x="380" y="506" type="curve" smooth="yes"/>
      <point x="81" y="144" type="line" smooth="yes"/>
      <point x="75" y="136"/>
      <point x="62" y="135"/>
      <point x="53" y="142" type="curve" smooth="yes"/>
      <point x="45" y="148"/>
      <point x="44" y="161"/>
      <point x="51" y="170" type="curve" smooth="yes"/>
      <point x="350" y="532" type="line" smooth="yes"/>
      <point x="356" y="540"/>
      <point x="369" y="541"/>
      <point x="378" y="534" type="curve" smooth="yes"/>
      <point x="386" y="528"/>
      <point x="387" y="515"/>
    </contour>
    <contour>
      <point x="76" y="177" type="curve" smooth="yes"/>
      <point x="480" y="177" type="line" smooth="yes"/>
      <point x="491" y="177"/>
      <point x="500" y="168"/>
      <point x="500" y="157" type="curve" smooth="yes"/>
      <point x="500" y="146"/>
      <point x="491" y="137"/>
      <point x="480" y="137" type="curve" smooth="yes"/>
      <point x="76" y="137" type="line" smooth="yes"/>
      <point x="65" y="137"/>
      <point x="56" y="146"/>
      <point x="56" y="157" type="curve" smooth="yes"/>
      <point x="56" y="168"/>
      <point x="65" y="177"/>
    </contour>
  </outline>
</glyph>
<glyph name="five" format="1">
  <advance width="531"/>
  <unicode hex="0035"/>
  <outline>
    <contour>
      <point x="149" y="538" type="curve" smooth="yes"/>
      <point x="406" y="538" type="line" smooth="yes"/>
      <point x="417" y="538"/>
      <point x="426" y="529"/>
      <point x="426" y="518" type="curve" smooth="yes"/>
      <point x="426" y="507"/>
      <point x="417" y="498"/>
      <point x="406" y="498" type="curve" smooth="yes"/>
      <point x="149" y="498" type="line" smooth="yes"/>
      <point x="138" y="498"/>
      <point x="129" y="507"/>
      <point x="129" y="518" type="curve" smooth="yes"/>
      <point x="129" y="529"/>
      <point x="138" y="538"/>
    </contour>
    <contour>
      <point x="109" y="82" type="curve" smooth="yes"/>
      <point x="150" y="63"/>
      <point x="208" y="49"/>
      <point x="271" y="49" type="curve" smooth="yes"/>
      <point x="370" y="49"/>
      <point x="417" y="104"/>
      <point x="417" y="177" type="curve" smooth="yes"/>
      <point x="417" y="245"/>
      <point x="361" y="293"/>
      <point x="275" y="293" type="curve" smooth="yes"/>
      <point x="213" y="293"/>
      <point x="168" y="277"/>
      <point x="137" y="263" type="curve" smooth="yes"/>
      <point x="128" y="258"/>
      <point x="115" y="263"/>
      <point x="111" y="273" type="curve" smooth="yes"/>
      <point x="106" y="282"/>
      <point x="111" y="295"/>
      <point x="121" y="299" type="curve" smooth="yes"/>
      <point x="154" y="315"/>
      <point x="205" y="333"/>
      <point x="275" y="333" type="curve" smooth="yes"/>
      <point x="391" y="333"/>
      <point x="457" y="265"/>
      <point x="457" y="177" type="curve" smooth="yes"/>
      <point x="457" y="84"/>
      <point x="400" y="9"/>
      <point x="271" y="9" type="curve" smooth="yes"/>
      <point x="202" y="9"/>
      <point x="138" y="25"/>
      <point x="93" y="46" type="curve" smooth="yes"/>
      <point x="83" y="50"/>
      <point x="78" y="63"/>
      <point x="83" y="72" type="curve" smooth="yes"/>
      <point x="87" y="82"/>
      <point x="100" y="87"/>
    </contour>
    <contour>
      <point x="168" y="509" type="curve" smooth="yes"/>
      <point x="149" y="284" type="line" smooth="yes"/>
      <point x="148" y="274"/>
      <point x="138" y="265"/>
      <point x="127" y="266" type="curve" smooth="yes"/>
      <point x="117" y="267"/>
      <point x="108" y="277"/>
      <point x="109" y="288" type="curve" smooth="yes"/>
      <point x="128" y="513" type="line" smooth="yes"/>
      <point x="129" y="523"/>
      <point x="139" y="532"/>
      <point x="150" y="531" type="curve" smooth="yes"/>
      <point x="160" y="530"/>
      <point x="169" y="520"/>
    </contour>
  </outline>
</glyph>
<glyph name="six" format="1">
  <advance width="549"/>
  <unicode hex="0036"/>
  <outline>
    <contour>
      <point x="387" y="489" type="curve" smooth="yes"/>
      <point x="362" y="497"/>
      <point x="341" y="502"/>
      <point x="311" y="502" type="curve" smooth="yes"/>
      <point x="190" y="502"/>
      <point x="120" y="407"/>
      <point x="120" y="257" type="curve" smooth="yes"/>
      <point x="120" y="120"/>
      <point x="188" y="49"/>
      <point x="290" y="49" type="curve" smooth="yes"/>
      <point x="393" y="49"/>
      <point x="437" y="116"/>
      <point x="437" y="181" type="curve" smooth="yes"/>
      <point x="437" y="252"/>
      <point x="384" y="299"/>
      <point x="310" y="299" type="curve" smooth="yes"/>
      <point x="228" y="299"/>
      <point x="162" y="242"/>
      <point x="135" y="145" type="curve" smooth="yes"/>
      <point x="132" y="134"/>
      <point x="121" y="128"/>
      <point x="111" y="131" type="curve" smooth="yes"/>
      <point x="100" y="134"/>
      <point x="94" y="145"/>
      <point x="97" y="155" type="curve" smooth="yes"/>
      <point x="130" y="274"/>
      <point x="212" y="339"/>
      <point x="310" y="339" type="curve" smooth="yes"/>
      <point x="410" y="339"/>
      <point x="477" y="274"/>
      <point x="477" y="181" type="curve" smooth="yes"/>
      <point x="477" y="98"/>
      <point x="425" y="9"/>
      <point x="290" y="9" type="curve" smooth="yes"/>
      <point x="168" y="9"/>
      <point x="80" y="88"/>
      <point x="80" y="257" type="curve" smooth="yes"/>
      <point x="80" y="439"/>
      <point x="170" y="542"/>
      <point x="311" y="542" type="curve" smooth="yes"/>
      <point x="347" y="542"/>
      <point x="370" y="537"/>
      <point x="399" y="527" type="curve" smooth="yes"/>
      <point x="410" y="524"/>
      <point x="415" y="512"/>
      <point x="412" y="502" type="curve" smooth="yes"/>
      <point x="409" y="491"/>
      <point x="397" y="486"/>
    </contour>
  </outline>
</glyph>
<glyph name="seven" format="1">
  <advance width="476"/>
  <unicode hex="0037"/>
  <outline>
    <contour>
      <point x="434" y="508" type="curve" smooth="yes"/>
      <point x="396" y="436"/>
      <point x="292" y="297"/>
      <point x="263" y="246" type="curve" smooth="yes"/>
      <point x="238" y="200"/>
      <point x="217" y="144"/>
      <point x="217" y="88" type="curve" smooth="yes"/>
      <point x="217" y="33" type="line" smooth="yes"/>
      <point x="217" y="22"/>
      <point x="208" y="13"/>
      <point x="197" y="13" type="curve" smooth="yes"/>
      <point x="186" y="13"/>
      <point x="177" y="22"/>
      <point x="177" y="33" type="curve" smooth="yes"/>
      <point x="177" y="88" type="line" smooth="yes"/>
      <point x="177" y="150"/>
      <point x="200" y="214"/>
      <point x="229" y="266" type="curve" smooth="yes"/>
      <point x="258" y="317"/>
      <point x="360" y="456"/>
      <point x="398" y="526" type="curve" smooth="yes"/>
      <point x="403" y="536"/>
      <point x="416" y="540"/>
      <point x="425" y="535" type="curve" smooth="yes"/>
      <point x="435" y="530"/>
      <point x="439" y="517"/>
    </contour>
    <contour>
      <point x="409" y="498" type="curve" smooth="yes"/>
      <point x="66" y="498" type="line" smooth="yes"/>
      <point x="55" y="498"/>
      <point x="46" y="507"/>
      <point x="46" y="518" type="curve" smooth="yes"/>
      <point x="46" y="529"/>
      <point x="55" y="538"/>
      <point x="66" y="538" type="curve" smooth="yes"/>
      <point x="409" y="538" type="line" smooth="yes"/>
      <point x="420" y="538"/>
      <point x="429" y="529"/>
      <point x="429" y="518" type="curve" smooth="yes"/>
      <point x="429" y="507"/>
      <point x="420" y="498"/>
    </contour>
  </outline>
</glyph>
<glyph name="eight" format="1">
  <advance width="568"/>
  <unicode hex="0038"/>
  <outline>
    <contour>
      <point x="285" y="315" type="curve" smooth="yes"/>
      <point x="412" y="315"/>
      <point x="488" y="250"/>
      <point x="488" y="160" type="curve" smooth="yes"/>
      <point x="488" y="78"/>
      <point x="437" y="5"/>
      <point x="285" y="5" type="curve" smooth="yes"/>
      <point x="142" y="5"/>
      <point x="80" y="78"/>
      <point x="80" y="159" type="curve" smooth="yes"/>
      <point x="80" y="250"/>
      <point x="150" y="315"/>
    </contour>
    <contour>
      <point x="285" y="545" type="curve" smooth="yes"/>
      <point x="398" y="545"/>
      <point x="462" y="490"/>
      <point x="462" y="412" type="curve" smooth="yes"/>
      <point x="462" y="339"/>
      <point x="408" y="275"/>
      <point x="285" y="275" type="curve" smooth="yes"/>
      <point x="156" y="275"/>
      <point x="106" y="339"/>
      <point x="106" y="412" type="curve" smooth="yes"/>
      <point x="106" y="490"/>
      <point x="166" y="545"/>
    </contour>
    <contour>
      <point x="285" y="275" type="curve" smooth="yes"/>
      <point x="184" y="275"/>
      <point x="120" y="232"/>
      <point x="120" y="159" type="curve" smooth="yes"/>
      <point x="120" y="94"/>
      <point x="180" y="45"/>
      <point x="285" y="45" type="curve" smooth="yes"/>
      <point x="397" y="45"/>
      <point x="448" y="94"/>
      <point x="448" y="160" type="curve" smooth="yes"/>
      <point x="448" y="232"/>
      <point x="380" y="275"/>
    </contour>
    <contour>
      <point x="285" y="505" type="curve" smooth="yes"/>
      <point x="202" y="505"/>
      <point x="146" y="472"/>
      <point x="146" y="412" type="curve" smooth="yes"/>
      <point x="146" y="355"/>
      <point x="194" y="315"/>
      <point x="285" y="315" type="curve" smooth="yes"/>
      <point x="372" y="315"/>
      <point x="422" y="355"/>
      <point x="422" y="412" type="curve" smooth="yes"/>
      <point x="422" y="472"/>
      <point x="364" y="505"/>
    </contour>
  </outline>
</glyph>
<glyph name="nine" format="1">
  <advance width="546"/>
  <unicode hex="0039"/>
  <outline>
    <contour>
      <point x="161" y="62" type="curve" smooth="yes"/>
      <point x="186" y="56"/>
      <point x="207" y="50"/>
      <point x="238" y="50" type="curve" smooth="yes"/>
      <point x="366" y="50"/>
      <point x="426" y="135"/>
      <point x="426" y="278" type="curve" smooth="yes"/>
      <point x="426" y="419"/>
      <point x="361" y="502"/>
      <point x="256" y="502" type="curve" smooth="yes"/>
      <point x="160" y="502"/>
      <point x="112" y="437"/>
      <point x="112" y="372" type="curve" smooth="yes"/>
      <point x="112" y="291"/>
      <point x="162" y="246"/>
      <point x="247" y="246" type="curve" smooth="yes"/>
      <point x="332" y="246"/>
      <point x="385" y="297"/>
      <point x="426" y="363" type="curve" smooth="yes"/>
      <point x="432" y="373"/>
      <point x="444" y="376"/>
      <point x="453" y="370" type="curve" smooth="yes"/>
      <point x="463" y="364"/>
      <point x="466" y="352"/>
      <point x="460" y="343" type="curve" smooth="yes"/>
      <point x="411" y="263"/>
      <point x="346" y="206"/>
      <point x="247" y="206" type="curve" smooth="yes"/>
      <point x="134" y="206"/>
      <point x="72" y="267"/>
      <point x="72" y="372" type="curve" smooth="yes"/>
      <point x="72" y="455"/>
      <point x="130" y="542"/>
      <point x="256" y="542" type="curve" smooth="yes"/>
      <point x="379" y="542"/>
      <point x="466" y="453"/>
      <point x="466" y="278" type="curve" smooth="yes"/>
      <point x="466" y="105"/>
      <point x="388" y="10"/>
      <point x="238" y="10" type="curve" smooth="yes"/>
      <point x="203" y="10"/>
      <point x="178" y="16"/>
      <point x="151" y="24" type="curve" smooth="yes"/>
      <point x="140" y="26"/>
      <point x="134" y="38"/>
      <point x="137" y="48" type="curve" smooth="yes"/>
      <point x="139" y="59"/>
      <point x="151" y="65"/>
    </contour>
  </outline>
</glyph>
<glyph name="less" format="1">
  <advance width="491"/>
  <unicode hex="003C"/>
  <outline>
    <contour>
      <point x="91" y="281" type="curve" smooth="yes"/>
      <point x="373" y="409" type="line" smooth="yes"/>
      <point x="383" y="414"/>
      <point x="395" y="409"/>
      <point x="399" y="399" type="curve" smooth="yes"/>
      <point x="404" y="389"/>
      <point x="399" y="377"/>
      <point x="389" y="373" type="curve" smooth="yes"/>
      <point x="107" y="245" type="line" smooth="yes"/>
      <point x="97" y="240"/>
      <point x="85" y="245"/>
      <point x="81" y="255" type="curve" smooth="yes"/>
      <point x="76" y="265"/>
      <point x="81" y="277"/>
    </contour>
    <contour>
      <point x="378" y="109" type="curve" smooth="yes"/>
      <point x="86" y="242" type="line" smooth="yes"/>
      <point x="76" y="246"/>
      <point x="71" y="258"/>
      <point x="76" y="268" type="curve" smooth="yes"/>
      <point x="80" y="278"/>
      <point x="92" y="283"/>
      <point x="102" y="278" type="curve" smooth="yes"/>
      <point x="394" y="145" type="line" smooth="yes"/>
      <point x="404" y="141"/>
      <point x="409" y="129"/>
      <point x="404" y="119" type="curve" smooth="yes"/>
      <point x="400" y="109"/>
      <point x="388" y="104"/>
    </contour>
  </outline>
</glyph>
<glyph name="equal" format="1">
  <advance width="491"/>
  <unicode hex="003D"/>
  <outline>
    <contour>
      <point x="92" y="369" type="curve" smooth="yes"/>
      <point x="398" y="369" type="line" smooth="yes"/>
      <point x="409" y="369"/>
      <point x="418" y="360"/>
      <point x="418" y="349" type="curve" smooth="yes"/>
      <point x="418" y="338"/>
      <point x="409" y="329"/>
      <point x="398" y="329" type="curve" smooth="yes"/>
      <point x="92" y="329" type="line" smooth="yes"/>
      <point x="81" y="329"/>
      <point x="72" y="338"/>
      <point x="72" y="349" type="curve" smooth="yes"/>
      <point x="72" y="360"/>
      <point x="81" y="369"/>
    </contour>
    <contour>
      <point x="92" y="189" type="curve" smooth="yes"/>
      <point x="398" y="189" type="line" smooth="yes"/>
      <point x="409" y="189"/>
      <point x="418" y="180"/>
      <point x="418" y="169" type="curve" smooth="yes"/>
      <point x="418" y="158"/>
      <point x="409" y="149"/>
      <point x="398" y="149" type="curve" smooth="yes"/>
      <point x="92" y="149" type="line" smooth="yes"/>
      <point x="81" y="149"/>
      <point x="72" y="158"/>
      <point x="72" y="169" type="curve" smooth="yes"/>
      <point x="72" y="180"/>
      <point x="81" y="189"/>
    </contour>
  </outline>
</glyph>
<glyph name="question" format="1">
  <advance width="381"/>
  <unicode hex="003F"/>
  <outline>
    <contour>
      <point x="63" y="532" type="curve" smooth="yes"/>
      <point x="101" y="556"/>
      <point x="138" y="570"/>
      <point x="199" y="570" type="curve" smooth="yes"/>
      <point x="290" y="570"/>
      <point x="342" y="512"/>
      <point x="342" y="449" type="curve" smooth="yes"/>
      <point x="342" y="383"/>
      <point x="309" y="347"/>
      <point x="234" y="305" type="curve" smooth="yes"/>
      <point x="195" y="282"/>
      <point x="185" y="261"/>
      <point x="183" y="227" type="curve" smooth="yes"/>
      <point x="182" y="216"/>
      <point x="172" y="207"/>
      <point x="162" y="208" type="curve" smooth="yes"/>
      <point x="151" y="209"/>
      <point x="142" y="219"/>
      <point x="143" y="229" type="curve" smooth="yes"/>
      <point x="147" y="277"/>
      <point x="159" y="308"/>
      <point x="214" y="339" type="curve" smooth="yes"/>
      <point x="271" y="371"/>
      <point x="302" y="397"/>
      <point x="302" y="449" type="curve" smooth="yes"/>
      <point x="302" y="494"/>
      <point x="260" y="530"/>
      <point x="199" y="530" type="curve" smooth="yes"/>
      <point x="148" y="530"/>
      <point x="117" y="518"/>
      <point x="85" y="498" type="curve" smooth="yes"/>
      <point x="75" y="492"/>
      <point x="63" y="495"/>
      <point x="57" y="504" type="curve" smooth="yes"/>
      <point x="51" y="514"/>
      <point x="54" y="526"/>
    </contour>
    <component base="period" xOffset="50"/>
    <component base="period" xOffset="50"/>
  </outline>
</glyph>
<glyph name="at" format="1">
  <advance width="675"/>
  <unicode hex="0040"/>
  <outline>
    <contour>
      <point x="447" y="390" type="curve" smooth="yes"/>
      <point x="447" y="260" type="line" smooth="yes"/>
      <point x="447" y="214"/>
      <point x="473" y="183"/>
      <point x="509" y="183" type="curve" smooth="yes"/>
      <point x="551" y="183"/>
      <point x="576" y="225"/>
      <point x="576" y="285" type="curve" smooth="yes"/>
      <point x="576" y="401"/>
      <point x="489" y="508"/>
      <point x="341" y="508" type="curve" smooth="yes"/>
      <point x="203" y="508"/>
      <point x="101" y="400"/>
      <point x="101" y="271" type="curve" smooth="yes"/>
      <point x="101" y="142"/>
      <point x="201" y="43"/>
      <point x="344" y="43" type="curve" smooth="yes"/>
      <point x="403" y="43"/>
      <point x="452" y="56"/>
      <point x="489" y="72" type="curve" smooth="yes"/>
      <point x="499" y="77"/>
      <point x="511" y="72"/>
      <point x="515" y="62" type="curve" smooth="yes"/>
      <point x="520" y="52"/>
      <point x="515" y="40"/>
      <point x="505" y="36" type="curve" smooth="yes"/>
      <point x="464" y="18"/>
      <point x="409" y="3"/>
      <point x="344" y="3" type="curve" smooth="yes"/>
      <point x="175" y="3"/>
      <point x="61" y="120"/>
      <point x="61" y="271" type="curve"/>
      <point x="61" y="422"/>
      <point x="179" y="548"/>
      <point x="341" y="548" type="curve" smooth="yes"/>
      <point x="515" y="548"/>
      <point x="616" y="421"/>
      <point x="616" y="285" type="curve" smooth="yes"/>
      <point x="616" y="189"/>
      <point x="567" y="143"/>
      <point x="509" y="143" type="curve" smooth="yes"/>
      <point x="455" y="143"/>
      <point x="407" y="184"/>
      <point x="407" y="260" type="curve" smooth="yes"/>
      <point x="407" y="390" type="line" smooth="yes"/>
      <point x="407" y="401"/>
      <point x="416" y="410"/>
      <point x="427" y="410" type="curve" smooth="yes"/>
      <point x="438" y="410"/>
      <point x="447" y="401"/>
    </contour>
    <contour>
      <point x="416" y="346" type="curve" smooth="yes"/>
      <point x="393" y="361"/>
      <point x="369" y="370"/>
      <point x="336" y="370" type="curve" smooth="yes"/>
      <point x="286" y="370"/>
      <point x="245" y="330"/>
      <point x="245" y="267" type="curve" smooth="yes"/>
      <point x="245" y="216"/>
      <point x="279" y="184"/>
      <point x="318" y="184" type="curve" smooth="yes"/>
      <point x="352" y="184"/>
      <point x="385" y="205"/>
      <point x="409" y="245" type="curve" smooth="yes"/>
      <point x="414" y="254"/>
      <point x="427" y="258"/>
      <point x="436" y="252" type="curve" smooth="yes"/>
      <point x="445" y="247"/>
      <point x="449" y="234"/>
      <point x="443" y="225" type="curve" smooth="yes"/>
      <point x="411" y="169"/>
      <point x="364" y="144"/>
      <point x="318" y="144" type="curve" smooth="yes"/>
      <point x="261" y="144"/>
      <point x="205" y="188"/>
      <point x="205" y="267" type="curve" smooth="yes"/>
      <point x="205" y="358"/>
      <point x="266" y="410"/>
      <point x="336" y="410" type="curve" smooth="yes"/>
      <point x="377" y="410"/>
      <point x="409" y="399"/>
      <point x="438" y="380" type="curve" smooth="yes"/>
      <point x="447" y="374"/>
      <point x="450" y="361"/>
      <point x="444" y="352" type="curve" smooth="yes"/>
      <point x="438" y="343"/>
      <point x="425" y="340"/>
    </contour>
  </outline>
</glyph>
<glyph name="A" format="1">
  <advance width="568"/>
  <unicode hex="0041"/>
  <outline>
    <contour>
      <point x="293" y="519" type="curve" smooth="yes"/>
      <point x="225" y="366"/>
      <point x="131" y="152"/>
      <point x="86" y="26" type="curve" smooth="yes"/>
      <point x="82" y="16"/>
      <point x="70" y="11"/>
      <point x="60" y="14" type="curve" smooth="yes"/>
      <point x="50" y="18"/>
      <point x="45" y="30"/>
      <point x="48" y="40" type="curve" smooth="yes"/>
      <point x="93" y="166"/>
      <point x="189" y="382"/>
      <point x="257" y="535" type="curve" smooth="yes"/>
      <point x="261" y="545"/>
      <point x="273" y="550"/>
      <point x="283" y="545" type="curve" smooth="yes"/>
      <point x="293" y="541"/>
      <point x="298" y="529"/>
    </contour>
    <contour>
      <point x="299" y="535" type="curve" smooth="yes"/>
      <point x="371" y="381"/>
      <point x="470" y="164"/>
      <point x="518" y="40" type="curve" smooth="yes"/>
      <point x="522" y="30"/>
      <point x="516" y="18"/>
      <point x="506" y="14" type="curve" smooth="yes"/>
      <point x="496" y="10"/>
      <point x="484" y="16"/>
      <point x="480" y="26" type="curve" smooth="yes"/>
      <point x="432" y="148"/>
      <point x="335" y="365"/>
      <point x="263" y="519" type="curve" smooth="yes"/>
      <point x="258" y="528"/>
      <point x="263" y="541"/>
      <point x="273" y="545" type="curve" smooth="yes"/>
      <point x="282" y="550"/>
      <point x="295" y="545"/>
    </contour>
    <contour>
      <point x="136" y="198" type="curve" smooth="yes"/>
      <point x="427" y="198" type="line" smooth="yes"/>
      <point x="438" y="198"/>
      <point x="447" y="189"/>
      <point x="447" y="178" type="curve" smooth="yes"/>
      <point x="447" y="167"/>
      <point x="438" y="158"/>
      <point x="427" y="158" type="curve" smooth="yes"/>
      <point x="136" y="158" type="line" smooth="yes"/>
      <point x="125" y="158"/>
      <point x="116" y="167"/>
      <point x="116" y="178" type="curve" smooth="yes"/>
      <point x="116" y="189"/>
      <point x="125" y="198"/>
    </contour>
  </outline>
</glyph>
<glyph name="B" format="1">
  <advance width="521"/>
  <unicode hex="0042"/>
  <outline>
    <contour>
      <point x="137" y="313" type="curve" smooth="yes"/>
      <point x="276" y="313" type="line" smooth="yes"/>
      <point x="334" y="313"/>
      <point x="386" y="292"/>
      <point x="417" y="261" type="curve" smooth="yes"/>
      <point x="446" y="232"/>
      <point x="460" y="198"/>
      <point x="460" y="160" type="curve" smooth="yes"/>
      <point x="460" y="125"/>
      <point x="447" y="90"/>
      <point x="420" y="63" type="curve" smooth="yes"/>
      <point x="391" y="34"/>
      <point x="348" y="13"/>
      <point x="273" y="13" type="curve" smooth="yes"/>
      <point x="128" y="13" type="line" smooth="yes"/>
      <point x="117" y="13"/>
      <point x="108" y="22"/>
      <point x="108" y="33" type="curve" smooth="yes"/>
      <point x="108" y="518" type="line" smooth="yes"/>
      <point x="108" y="529"/>
      <point x="117" y="538"/>
      <point x="128" y="538" type="curve" smooth="yes"/>
      <point x="257" y="538" type="line" smooth="yes"/>
      <point x="314" y="538"/>
      <point x="352" y="519"/>
      <point x="376" y="495" type="curve" smooth="yes"/>
      <point x="398" y="474"/>
      <point x="412" y="438"/>
      <point x="412" y="407" type="curve" smooth="yes"/>
      <point x="412" y="372"/>
      <point x="398" y="339"/>
      <point x="376" y="318" type="curve" smooth="yes"/>
      <point x="356" y="297"/>
      <point x="316" y="276"/>
      <point x="269" y="273" type="curve" smooth="yes"/>
      <point x="259" y="272"/>
      <point x="249" y="281"/>
      <point x="248" y="292" type="curve" smooth="yes"/>
      <point x="247" y="302"/>
      <point x="256" y="312"/>
      <point x="267" y="313" type="curve" smooth="yes"/>
      <point x="302" y="316"/>
      <point x="332" y="331"/>
      <point x="348" y="346" type="curve" smooth="yes"/>
      <point x="362" y="361"/>
      <point x="372" y="384"/>
      <point x="372" y="407" type="curve" smooth="yes"/>
      <point x="372" y="428"/>
      <point x="362" y="452"/>
      <point x="348" y="467" type="curve" smooth="yes"/>
      <point x="330" y="485"/>
      <point x="300" y="498"/>
      <point x="257" y="498" type="curve" smooth="yes"/>
      <point x="128" y="498" type="line"/>
      <point x="148" y="518" type="line"/>
      <point x="148" y="33" type="line"/>
      <point x="128" y="53" type="line"/>
      <point x="273" y="53" type="line" smooth="yes"/>
      <point x="332" y="53"/>
      <point x="369" y="68"/>
      <point x="392" y="91" type="curve" smooth="yes"/>
      <point x="411" y="110"/>
      <point x="420" y="135"/>
      <point x="420" y="160" type="curve" smooth="yes"/>
      <point x="420" y="188"/>
      <point x="410" y="212"/>
      <point x="389" y="233" type="curve" smooth="yes"/>
      <point x="364" y="258"/>
      <point x="322" y="273"/>
      <point x="276" y="273" type="curve" smooth="yes"/>
      <point x="137" y="273" type="line" smooth="yes"/>
      <point x="126" y="273"/>
      <point x="117" y="282"/>
      <point x="117" y="293" type="curve" smooth="yes"/>
      <point x="117" y="304"/>
      <point x="126" y="313"/>
    </contour>
  </outline>
</glyph>
<glyph name="C" format="1">
  <advance width="563"/>
  <unicode hex="0043"/>
  <outline>
    <contour>
      <point x="460" y="480" type="curve" smooth="yes"/>
      <point x="430" y="497"/>
      <point x="383" y="507"/>
      <point x="334" y="507" type="curve" smooth="yes"/>
      <point x="211" y="507"/>
      <point x="106" y="413"/>
      <point x="106" y="272" type="curve" smooth="yes"/>
      <point x="106" y="143"/>
      <point x="192" y="44"/>
      <point x="340" y="44" type="curve" smooth="yes"/>
      <point x="388" y="44"/>
      <point x="431" y="54"/>
      <point x="466" y="72" type="curve" smooth="yes"/>
      <point x="475" y="77"/>
      <point x="488" y="73"/>
      <point x="493" y="63" type="curve" smooth="yes"/>
      <point x="498" y="54"/>
      <point x="494" y="41"/>
      <point x="484" y="36" type="curve" smooth="yes"/>
      <point x="445" y="16"/>
      <point x="396" y="4"/>
      <point x="340" y="4" type="curve" smooth="yes"/>
      <point x="166" y="4"/>
      <point x="66" y="121"/>
      <point x="66" y="272" type="curve" smooth="yes"/>
      <point x="66" y="437"/>
      <point x="191" y="547"/>
      <point x="334" y="547" type="curve" smooth="yes"/>
      <point x="391" y="547"/>
      <point x="444" y="535"/>
      <point x="480" y="516" type="curve" smooth="yes"/>
      <point x="489" y="510"/>
      <point x="493" y="498"/>
      <point x="488" y="488" type="curve" smooth="yes"/>
      <point x="482" y="479"/>
      <point x="470" y="475"/>
    </contour>
  </outline>
</glyph>
<glyph name="D" format="1">
  <advance width="617"/>
  <unicode hex="0044"/>
  <outline>
    <contour>
      <point x="304" y="13" type="curve" smooth="yes"/>
      <point x="128" y="13" type="line" smooth="yes"/>
      <point x="117" y="13"/>
      <point x="108" y="22"/>
      <point x="108" y="33" type="curve" smooth="yes"/>
      <point x="108" y="518" type="line" smooth="yes"/>
      <point x="108" y="529"/>
      <point x="117" y="538"/>
      <point x="128" y="538" type="curve" smooth="yes"/>
      <point x="304" y="538" type="line" smooth="yes"/>
      <point x="434" y="538"/>
      <point x="551" y="431"/>
      <point x="551" y="276" type="curve" smooth="yes"/>
      <point x="551" y="129"/>
      <point x="453" y="13"/>
    </contour>
    <contour>
      <point x="304" y="53" type="line" smooth="yes"/>
      <point x="431" y="53"/>
      <point x="511" y="153"/>
      <point x="511" y="276" type="curve" smooth="yes"/>
      <point x="511" y="405"/>
      <point x="414" y="498"/>
      <point x="304" y="498" type="curve" smooth="yes"/>
      <point x="128" y="498" type="line"/>
      <point x="148" y="518" type="line"/>
      <point x="148" y="33" type="line"/>
      <point x="128" y="53" type="line"/>
    </contour>
  </outline>
</glyph>
<glyph name="E" format="1">
  <advance width="495"/>
  <unicode hex="0045"/>
  <outline>
    <contour>
      <point x="148" y="518" type="curve" smooth="yes"/>
      <point x="148" y="33" type="line" smooth="yes"/>
      <point x="148" y="22"/>
      <point x="139" y="13"/>
      <point x="128" y="13" type="curve" smooth="yes"/>
      <point x="117" y="13"/>
      <point x="108" y="22"/>
      <point x="108" y="33" type="curve" smooth="yes"/>
      <point x="108" y="518" type="line" smooth="yes"/>
      <point x="108" y="529"/>
      <point x="117" y="538"/>
      <point x="128" y="538" type="curve" smooth="yes"/>
      <point x="139" y="538"/>
      <point x="148" y="529"/>
    </contour>
    <contour>
      <point x="136" y="53" type="curve" smooth="yes"/>
      <point x="407" y="53" type="line" smooth="yes"/>
      <point x="418" y="53"/>
      <point x="427" y="44"/>
      <point x="427" y="33" type="curve" smooth="yes"/>
      <point x="427" y="22"/>
      <point x="418" y="13"/>
      <point x="407" y="13" type="curve" smooth="yes"/>
      <point x="136" y="13" type="line" smooth="yes"/>
      <point x="125" y="13"/>
      <point x="116" y="22"/>
      <point x="116" y="33" type="curve" smooth="yes"/>
      <point x="116" y="44"/>
      <point x="125" y="53"/>
    </contour>
    <contour>
      <point x="136" y="538" type="curve" smooth="yes"/>
      <point x="405" y="538" type="line" smooth="yes"/>
      <point x="416" y="538"/>
      <point x="425" y="529"/>
      <point x="425" y="518" type="curve" smooth="yes"/>
      <point x="425" y="507"/>
      <point x="416" y="498"/>
      <point x="405" y="498" type="curve" smooth="yes"/>
      <point x="136" y="498" type="line" smooth="yes"/>
      <point x="125" y="498"/>
      <point x="116" y="507"/>
      <point x="116" y="518" type="curve" smooth="yes"/>
      <point x="116" y="529"/>
      <point x="125" y="538"/>
    </contour>
    <contour>
      <point x="136" y="314" type="curve" smooth="yes"/>
      <point x="362" y="314" type="line" smooth="yes"/>
      <point x="373" y="314"/>
      <point x="382" y="305"/>
      <point x="382" y="294" type="curve" smooth="yes"/>
      <point x="382" y="283"/>
      <point x="373" y="274"/>
      <point x="362" y="274" type="curve" smooth="yes"/>
      <point x="136" y="274" type="line" smooth="yes"/>
      <point x="125" y="274"/>
      <point x="116" y="283"/>
      <point x="116" y="294" type="curve" smooth="yes"/>
      <point x="116" y="305"/>
      <point x="125" y="314"/>
    </contour>
  </outline>
</glyph>
<glyph name="F" format="1">
  <advance width="485"/>
  <unicode hex="0046"/>
  <outline>
    <contour>
      <point x="148" y="518" type="curve" smooth="yes"/>
      <point x="148" y="33" type="line" smooth="yes"/>
      <point x="148" y="22"/>
      <point x="139" y="13"/>
      <point x="128" y="13" type="curve" smooth="yes"/>
      <point x="117" y="13"/>
      <point x="108" y="22"/>
      <point x="108" y="33" type="curve" smooth="yes"/>
      <point x="108" y="518" type="line" smooth="yes"/>
      <point x="108" y="529"/>
      <point x="117" y="538"/>
      <point x="128" y="538" type="curve" smooth="yes"/>
      <point x="139" y="538"/>
      <point x="148" y="529"/>
    </contour>
    <contour>
      <point x="136" y="538" type="curve" smooth="yes"/>
      <point x="413" y="538" type="line" smooth="yes"/>
      <point x="424" y="538"/>
      <point x="433" y="529"/>
      <point x="433" y="518" type="curve" smooth="yes"/>
      <point x="433" y="507"/>
      <point x="424" y="498"/>
      <point x="413" y="498" type="curve" smooth="yes"/>
      <point x="136" y="498" type="line" smooth="yes"/>
      <point x="125" y="498"/>
      <point x="116" y="507"/>
      <point x="116" y="518" type="curve" smooth="yes"/>
      <point x="116" y="529"/>
      <point x="125" y="538"/>
    </contour>
    <contour>
      <point x="136" y="295" type="curve" smooth="yes"/>
      <point x="362" y="295" type="line" smooth="yes"/>
      <point x="373" y="295"/>
      <point x="382" y="286"/>
      <point x="382" y="275" type="curve" smooth="yes"/>
      <point x="382" y="264"/>
      <point x="373" y="255"/>
      <point x="362" y="255" type="curve" smooth="yes"/>
      <point x="136" y="255" type="line" smooth="yes"/>
      <point x="125" y="255"/>
      <point x="116" y="264"/>
      <point x="116" y="275" type="curve" smooth="yes"/>
      <point x="116" y="286"/>
      <point x="125" y="295"/>
    </contour>
  </outline>
</glyph>
<glyph name="G" format="1">
  <advance width="618"/>
  <unicode hex="0047"/>
  <outline>
    <contour>
      <point x="474" y="481" type="curve" smooth="yes"/>
      <point x="434" y="497"/>
      <point x="388" y="507"/>
      <point x="335" y="507" type="curve" smooth="yes"/>
      <point x="202" y="507"/>
      <point x="106" y="413"/>
      <point x="106" y="272" type="curve" smooth="yes"/>
      <point x="106" y="145"/>
      <point x="189" y="44"/>
      <point x="332" y="44" type="curve" smooth="yes"/>
      <point x="404" y="44"/>
      <point x="457" y="63"/>
      <point x="500" y="90" type="curve" smooth="yes"/>
      <point x="509" y="96"/>
      <point x="522" y="93"/>
      <point x="528" y="84" type="curve" smooth="yes"/>
      <point x="534" y="75"/>
      <point x="531" y="62"/>
      <point x="522" y="56" type="curve" smooth="yes"/>
      <point x="473" y="25"/>
      <point x="414" y="4"/>
      <point x="332" y="4" type="curve" smooth="yes"/>
      <point x="163" y="4"/>
      <point x="66" y="123"/>
      <point x="66" y="272" type="curve" smooth="yes"/>
      <point x="66" y="437"/>
      <point x="180" y="547"/>
      <point x="335" y="547" type="curve" smooth="yes"/>
      <point x="394" y="547"/>
      <point x="444" y="535"/>
      <point x="488" y="519" type="curve" smooth="yes"/>
      <point x="498" y="515"/>
      <point x="504" y="503"/>
      <point x="500" y="493" type="curve" smooth="yes"/>
      <point x="496" y="483"/>
      <point x="484" y="477"/>
    </contour>
    <contour>
      <point x="492" y="83" type="curve" smooth="yes"/>
      <point x="492" y="257" type="line" smooth="yes"/>
      <point x="492" y="268"/>
      <point x="501" y="277"/>
      <point x="512" y="277" type="curve" smooth="yes"/>
      <point x="523" y="277"/>
      <point x="532" y="268"/>
      <point x="532" y="257" type="curve" smooth="yes"/>
      <point x="532" y="83" type="line" smooth="yes"/>
      <point x="532" y="72"/>
      <point x="523" y="63"/>
      <point x="512" y="63" type="curve" smooth="yes"/>
      <point x="501" y="63"/>
      <point x="492" y="72"/>
    </contour>
    <contour>
      <point x="501" y="237" type="curve" smooth="yes"/>
      <point x="348" y="237" type="line" smooth="yes"/>
      <point x="337" y="237"/>
      <point x="328" y="246"/>
      <point x="328" y="257" type="curve" smooth="yes"/>
      <point x="328" y="268"/>
      <point x="337" y="277"/>
      <point x="348" y="277" type="curve" smooth="yes"/>
      <point x="501" y="277" type="line" smooth="yes"/>
      <point x="512" y="277"/>
      <point x="521" y="268"/>
      <point x="521" y="257" type="curve" smooth="yes"/>
      <point x="521" y="246"/>
      <point x="512" y="237"/>
    </contour>
  </outline>
</glyph>
<glyph name="H" format="1">
  <advance width="641"/>
  <unicode hex="0048"/>
  <outline>
    <contour>
      <point x="148" y="518" type="curve" smooth="yes"/>
      <point x="148" y="33" type="line" smooth="yes"/>
      <point x="148" y="22"/>
      <point x="139" y="13"/>
      <point x="128" y="13" type="curve" smooth="yes"/>
      <point x="117" y="13"/>
      <point x="108" y="22"/>
      <point x="108" y="33" type="curve" smooth="yes"/>
      <point x="108" y="518" type="line" smooth="yes"/>
      <point x="108" y="529"/>
      <point x="117" y="538"/>
      <point x="128" y="538" type="curve" smooth="yes"/>
      <point x="139" y="538"/>
      <point x="148" y="529"/>
    </contour>
    <contour>
      <point x="533" y="518" type="curve" smooth="yes"/>
      <point x="533" y="33" type="line" smooth="yes"/>
      <point x="533" y="22"/>
      <point x="524" y="13"/>
      <point x="513" y="13" type="curve" smooth="yes"/>
      <point x="502" y="13"/>
      <point x="493" y="22"/>
      <point x="493" y="33" type="curve" smooth="yes"/>
      <point x="493" y="518" type="line" smooth="yes"/>
      <point x="493" y="529"/>
      <point x="502" y="538"/>
      <point x="513" y="538" type="curve" smooth="yes"/>
      <point x="524" y="538"/>
      <point x="533" y="529"/>
    </contour>
    <contour>
      <point x="132" y="313" type="curve" smooth="yes"/>
      <point x="512" y="313" type="line" smooth="yes"/>
      <point x="523" y="313"/>
      <point x="532" y="304"/>
      <point x="532" y="293" type="curve" smooth="yes"/>
      <point x="532" y="282"/>
      <point x="523" y="273"/>
      <point x="512" y="273" type="curve" smooth="yes"/>
      <point x="132" y="273" type="line" smooth="yes"/>
      <point x="121" y="273"/>
      <point x="112" y="282"/>
      <point x="112" y="293" type="curve" smooth="yes"/>
      <point x="112" y="304"/>
      <point x="121" y="313"/>
    </contour>
  </outline>
</glyph>
<glyph name="J" format="1">
  <advance width="399"/>
  <unicode hex="004A"/>
  <outline>
    <contour>
      <point x="75" y="62" type="curve" smooth="yes"/>
      <point x="105" y="55"/>
      <point x="133" y="48"/>
      <point x="161" y="48" type="curve" smooth="yes"/>
      <point x="233" y="48"/>
      <point x="263" y="91"/>
      <point x="263" y="175" type="curve" smooth="yes"/>
      <point x="263" y="518" type="line" smooth="yes"/>
      <point x="263" y="529"/>
      <point x="272" y="538"/>
      <point x="283" y="538" type="curve" smooth="yes"/>
      <point x="294" y="538"/>
      <point x="303" y="529"/>
      <point x="303" y="518" type="curve" smooth="yes"/>
      <point x="303" y="175" type="line" smooth="yes"/>
      <point x="303" y="59"/>
      <point x="255" y="8"/>
      <point x="161" y="8" type="curve" smooth="yes"/>
      <point x="129" y="8"/>
      <point x="99" y="15"/>
      <point x="65" y="24" type="curve" smooth="yes"/>
      <point x="55" y="26"/>
      <point x="48" y="37"/>
      <point x="51" y="48" type="curve" smooth="yes"/>
      <point x="53" y="58"/>
      <point x="64" y="65"/>
    </contour>
  </outline>
</glyph>
<glyph name="K" format="1">
  <advance width="558"/>
  <unicode hex="004B"/>
  <outline>
    <contour>
      <point x="148" y="518" type="curve" smooth="yes"/>
      <point x="148" y="33" type="line" smooth="yes"/>
      <point x="148" y="22"/>
      <point x="139" y="13"/>
      <point x="128" y="13" type="curve" smooth="yes"/>
      <point x="117" y="13"/>
      <point x="108" y="22"/>
      <point x="108" y="33" type="curve" smooth="yes"/>
      <point x="108" y="518" type="line" smooth="yes"/>
      <point x="108" y="529"/>
      <point x="117" y="538"/>
      <point x="128" y="538" type="curve" smooth="yes"/>
      <point x="139" y="538"/>
      <point x="148" y="529"/>
    </contour>
    <contour>
      <point x="267" y="324" type="curve" smooth="yes"/>
      <point x="324" y="255"/>
      <point x="444" y="109"/>
      <point x="499" y="46" type="curve" smooth="yes"/>
      <point x="506" y="38"/>
      <point x="505" y="25"/>
      <point x="497" y="18" type="curve" smooth="yes"/>
      <point x="489" y="11"/>
      <point x="476" y="12"/>
      <point x="469" y="20" type="curve" smooth="yes"/>
      <point x="414" y="83"/>
      <point x="294" y="229"/>
      <point x="237" y="298" type="curve" smooth="yes"/>
      <point x="230" y="307"/>
      <point x="231" y="320"/>
      <point x="239" y="326" type="curve" smooth="yes"/>
      <point x="248" y="333"/>
      <point x="261" y="332"/>
    </contour>
    <contour>
      <point x="114" y="216" type="curve" smooth="yes"/>
      <point x="162" y="260"/>
      <point x="350" y="427"/>
      <point x="450" y="532" type="curve" smooth="yes"/>
      <point x="457" y="540"/>
      <point x="470" y="540"/>
      <point x="478" y="532" type="curve" smooth="yes"/>
      <point x="486" y="525"/>
      <point x="486" y="512"/>
      <point x="478" y="504" type="curve" smooth="yes"/>
      <point x="378" y="399"/>
      <point x="190" y="230"/>
      <point x="142" y="186" type="curve" smooth="yes"/>
      <point x="134" y="179"/>
      <point x="121" y="180"/>
      <point x="113" y="187" type="curve" smooth="yes"/>
      <point x="106" y="195"/>
      <point x="107" y="208"/>
    </contour>
  </outline>
</glyph>
<glyph name="L" format="1">
  <advance width="479"/>
  <unicode hex="004C"/>
  <outline>
    <contour>
      <point x="148" y="518" type="curve" smooth="yes"/>
      <point x="148" y="33" type="line" smooth="yes"/>
      <point x="148" y="22"/>
      <point x="139" y="13"/>
      <point x="128" y="13" type="curve" smooth="yes"/>
      <point x="117" y="13"/>
      <point x="108" y="22"/>
      <point x="108" y="33" type="curve" smooth="yes"/>
      <point x="108" y="518" type="line" smooth="yes"/>
      <point x="108" y="529"/>
      <point x="117" y="538"/>
      <point x="128" y="538" type="curve" smooth="yes"/>
      <point x="139" y="538"/>
      <point x="148" y="529"/>
    </contour>
    <contour>
      <point x="136" y="53" type="curve" smooth="yes"/>
      <point x="409" y="53" type="line" smooth="yes"/>
      <point x="420" y="53"/>
      <point x="429" y="44"/>
      <point x="429" y="33" type="curve" smooth="yes"/>
      <point x="429" y="22"/>
      <point x="420" y="13"/>
      <point x="409" y="13" type="curve" smooth="yes"/>
      <point x="136" y="13" type="line" smooth="yes"/>
      <point x="125" y="13"/>
      <point x="116" y="22"/>
      <point x="116" y="33" type="curve" smooth="yes"/>
      <point x="116" y="44"/>
      <point x="125" y="53"/>
    </contour>
  </outline>
</glyph>
<glyph name="M" format="1">
  <advance width="816"/>
  <unicode hex="004D"/>
  <outline>
    <contour>
      <point x="191" y="524" type="curve" smooth="yes"/>
      <point x="167" y="381"/>
      <point x="135" y="145"/>
      <point x="123" y="29" type="curve" smooth="yes"/>
      <point x="122" y="18"/>
      <point x="112" y="10"/>
      <point x="101" y="11" type="curve" smooth="yes"/>
      <point x="90" y="12"/>
      <point x="82" y="22"/>
      <point x="83" y="33" type="curve" smooth="yes"/>
      <point x="95" y="149"/>
      <point x="127" y="387"/>
      <point x="151" y="530" type="curve" smooth="yes"/>
      <point x="153" y="541"/>
      <point x="164" y="549"/>
      <point x="174" y="547" type="curve" smooth="yes"/>
      <point x="185" y="545"/>
      <point x="193" y="534"/>
    </contour>
    <contour>
      <point x="650" y="532" type="curve" smooth="yes"/>
      <point x="681" y="376"/>
      <point x="714" y="168"/>
      <point x="732" y="34" type="curve" smooth="yes"/>
      <point x="733" y="23"/>
      <point x="725" y="13"/>
      <point x="715" y="11" type="curve" smooth="yes"/>
      <point x="704" y="10"/>
      <point x="694" y="18"/>
      <point x="692" y="28" type="curve" smooth="yes"/>
      <point x="674" y="162"/>
      <point x="641" y="368"/>
      <point x="610" y="524" type="curve" smooth="yes"/>
      <point x="608" y="535"/>
      <point x="616" y="546"/>
      <point x="626" y="548" type="curve" smooth="yes"/>
      <point x="637" y="550"/>
      <point x="648" y="542"/>
    </contour>
    <contour>
      <point x="201" y="523" type="curve" smooth="yes"/>
      <point x="263" y="396"/>
      <point x="357" y="199"/>
      <point x="424" y="59" type="curve" smooth="yes"/>
      <point x="429" y="49"/>
      <point x="424" y="37"/>
      <point x="415" y="32" type="curve" smooth="yes"/>
      <point x="405" y="27"/>
      <point x="393" y="32"/>
      <point x="388" y="41" type="curve" smooth="yes"/>
      <point x="321" y="181"/>
      <point x="227" y="378"/>
      <point x="165" y="505" type="curve" smooth="yes"/>
      <point x="160" y="515"/>
      <point x="165" y="527"/>
      <point x="174" y="532" type="curve" smooth="yes"/>
      <point x="184" y="537"/>
      <point x="196" y="532"/>
    </contour>
    <contour>
      <point x="391" y="70" type="curve" smooth="yes"/>
      <point x="451" y="206"/>
      <point x="531" y="383"/>
      <point x="605" y="529" type="curve" smooth="yes"/>
      <point x="610" y="539"/>
      <point x="622" y="543"/>
      <point x="632" y="538" type="curve" smooth="yes"/>
      <point x="642" y="533"/>
      <point x="646" y="521"/>
      <point x="641" y="511" type="curve" smooth="yes"/>
      <point x="567" y="365"/>
      <point x="487" y="190"/>
      <point x="427" y="54" type="curve" smooth="yes"/>
      <point x="423" y="44"/>
      <point x="411" y="39"/>
      <point x="401" y="44" type="curve" smooth="yes"/>
      <point x="391" y="48"/>
      <point x="386" y="60"/>
    </contour>
  </outline>
</glyph>
<glyph name="N" format="1">
  <advance width="645"/>
  <unicode hex="004E"/>
  <outline>
    <contour>
      <point x="148" y="518" type="curve" smooth="yes"/>
      <point x="148" y="33" type="line" smooth="yes"/>
      <point x="148" y="22"/>
      <point x="139" y="13"/>
      <point x="128" y="13" type="curve" smooth="yes"/>
      <point x="117" y="13"/>
      <point x="108" y="22"/>
      <point x="108" y="33" type="curve" smooth="yes"/>
      <point x="108" y="518" type="line" smooth="yes"/>
      <point x="108" y="529"/>
      <point x="117" y="538"/>
      <point x="128" y="538" type="curve" smooth="yes"/>
      <point x="139" y="538"/>
      <point x="148" y="529"/>
    </contour>
    <contour>
      <point x="537" y="518" type="curve" smooth="yes"/>
      <point x="537" y="33" type="line" smooth="yes"/>
      <point x="537" y="22"/>
      <point x="528" y="13"/>
      <point x="517" y="13" type="curve" smooth="yes"/>
      <point x="506" y="13"/>
      <point x="497" y="22"/>
      <point x="497" y="33" type="curve" smooth="yes"/>
      <point x="497" y="518" type="line" smooth="yes"/>
      <point x="497" y="529"/>
      <point x="506" y="538"/>
      <point x="517" y="538" type="curve" smooth="yes"/>
      <point x="528" y="538"/>
      <point x="537" y="529"/>
    </contour>
    <contour>
      <point x="150" y="530" type="curve" smooth="yes"/>
      <point x="225" y="430"/>
      <point x="420" y="188"/>
      <point x="527" y="45" type="curve" smooth="yes"/>
      <point x="533" y="36"/>
      <point x="532" y="23"/>
      <point x="523" y="17" type="curve" smooth="yes"/>
      <point x="514" y="11"/>
      <point x="501" y="12"/>
      <point x="495" y="21" type="curve" smooth="yes"/>
      <point x="388" y="164"/>
      <point x="193" y="406"/>
      <point x="118" y="506" type="curve" smooth="yes"/>
      <point x="112" y="515"/>
      <point x="113" y="528"/>
      <point x="122" y="534" type="curve" smooth="yes"/>
      <point x="131" y="540"/>
      <point x="144" y="539"/>
    </contour>
  </outline>
</glyph>
<glyph name="O" format="1">
  <advance width="640"/>
  <unicode hex="004F"/>
  <outline>
    <contour>
      <point x="322" y="547" type="curve" smooth="yes"/>
      <point x="461" y="547"/>
      <point x="574" y="436"/>
      <point x="574" y="275" type="curve" smooth="yes"/>
      <point x="574" y="122"/>
      <point x="481" y="4"/>
      <point x="322" y="4" type="curve" smooth="yes"/>
      <point x="172" y="4"/>
      <point x="66" y="122"/>
      <point x="66" y="272" type="curve" smooth="yes"/>
      <point x="66" y="436"/>
      <point x="170" y="547"/>
    </contour>
    <contour>
      <point x="322" y="507" type="curve" smooth="yes"/>
      <point x="192" y="507"/>
      <point x="106" y="410"/>
      <point x="106" y="272" type="curve" smooth="yes"/>
      <point x="106" y="146"/>
      <point x="194" y="44"/>
      <point x="322" y="44" type="curve" smooth="yes"/>
      <point x="457" y="44"/>
      <point x="534" y="146"/>
      <point x="534" y="275" type="curve" smooth="yes"/>
      <point x="534" y="410"/>
      <point x="441" y="507"/>
    </contour>
  </outline>
</glyph>
<glyph name="P" format="1">
  <advance width="520"/>
  <unicode hex="0050"/>
  <outline>
    <contour>
      <point x="154" y="229" type="curve" smooth="yes"/>
      <point x="271" y="229" type="line" smooth="yes"/>
      <point x="369" y="229"/>
      <point x="422" y="289"/>
      <point x="422" y="364" type="curve" smooth="yes"/>
      <point x="422" y="443"/>
      <point x="359" y="498"/>
      <point x="271" y="498" type="curve" smooth="yes"/>
      <point x="128" y="498" type="line"/>
      <point x="148" y="518" type="line"/>
      <point x="148" y="33" type="line" smooth="yes"/>
      <point x="148" y="22"/>
      <point x="139" y="13"/>
      <point x="128" y="13" type="curve" smooth="yes"/>
      <point x="117" y="13"/>
      <point x="108" y="22"/>
      <point x="108" y="33" type="curve" smooth="yes"/>
      <point x="108" y="518" type="line" smooth="yes"/>
      <point x="108" y="529"/>
      <point x="117" y="538"/>
      <point x="128" y="538" type="curve" smooth="yes"/>
      <point x="271" y="538" type="line" smooth="yes"/>
      <point x="385" y="538"/>
      <point x="462" y="465"/>
      <point x="462" y="364" type="curve" smooth="yes"/>
      <point x="462" y="269"/>
      <point x="399" y="189"/>
      <point x="271" y="189" type="curve" smooth="yes"/>
      <point x="154" y="189" type="line" smooth="yes"/>
      <point x="143" y="189"/>
      <point x="134" y="198"/>
      <point x="134" y="209" type="curve" smooth="yes"/>
      <point x="134" y="220"/>
      <point x="143" y="229"/>
    </contour>
  </outline>
</glyph>
<glyph name="Q" format="1">
  <advance width="620"/>
  <unicode hex="0051"/>
  <outline>
    <contour>
      <point x="312" y="547" type="curve" smooth="yes"/>
      <point x="445" y="547"/>
      <point x="554" y="436"/>
      <point x="554" y="275" type="curve" smooth="yes"/>
      <point x="554" y="121"/>
      <point x="464" y="4"/>
      <point x="312" y="4" type="curve" smooth="yes"/>
      <point x="168" y="4"/>
      <point x="66" y="122"/>
      <point x="66" y="272" type="curve" smooth="yes"/>
      <point x="66" y="436"/>
      <point x="166" y="547"/>
    </contour>
    <contour>
      <point x="332" y="26" type="curve" smooth="yes"/>
      <point x="349" y="-40"/>
      <point x="413" y="-90"/>
      <point x="507" y="-90" type="curve" smooth="yes"/>
      <point x="518" y="-90"/>
      <point x="527" y="-99"/>
      <point x="527" y="-110" type="curve" smooth="yes"/>
      <point x="527" y="-121"/>
      <point x="518" y="-130"/>
      <point x="507" y="-130" type="curve" smooth="yes"/>
      <point x="389" y="-130"/>
      <point x="315" y="-64"/>
      <point x="294" y="16" type="curve" smooth="yes"/>
      <point x="291" y="26"/>
      <point x="298" y="38"/>
      <point x="308" y="40" type="curve" smooth="yes"/>
      <point x="318" y="43"/>
      <point x="330" y="36"/>
    </contour>
    <contour>
      <point x="312" y="507" type="curve" smooth="yes"/>
      <point x="188" y="507"/>
      <point x="106" y="410"/>
      <point x="106" y="272" type="curve" smooth="yes"/>
      <point x="106" y="146"/>
      <point x="190" y="44"/>
      <point x="312" y="44" type="curve" smooth="yes"/>
      <point x="442" y="44"/>
      <point x="514" y="147"/>
      <point x="514" y="275" type="curve" smooth="yes"/>
      <point x="514" y="410"/>
      <point x="425" y="507"/>
    </contour>
  </outline>
</glyph>
<glyph name="R" format="1">
  <advance width="539"/>
  <unicode hex="0052"/>
  <outline>
    <contour>
      <point x="154" y="252" type="curve" smooth="yes"/>
      <point x="275" y="252" type="line" smooth="yes"/>
      <point x="370" y="252"/>
      <point x="421" y="306"/>
      <point x="421" y="375" type="curve" smooth="yes"/>
      <point x="421" y="449"/>
      <point x="361" y="498"/>
      <point x="275" y="498" type="curve" smooth="yes"/>
      <point x="128" y="498" type="line"/>
      <point x="148" y="518" type="line"/>
      <point x="148" y="33" type="line" smooth="yes"/>
      <point x="148" y="22"/>
      <point x="139" y="13"/>
      <point x="128" y="13" type="curve" smooth="yes"/>
      <point x="117" y="13"/>
      <point x="108" y="22"/>
      <point x="108" y="33" type="curve" smooth="yes"/>
      <point x="108" y="518" type="line" smooth="yes"/>
      <point x="108" y="529"/>
      <point x="117" y="538"/>
      <point x="128" y="538" type="curve" smooth="yes"/>
      <point x="275" y="538" type="line" smooth="yes"/>
      <point x="389" y="538"/>
      <point x="461" y="469"/>
      <point x="461" y="375" type="curve" smooth="yes"/>
      <point x="461" y="288"/>
      <point x="402" y="212"/>
      <point x="275" y="212" type="curve" smooth="yes"/>
      <point x="154" y="212" type="line" smooth="yes"/>
      <point x="143" y="212"/>
      <point x="134" y="221"/>
      <point x="134" y="232" type="curve" smooth="yes"/>
      <point x="134" y="243"/>
      <point x="143" y="252"/>
    </contour>
    <contour>
      <point x="325" y="232" type="curve" smooth="yes"/>
      <point x="484" y="46" type="line" smooth="yes"/>
      <point x="491" y="38"/>
      <point x="490" y="25"/>
      <point x="482" y="18" type="curve" smooth="yes"/>
      <point x="474" y="11"/>
      <point x="461" y="12"/>
      <point x="454" y="20" type="curve" smooth="yes"/>
      <point x="295" y="206" type="line" smooth="yes"/>
      <point x="288" y="214"/>
      <point x="289" y="227"/>
      <point x="297" y="234" type="curve" smooth="yes"/>
      <point x="305" y="241"/>
      <point x="318" y="240"/>
    </contour>
  </outline>
</glyph>
<glyph name="S" format="1">
  <advance width="535"/>
  <unicode hex="0053"/>
  <outline>
    <contour>
      <point x="391" y="475" type="curve" smooth="yes"/>
      <point x="346" y="494"/>
      <point x="314" y="504"/>
      <point x="248" y="504" type="curve" smooth="yes"/>
      <point x="179" y="504"/>
      <point x="132" y="465"/>
      <point x="132" y="420" type="curve" smooth="yes"/>
      <point x="132" y="375"/>
      <point x="159" y="330"/>
      <point x="273" y="308" type="curve" smooth="yes"/>
      <point x="412" y="277"/>
      <point x="452" y="217"/>
      <point x="452" y="146" type="curve" smooth="yes"/>
      <point x="452" y="74"/>
      <point x="401" y="4"/>
      <point x="268" y="4" type="curve" smooth="yes"/>
      <point x="205" y="4"/>
      <point x="144" y="19"/>
      <point x="89" y="50" type="curve" smooth="yes"/>
      <point x="80" y="55"/>
      <point x="76" y="67"/>
      <point x="82" y="77" type="curve" smooth="yes"/>
      <point x="87" y="86"/>
      <point x="99" y="90"/>
      <point x="109" y="84" type="curve" smooth="yes"/>
      <point x="158" y="57"/>
      <point x="211" y="44"/>
      <point x="268" y="44" type="curve" smooth="yes"/>
      <point x="363" y="44"/>
      <point x="412" y="90"/>
      <point x="412" y="146" type="curve" smooth="yes"/>
      <point x="412" y="203"/>
      <point x="370" y="245"/>
      <point x="265" y="268" type="curve" smooth="yes"/>
      <point x="111" y="298"/>
      <point x="92" y="365"/>
      <point x="92" y="420" type="curve" smooth="yes"/>
      <point x="92" y="481"/>
      <point x="147" y="544"/>
      <point x="248" y="544" type="curve" smooth="yes"/>
      <point x="320" y="544"/>
      <point x="356" y="532"/>
      <point x="405" y="513" type="curve" smooth="yes"/>
      <point x="416" y="508"/>
      <point x="421" y="497"/>
      <point x="417" y="487" type="curve" smooth="yes"/>
      <point x="412" y="476"/>
      <point x="401" y="471"/>
    </contour>
  </outline>
</glyph>
<glyph name="T" format="1">
  <advance width="558"/>
  <unicode hex="0054"/>
  <outline>
    <contour>
      <point x="297" y="518" type="curve" smooth="yes"/>
      <point x="297" y="33" type="line" smooth="yes"/>
      <point x="297" y="22"/>
      <point x="288" y="13"/>
      <point x="277" y="13" type="curve" smooth="yes"/>
      <point x="266" y="13"/>
      <point x="257" y="22"/>
      <point x="257" y="33" type="curve" smooth="yes"/>
      <point x="257" y="518" type="line" smooth="yes"/>
      <point x="257" y="529"/>
      <point x="266" y="538"/>
      <point x="277" y="538" type="curve" smooth="yes"/>
      <point x="288" y="538"/>
      <point x="297" y="529"/>
    </contour>
    <contour>
      <point x="65" y="538" type="curve" smooth="yes"/>
      <point x="493" y="538" type="line" smooth="yes"/>
      <point x="504" y="538"/>
      <point x="513" y="529"/>
      <point x="513" y="518" type="curve" smooth="yes"/>
      <point x="513" y="507"/>
      <point x="504" y="498"/>
      <point x="493" y="498" type="curve" smooth="yes"/>
      <point x="65" y="498" type="line" smooth="yes"/>
      <point x="54" y="498"/>
      <point x="45" y="507"/>
      <point x="45" y="518" type="curve" smooth="yes"/>
      <point x="45" y="529"/>
      <point x="54" y="538"/>
    </contour>
  </outline>
</glyph>
<glyph name="U" format="1">
  <advance width="626"/>
  <unicode hex="0055"/>
  <outline>
    <contour>
      <point x="136" y="518" type="curve" smooth="yes"/>
      <point x="136" y="222" type="line" smooth="yes"/>
      <point x="136" y="108"/>
      <point x="208" y="44"/>
      <point x="311" y="44" type="curve" smooth="yes"/>
      <point x="425" y="44"/>
      <point x="490" y="108"/>
      <point x="490" y="225" type="curve" smooth="yes"/>
      <point x="490" y="518" type="line" smooth="yes"/>
      <point x="490" y="529"/>
      <point x="499" y="538"/>
      <point x="510" y="538" type="curve" smooth="yes"/>
      <point x="521" y="538"/>
      <point x="530" y="529"/>
      <point x="530" y="518" type="curve" smooth="yes"/>
      <point x="530" y="225" type="line" smooth="yes"/>
      <point x="530" y="82"/>
      <point x="451" y="4"/>
      <point x="311" y="4" type="curve" smooth="yes"/>
      <point x="184" y="4"/>
      <point x="96" y="82"/>
      <point x="96" y="222" type="curve" smooth="yes"/>
      <point x="96" y="518" type="line" smooth="yes"/>
      <point x="96" y="529"/>
      <point x="105" y="538"/>
      <point x="116" y="538" type="curve" smooth="yes"/>
      <point x="127" y="538"/>
      <point x="136" y="529"/>
    </contour>
  </outline>
</glyph>
<glyph name="V" format="1">
  <advance width="595"/>
  <unicode hex="0056"/>
  <outline>
    <contour>
      <point x="99" y="525" type="curve" smooth="yes"/>
      <point x="139" y="402"/>
      <point x="273" y="112"/>
      <point x="313" y="39" type="curve" smooth="yes"/>
      <point x="318" y="29"/>
      <point x="314" y="17"/>
      <point x="305" y="11" type="curve" smooth="yes"/>
      <point x="295" y="6"/>
      <point x="283" y="10"/>
      <point x="277" y="19" type="curve" smooth="yes"/>
      <point x="237" y="94"/>
      <point x="101" y="388"/>
      <point x="61" y="513" type="curve" smooth="yes"/>
      <point x="58" y="523"/>
      <point x="64" y="535"/>
      <point x="74" y="538" type="curve" smooth="yes"/>
      <point x="84" y="541"/>
      <point x="96" y="535"/>
    </contour>
    <contour>
      <point x="280" y="32" type="curve" smooth="yes"/>
      <point x="324" y="116"/>
      <point x="447" y="382"/>
      <point x="496" y="524" type="curve" smooth="yes"/>
      <point x="500" y="535"/>
      <point x="511" y="540"/>
      <point x="521" y="537" type="curve" smooth="yes"/>
      <point x="532" y="533"/>
      <point x="537" y="522"/>
      <point x="534" y="512" type="curve" smooth="yes"/>
      <point x="485" y="368"/>
      <point x="360" y="98"/>
      <point x="316" y="14" type="curve" smooth="yes"/>
      <point x="311" y="4"/>
      <point x="298" y="0"/>
      <point x="289" y="5" type="curve" smooth="yes"/>
      <point x="279" y="10"/>
      <point x="275" y="23"/>
    </contour>
  </outline>
</glyph>
<glyph name="W" format="1">
  <advance width="893"/>
  <unicode hex="0057"/>
  <outline>
    <contour>
      <point x="108" y="522" type="curve" smooth="yes"/>
      <point x="142" y="399"/>
      <point x="241" y="112"/>
      <point x="276" y="39" type="curve" smooth="yes"/>
      <point x="281" y="29"/>
      <point x="276" y="17"/>
      <point x="267" y="12" type="curve" smooth="yes"/>
      <point x="257" y="7"/>
      <point x="245" y="12"/>
      <point x="240" y="21" type="curve" smooth="yes"/>
      <point x="205" y="96"/>
      <point x="104" y="387"/>
      <point x="70" y="512" type="curve" smooth="yes"/>
      <point x="67" y="522"/>
      <point x="73" y="533"/>
      <point x="84" y="536" type="curve" smooth="yes"/>
      <point x="94" y="539"/>
      <point x="105" y="533"/>
    </contour>
    <contour>
      <point x="244" y="32" type="curve" smooth="yes"/>
      <point x="281" y="116"/>
      <point x="385" y="379"/>
      <point x="428" y="520" type="curve" smooth="yes"/>
      <point x="431" y="530"/>
      <point x="443" y="536"/>
      <point x="453" y="533" type="curve" smooth="yes"/>
      <point x="463" y="530"/>
      <point x="469" y="518"/>
      <point x="466" y="508" type="curve" smooth="yes"/>
      <point x="423" y="367"/>
      <point x="317" y="100"/>
      <point x="280" y="16" type="curve" smooth="yes"/>
      <point x="276" y="6"/>
      <point x="264" y="1"/>
      <point x="254" y="6" type="curve" smooth="yes"/>
      <point x="244" y="10"/>
      <point x="239" y="22"/>
    </contour>
    <contour>
      <point x="470" y="508" type="curve" smooth="yes"/>
      <point x="508" y="387"/>
      <point x="610" y="111"/>
      <point x="646" y="38" type="curve" smooth="yes"/>
      <point x="651" y="28"/>
      <point x="646" y="16"/>
      <point x="637" y="11" type="curve" smooth="yes"/>
      <point x="627" y="6"/>
      <point x="615" y="11"/>
      <point x="610" y="20" type="curve" smooth="yes"/>
      <point x="574" y="95"/>
      <point x="470" y="373"/>
      <point x="432" y="496" type="curve" smooth="yes"/>
      <point x="429" y="506"/>
      <point x="435" y="518"/>
      <point x="445" y="521" type="curve" smooth="yes"/>
      <point x="455" y="524"/>
      <point x="467" y="518"/>
    </contour>
    <contour>
      <point x="614" y="31" type="curve" smooth="yes"/>
      <point x="651" y="115"/>
      <point x="745" y="380"/>
      <point x="786" y="523" type="curve" smooth="yes"/>
      <point x="789" y="533"/>
      <point x="800" y="539"/>
      <point x="811" y="536" type="curve" smooth="yes"/>
      <point x="821" y="533"/>
      <point x="827" y="522"/>
      <point x="824" y="511" type="curve" smooth="yes"/>
      <point x="783" y="368"/>
      <point x="687" y="99"/>
      <point x="650" y="15" type="curve" smooth="yes"/>
      <point x="646" y="5"/>
      <point x="634" y="0"/>
      <point x="624" y="5" type="curve" smooth="yes"/>
      <point x="614" y="9"/>
      <point x="609" y="21"/>
    </contour>
  </outline>
</glyph>
<glyph name="X" format="1">
  <advance width="573"/>
  <unicode hex="0058"/>
  <outline>
    <contour>
      <point x="119" y="529" type="curve" smooth="yes"/>
      <point x="215" y="389"/>
      <point x="441" y="128"/>
      <point x="500" y="44" type="curve" smooth="yes"/>
      <point x="507" y="36"/>
      <point x="504" y="23"/>
      <point x="495" y="17" type="curve" smooth="yes"/>
      <point x="487" y="10"/>
      <point x="474" y="13"/>
      <point x="468" y="22" type="curve" smooth="yes"/>
      <point x="409" y="106"/>
      <point x="183" y="367"/>
      <point x="87" y="507" type="curve" smooth="yes"/>
      <point x="80" y="516"/>
      <point x="83" y="528"/>
      <point x="92" y="534" type="curve" smooth="yes"/>
      <point x="101" y="541"/>
      <point x="113" y="538"/>
    </contour>
    <contour>
      <point x="74" y="45" type="curve" smooth="yes"/>
      <point x="153" y="152"/>
      <point x="361" y="396"/>
      <point x="447" y="529" type="curve" smooth="yes"/>
      <point x="453" y="538"/>
      <point x="466" y="541"/>
      <point x="475" y="535" type="curve" smooth="yes"/>
      <point x="484" y="529"/>
      <point x="487" y="516"/>
      <point x="481" y="507" type="curve" smooth="yes"/>
      <point x="395" y="374"/>
      <point x="185" y="128"/>
      <point x="106" y="21" type="curve" smooth="yes"/>
      <point x="100" y="12"/>
      <point x="87" y="10"/>
      <point x="78" y="17" type="curve" smooth="yes"/>
      <point x="69" y="23"/>
      <point x="67" y="36"/>
    </contour>
  </outline>
</glyph>
<glyph name="Y" format="1">
  <advance width="570"/>
  <unicode hex="0059"/>
  <outline>
    <contour>
      <point x="307" y="201" type="curve" smooth="yes"/>
      <point x="307" y="33" type="line" smooth="yes"/>
      <point x="307" y="22"/>
      <point x="298" y="13"/>
      <point x="287" y="13" type="curve" smooth="yes"/>
      <point x="276" y="13"/>
      <point x="267" y="22"/>
      <point x="267" y="33" type="curve" smooth="yes"/>
      <point x="267" y="201" type="line" smooth="yes"/>
      <point x="267" y="212"/>
      <point x="276" y="221"/>
      <point x="287" y="221" type="curve" smooth="yes"/>
      <point x="298" y="221"/>
      <point x="307" y="212"/>
    </contour>
    <contour>
      <point x="96" y="528" type="curve" smooth="yes"/>
      <point x="138" y="459"/>
      <point x="257" y="282"/>
      <point x="300" y="225" type="curve" smooth="yes"/>
      <point x="306" y="216"/>
      <point x="305" y="204"/>
      <point x="296" y="197" type="curve" smooth="yes"/>
      <point x="287" y="191"/>
      <point x="275" y="192"/>
      <point x="268" y="201" type="curve" smooth="yes"/>
      <point x="225" y="258"/>
      <point x="104" y="437"/>
      <point x="62" y="508" type="curve" smooth="yes"/>
      <point x="56" y="517"/>
      <point x="59" y="530"/>
      <point x="69" y="535" type="curve" smooth="yes"/>
      <point x="78" y="541"/>
      <point x="91" y="538"/>
    </contour>
    <contour>
      <point x="271" y="219" type="curve" smooth="yes"/>
      <point x="320" y="285"/>
      <point x="433" y="460"/>
      <point x="474" y="528" type="curve" smooth="yes"/>
      <point x="479" y="538"/>
      <point x="492" y="541"/>
      <point x="501" y="535" type="curve" smooth="yes"/>
      <point x="511" y="530"/>
      <point x="514" y="517"/>
      <point x="508" y="508" type="curve" smooth="yes"/>
      <point x="467" y="438"/>
      <point x="352" y="261"/>
      <point x="303" y="195" type="curve" smooth="yes"/>
      <point x="297" y="186"/>
      <point x="284" y="185"/>
      <point x="275" y="191" type="curve" smooth="yes"/>
      <point x="266" y="197"/>
      <point x="265" y="210"/>
    </contour>
  </outline>
</glyph>
<glyph name="Z" format="1">
  <advance width="577"/>
  <unicode hex="005A"/>
  <outline>
    <contour>
      <point x="488" y="507" type="curve" smooth="yes"/>
      <point x="425" y="412"/>
      <point x="172" y="112"/>
      <point x="119" y="30" type="curve" smooth="yes"/>
      <point x="113" y="21"/>
      <point x="100" y="18"/>
      <point x="91" y="24" type="curve" smooth="yes"/>
      <point x="82" y="30"/>
      <point x="79" y="43"/>
      <point x="85" y="52" type="curve" smooth="yes"/>
      <point x="138" y="134"/>
      <point x="391" y="434"/>
      <point x="454" y="529" type="curve" smooth="yes"/>
      <point x="460" y="538"/>
      <point x="473" y="541"/>
      <point x="482" y="535" type="curve" smooth="yes"/>
      <point x="491" y="529"/>
      <point x="494" y="516"/>
    </contour>
    <contour>
      <point x="111" y="538" type="curve" smooth="yes"/>
      <point x="460" y="538" type="line" smooth="yes"/>
      <point x="471" y="538"/>
      <point x="480" y="529"/>
      <point x="480" y="518" type="curve" smooth="yes"/>
      <point x="480" y="507"/>
      <point x="471" y="498"/>
      <point x="460" y="498" type="curve" smooth="yes"/>
      <point x="111" y="498" type="line" smooth="yes"/>
      <point x="100" y="498"/>
      <point x="91" y="507"/>
      <point x="91" y="518" type="curve" smooth="yes"/>
      <point x="91" y="529"/>
      <point x="100" y="538"/>
    </contour>
    <contour>
      <point x="98" y="53" type="curve" smooth="yes"/>
      <point x="483" y="53" type="line" smooth="yes"/>
      <point x="494" y="53"/>
      <point x="503" y="44"/>
      <point x="503" y="33" type="curve" smooth="yes"/>
      <point x="503" y="22"/>
      <point x="494" y="13"/>
      <point x="483" y="13" type="curve" smooth="yes"/>
      <point x="98" y="13" type="line" smooth="yes"/>
      <point x="87" y="13"/>
      <point x="78" y="22"/>
      <point x="78" y="33" type="curve" smooth="yes"/>
      <point x="78" y="44"/>
      <point x="87" y="53"/>
    </contour>
  </outline>
</glyph>
<glyph name="bracketleft" format="1">
  <advance width="325"/>
  <unicode hex="005B"/>
  <outline>
    <contour>
      <point x="238" y="593" type="curve" smooth="yes"/>
      <point x="103" y="593" type="line"/>
      <point x="123" y="613" type="line"/>
      <point x="123" y="-66" type="line"/>
      <point x="103" y="-46" type="line"/>
      <point x="238" y="-46" type="line" smooth="yes"/>
      <point x="249" y="-46"/>
      <point x="258" y="-55"/>
      <point x="258" y="-66" type="curve" smooth="yes"/>
      <point x="258" y="-77"/>
      <point x="249" y="-86"/>
      <point x="238" y="-86" type="curve" smooth="yes"/>
      <point x="103" y="-86" type="line" smooth="yes"/>
      <point x="92" y="-86"/>
      <point x="83" y="-77"/>
      <point x="83" y="-66" type="curve" smooth="yes"/>
      <point x="83" y="613" type="line" smooth="yes"/>
      <point x="83" y="624"/>
      <point x="92" y="633"/>
      <point x="103" y="633" type="curve" smooth="yes"/>
      <point x="238" y="633" type="line" smooth="yes"/>
      <point x="249" y="633"/>
      <point x="258" y="624"/>
      <point x="258" y="613" type="curve" smooth="yes"/>
      <point x="258" y="602"/>
      <point x="249" y="593"/>
    </contour>
  </outline>
</glyph>
<glyph name="asciicircum" format="1">
  <advance width="500"/>
  <unicode hex="005E"/>
  <outline>
    <contour>
      <point x="264" y="517" type="curve" smooth="yes"/>
      <point x="216" y="425"/>
      <point x="165" y="330"/>
      <point x="124" y="250" type="curve" smooth="yes"/>
      <point x="119" y="240"/>
      <point x="106" y="236"/>
      <point x="97" y="241" type="curve" smooth="yes"/>
      <point x="87" y="246"/>
      <point x="83" y="259"/>
      <point x="88" y="268" type="curve" smooth="yes"/>
      <point x="129" y="348"/>
      <point x="180" y="443"/>
      <point x="228" y="535" type="curve" smooth="yes"/>
      <point x="233" y="545"/>
      <point x="246" y="549"/>
      <point x="255" y="544" type="curve" smooth="yes"/>
      <point x="265" y="539"/>
      <point x="269" y="526"/>
    </contour>
    <contour>
      <point x="377" y="250" type="curve" smooth="yes"/>
      <point x="336" y="330"/>
      <point x="287" y="425"/>
      <point x="237" y="516" type="curve" smooth="yes"/>
      <point x="232" y="526"/>
      <point x="236" y="538"/>
      <point x="245" y="544" type="curve" smooth="yes"/>
      <point x="255" y="549"/>
      <point x="267" y="545"/>
      <point x="273" y="536" type="curve" smooth="yes"/>
      <point x="323" y="443"/>
      <point x="372" y="348"/>
      <point x="413" y="268" type="curve" smooth="yes"/>
      <point x="418" y="259"/>
      <point x="414" y="246"/>
      <point x="404" y="241" type="curve" smooth="yes"/>
      <point x="395" y="236"/>
      <point x="382" y="240"/>
    </contour>
  </outline>
</glyph>
<glyph name="underscore" format="1">
  <advance width="545"/>
  <unicode hex="005F"/>
  <outline>
    <contour>
      <point x="65" y="-71" type="curve" smooth="yes"/>
      <point x="480" y="-71" type="line" smooth="yes"/>
      <point x="491" y="-71"/>
      <point x="500" y="-80"/>
      <point x="500" y="-91" type="curve" smooth="yes"/>
      <point x="500" y="-102"/>
      <point x="491" y="-111"/>
      <point x="480" y="-111" type="curve" smooth="yes"/>
      <point x="65" y="-111" type="line" smooth="yes"/>
      <point x="54" y="-111"/>
      <point x="45" y="-102"/>
      <point x="45" y="-91" type="curve" smooth="yes"/>
      <point x="45" y="-80"/>
      <point x="54" y="-71"/>
    </contour>
  </outline>
</glyph>
<glyph name="grave" format="1">
  <advance width="500"/>
  <unicode hex="0060"/>
  <outline>
    <contour>
      <point x="236" y="609" type="curve" smooth="yes"/>
      <point x="264" y="574"/>
      <point x="279" y="555"/>
      <point x="303" y="515" type="curve" smooth="yes"/>
      <point x="309" y="506"/>
      <point x="306" y="494"/>
      <point x="296" y="488" type="curve" smooth="yes"/>
      <point x="287" y="482"/>
      <point x="275" y="485"/>
      <point x="269" y="495" type="curve" smooth="yes"/>
      <point x="245" y="533"/>
      <point x="232" y="550"/>
      <point x="204" y="585" type="curve" smooth="yes"/>
      <point x="198" y="593"/>
      <point x="199" y="606"/>
      <point x="208" y="613" type="curve" smooth="yes"/>
      <point x="216" y="619"/>
      <point x="229" y="618"/>
    </contour>
  </outline>
</glyph>
<glyph name="a" format="1">
  <advance width="456"/>
  <unicode hex="0061"/>
  <outline>
    <contour>
      <point x="121" y="378" type="curve" smooth="yes"/>
      <point x="143" y="385"/>
      <point x="185" y="395"/>
      <point x="220" y="395" type="curve" smooth="yes"/>
      <point x="325" y="395"/>
      <point x="374" y="331"/>
      <point x="374" y="238" type="curve" smooth="yes"/>
      <point x="374" y="147" type="line" smooth="yes"/>
      <point x="374" y="99"/>
      <point x="385" y="70"/>
      <point x="406" y="48" type="curve" smooth="yes"/>
      <point x="413" y="40"/>
      <point x="413" y="27"/>
      <point x="405" y="19" type="curve" smooth="yes"/>
      <point x="397" y="12"/>
      <point x="384" y="12"/>
      <point x="376" y="20" type="curve" smooth="yes"/>
      <point x="349" y="50"/>
      <point x="334" y="85"/>
      <point x="334" y="147" type="curve" smooth="yes"/>
      <point x="334" y="238" type="line" smooth="yes"/>
      <point x="334" y="307"/>
      <point x="299" y="355"/>
      <point x="220" y="355" type="curve" smooth="yes"/>
      <point x="189" y="355"/>
      <point x="153" y="347"/>
      <point x="133" y="340" type="curve" smooth="yes"/>
      <point x="123" y="337"/>
      <point x="111" y="342"/>
      <point x="108" y="353" type="curve" smooth="yes"/>
      <point x="105" y="363"/>
      <point x="110" y="375"/>
    </contour>
    <contour>
      <point x="352" y="207" type="curve" smooth="yes"/>
      <point x="319" y="208"/>
      <point x="289" y="210"/>
      <point x="260" y="210" type="curve" smooth="yes"/>
      <point x="194" y="210"/>
      <point x="149" y="195"/>
      <point x="122" y="168" type="curve" smooth="yes"/>
      <point x="105" y="152"/>
      <point x="100" y="134"/>
      <point x="100" y="114" type="curve" smooth="yes"/>
      <point x="100" y="85"/>
      <point x="124" y="53"/>
      <point x="177" y="53" type="curve" smooth="yes"/>
      <point x="244" y="53"/>
      <point x="294" y="81"/>
      <point x="338" y="140" type="curve" smooth="yes"/>
      <point x="344" y="149"/>
      <point x="357" y="151"/>
      <point x="366" y="144" type="curve" smooth="yes"/>
      <point x="375" y="138"/>
      <point x="377" y="125"/>
      <point x="370" y="116" type="curve" smooth="yes"/>
      <point x="318" y="45"/>
      <point x="258" y="13"/>
      <point x="177" y="13" type="curve" smooth="yes"/>
      <point x="88" y="13"/>
      <point x="60" y="71"/>
      <point x="60" y="114" type="curve"/>
      <point x="60" y="144"/>
      <point x="69" y="172"/>
      <point x="94" y="196" type="curve" smooth="yes"/>
      <point x="127" y="229"/>
      <point x="180" y="250"/>
      <point x="260" y="250" type="curve" smooth="yes"/>
      <point x="289" y="250"/>
      <point x="319" y="248"/>
      <point x="354" y="247" type="curve" smooth="yes"/>
      <point x="364" y="247"/>
      <point x="373" y="237"/>
      <point x="373" y="226" type="curve" smooth="yes"/>
      <point x="373" y="216"/>
      <point x="363" y="207"/>
    </contour>
  </outline>
</glyph>
<glyph name="b" format="1">
  <advance width="515"/>
  <unicode hex="0062"/>
  <outline>
    <contour>
      <point x="95" y="34" type="curve" smooth="yes"/>
      <point x="95" y="544" type="line" smooth="yes"/>
      <point x="95" y="555"/>
      <point x="104" y="564"/>
      <point x="115" y="564" type="curve" smooth="yes"/>
      <point x="126" y="564"/>
      <point x="135" y="555"/>
      <point x="135" y="544" type="curve" smooth="yes"/>
      <point x="135" y="34" type="line" smooth="yes"/>
      <point x="135" y="23"/>
      <point x="126" y="14"/>
      <point x="115" y="14" type="curve" smooth="yes"/>
      <point x="104" y="14"/>
      <point x="95" y="23"/>
    </contour>
    <contour>
      <point x="125" y="90" type="curve" smooth="yes"/>
      <point x="170" y="65"/>
      <point x="218" y="53"/>
      <point x="273" y="53" type="curve" smooth="yes"/>
      <point x="358" y="53"/>
      <point x="417" y="112"/>
      <point x="417" y="203" type="curve" smooth="yes"/>
      <point x="417" y="292"/>
      <point x="360" y="355"/>
      <point x="286" y="355" type="curve" smooth="yes"/>
      <point x="230" y="355"/>
      <point x="173" y="313"/>
      <point x="133" y="248" type="curve" smooth="yes"/>
      <point x="127" y="239"/>
      <point x="115" y="236"/>
      <point x="105" y="242" type="curve" smooth="yes"/>
      <point x="96" y="248"/>
      <point x="93" y="260"/>
      <point x="99" y="270" type="curve" smooth="yes"/>
      <point x="149" y="349"/>
      <point x="218" y="395"/>
      <point x="286" y="395" type="curve" smooth="yes"/>
      <point x="380" y="395"/>
      <point x="457" y="320"/>
      <point x="457" y="203" type="curve" smooth="yes"/>
      <point x="457" y="86"/>
      <point x="380" y="13"/>
      <point x="273" y="13" type="curve" smooth="yes"/>
      <point x="210" y="13"/>
      <point x="156" y="27"/>
      <point x="105" y="54" type="curve" smooth="yes"/>
      <point x="96" y="60"/>
      <point x="92" y="72"/>
      <point x="97" y="82" type="curve" smooth="yes"/>
      <point x="103" y="91"/>
      <point x="115" y="95"/>
    </contour>
  </outline>
</glyph>
<glyph name="c" format="1">
  <advance width="443"/>
  <unicode hex="0063"/>
  <outline>
    <contour>
      <point x="348" y="341" type="curve" smooth="yes"/>
      <point x="323" y="349"/>
      <point x="292" y="355"/>
      <point x="265" y="355" type="curve" smooth="yes"/>
      <point x="160" y="355"/>
      <point x="99" y="288"/>
      <point x="99" y="195" type="curve" smooth="yes"/>
      <point x="99" y="114"/>
      <point x="160" y="53"/>
      <point x="264" y="53" type="curve" smooth="yes"/>
      <point x="302" y="53"/>
      <point x="333" y="60"/>
      <point x="359" y="71" type="curve" smooth="yes"/>
      <point x="369" y="75"/>
      <point x="381" y="69"/>
      <point x="385" y="59" type="curve" smooth="yes"/>
      <point x="389" y="49"/>
      <point x="383" y="37"/>
      <point x="373" y="33" type="curve" smooth="yes"/>
      <point x="343" y="22"/>
      <point x="308" y="13"/>
      <point x="264" y="13" type="curve" smooth="yes"/>
      <point x="130" y="13"/>
      <point x="59" y="94"/>
      <point x="59" y="195" type="curve"/>
      <point x="59" y="310"/>
      <point x="134" y="395"/>
      <point x="265" y="395" type="curve" smooth="yes"/>
      <point x="296" y="395"/>
      <point x="331" y="389"/>
      <point x="360" y="379" type="curve" smooth="yes"/>
      <point x="371" y="376"/>
      <point x="376" y="364"/>
      <point x="373" y="354" type="curve" smooth="yes"/>
      <point x="370" y="343"/>
      <point x="358" y="338"/>
    </contour>
  </outline>
</glyph>
<glyph name="d" format="1">
  <advance width="514"/>
  <unicode hex="0064"/>
  <outline>
    <contour>
      <point x="386" y="301" type="curve" smooth="yes"/>
      <point x="345" y="334"/>
      <point x="304" y="355"/>
      <point x="249" y="355" type="curve" smooth="yes"/>
      <point x="162" y="355"/>
      <point x="98" y="288"/>
      <point x="98" y="196" type="curve" smooth="yes"/>
      <point x="98" y="110"/>
      <point x="153" y="53"/>
      <point x="228" y="53" type="curve" smooth="yes"/>
      <point x="297" y="53"/>
      <point x="346" y="101"/>
      <point x="381" y="160" type="curve" smooth="yes"/>
      <point x="386" y="169"/>
      <point x="399" y="173"/>
      <point x="408" y="167" type="curve" smooth="yes"/>
      <point x="417" y="162"/>
      <point x="421" y="149"/>
      <point x="415" y="140" type="curve" smooth="yes"/>
      <point x="372" y="67"/>
      <point x="311" y="13"/>
      <point x="228" y="13" type="curve" smooth="yes"/>
      <point x="133" y="13"/>
      <point x="58" y="84"/>
      <point x="58" y="196" type="curve"/>
      <point x="58" y="312"/>
      <point x="140" y="395"/>
      <point x="249" y="395" type="curve" smooth="yes"/>
      <point x="314" y="395"/>
      <point x="363" y="372"/>
      <point x="412" y="331" type="curve" smooth="yes"/>
      <point x="420" y="325"/>
      <point x="421" y="312"/>
      <point x="414" y="303" type="curve" smooth="yes"/>
      <point x="408" y="295"/>
      <point x="395" y="294"/>
    </contour>
    <contour>
      <point x="419" y="544" type="curve" smooth="yes"/>
      <point x="419" y="33" type="line" smooth="yes"/>
      <point x="419" y="22"/>
      <point x="410" y="13"/>
      <point x="399" y="13" type="curve" smooth="yes"/>
      <point x="388" y="13"/>
      <point x="379" y="22"/>
      <point x="379" y="33" type="curve" smooth="yes"/>
      <point x="379" y="544" type="line" smooth="yes"/>
      <point x="379" y="555"/>
      <point x="388" y="564"/>
      <point x="399" y="564" type="curve" smooth="yes"/>
      <point x="410" y="564"/>
      <point x="419" y="555"/>
    </contour>
  </outline>
</glyph>
<glyph name="e" format="1">
  <advance width="468"/>
  <unicode hex="0065"/>
  <outline>
    <contour>
      <point x="92" y="229" type="curve" smooth="yes"/>
      <point x="311" y="229" type="line" smooth="yes"/>
      <point x="338" y="229"/>
      <point x="363" y="238"/>
      <point x="363" y="267" type="curve" smooth="yes"/>
      <point x="363" y="302"/>
      <point x="320" y="355"/>
      <point x="247" y="355" type="curve" smooth="yes"/>
      <point x="165" y="355"/>
      <point x="99" y="292"/>
      <point x="99" y="199" type="curve" smooth="yes"/>
      <point x="99" y="102"/>
      <point x="169" y="53"/>
      <point x="267" y="53" type="curve" smooth="yes"/>
      <point x="300" y="53"/>
      <point x="333" y="60"/>
      <point x="357" y="70" type="curve" smooth="yes"/>
      <point x="367" y="74"/>
      <point x="379" y="68"/>
      <point x="383" y="58" type="curve" smooth="yes"/>
      <point x="387" y="48"/>
      <point x="381" y="36"/>
      <point x="371" y="32" type="curve" smooth="yes"/>
      <point x="343" y="22"/>
      <point x="306" y="13"/>
      <point x="267" y="13" type="curve" smooth="yes"/>
      <point x="143" y="13"/>
      <point x="59" y="80"/>
      <point x="59" y="199" type="curve"/>
      <point x="59" y="317"/>
      <point x="143" y="395"/>
      <point x="247" y="395" type="curve" smooth="yes"/>
      <point x="352" y="395"/>
      <point x="403" y="314"/>
      <point x="403" y="267" type="curve" smooth="yes"/>
      <point x="403" y="216"/>
      <point x="366" y="189"/>
      <point x="311" y="189" type="curve" smooth="yes"/>
      <point x="92" y="189" type="line" smooth="yes"/>
      <point x="81" y="189"/>
      <point x="72" y="198"/>
      <point x="72" y="209" type="curve" smooth="yes"/>
      <point x="72" y="220"/>
      <point x="81" y="229"/>
    </contour>
  </outline>
</glyph>
<glyph name="f" format="1">
  <advance width="328"/>
  <unicode hex="0066"/>
  <outline>
    <contour>
      <point x="276" y="550" type="curve" smooth="yes"/>
      <point x="189" y="545"/>
      <point x="159" y="508"/>
      <point x="159" y="448" type="curve" smooth="yes"/>
      <point x="159" y="33" type="line" smooth="yes"/>
      <point x="159" y="22"/>
      <point x="150" y="13"/>
      <point x="139" y="13" type="curve" smooth="yes"/>
      <point x="128" y="13"/>
      <point x="119" y="22"/>
      <point x="119" y="33" type="curve" smooth="yes"/>
      <point x="119" y="448" type="line" smooth="yes"/>
      <point x="119" y="528"/>
      <point x="153" y="583"/>
      <point x="274" y="590" type="curve" smooth="yes"/>
      <point x="285" y="591"/>
      <point x="294" y="582"/>
      <point x="295" y="571" type="curve" smooth="yes"/>
      <point x="296" y="560"/>
      <point x="287" y="551"/>
    </contour>
    <contour>
      <point x="51" y="395" type="curve" smooth="yes"/>
      <point x="277" y="395" type="line" smooth="yes"/>
      <point x="288" y="395"/>
      <point x="297" y="386"/>
      <point x="297" y="375" type="curve" smooth="yes"/>
      <point x="297" y="364"/>
      <point x="288" y="355"/>
      <point x="277" y="355" type="curve" smooth="yes"/>
      <point x="51" y="355" type="line" smooth="yes"/>
      <point x="40" y="355"/>
      <point x="31" y="364"/>
      <point x="31" y="375" type="curve" smooth="yes"/>
      <point x="31" y="386"/>
      <point x="40" y="395"/>
    </contour>
  </outline>
</glyph>
<glyph name="g" format="1">
  <advance width="512"/>
  <unicode hex="0067"/>
  <outline>
    <contour>
      <point x="388" y="320" type="curve" smooth="yes"/>
      <point x="339" y="343"/>
      <point x="307" y="355"/>
      <point x="254" y="355" type="curve" smooth="yes"/>
      <point x="175" y="355"/>
      <point x="98" y="293"/>
      <point x="98" y="195" type="curve" smooth="yes"/>
      <point x="98" y="105"/>
      <point x="158" y="65"/>
      <point x="220" y="65" type="curve" smooth="yes"/>
      <point x="280" y="65"/>
      <point x="339" y="99"/>
      <point x="379" y="163" type="curve" smooth="yes"/>
      <point x="385" y="172"/>
      <point x="397" y="175"/>
      <point x="407" y="169" type="curve" smooth="yes"/>
      <point x="416" y="163"/>
      <point x="419" y="151"/>
      <point x="413" y="141" type="curve" smooth="yes"/>
      <point x="365" y="65"/>
      <point x="292" y="25"/>
      <point x="220" y="25" type="curve" smooth="yes"/>
      <point x="140" y="25"/>
      <point x="58" y="75"/>
      <point x="58" y="195" type="curve"/>
      <point x="58" y="318"/>
      <point x="155" y="395"/>
      <point x="254" y="395" type="curve" smooth="yes"/>
      <point x="313" y="395"/>
      <point x="351" y="383"/>
      <point x="406" y="356" type="curve" smooth="yes"/>
      <point x="415" y="351"/>
      <point x="420" y="339"/>
      <point x="415" y="329" type="curve" smooth="yes"/>
      <point x="410" y="320"/>
      <point x="398" y="315"/>
    </contour>
    <contour>
      <point x="166" y="-128" type="curve" smooth="yes"/>
      <point x="310" y="-128"/>
      <point x="377" y="-74"/>
      <point x="377" y="49" type="curve" smooth="yes"/>
      <point x="377" y="375" type="line" smooth="yes"/>
      <point x="377" y="386"/>
      <point x="386" y="395"/>
      <point x="397" y="395" type="curve" smooth="yes"/>
      <point x="408" y="395"/>
      <point x="417" y="386"/>
      <point x="417" y="375" type="curve" smooth="yes"/>
      <point x="417" y="49" type="line" smooth="yes"/>
      <point x="417" y="-98"/>
      <point x="342" y="-168"/>
      <point x="166" y="-168" type="curve" smooth="yes"/>
      <point x="155" y="-168"/>
      <point x="146" y="-159"/>
      <point x="146" y="-148" type="curve" smooth="yes"/>
      <point x="146" y="-137"/>
      <point x="155" y="-128"/>
    </contour>
  </outline>
</glyph>
<glyph name="h" format="1">
  <advance width="507"/>
  <unicode hex="0068"/>
  <outline>
    <contour>
      <point x="95" y="33" type="curve" smooth="yes"/>
      <point x="95" y="544" type="line" smooth="yes"/>
      <point x="95" y="555"/>
      <point x="104" y="564"/>
      <point x="115" y="564" type="curve" smooth="yes"/>
      <point x="126" y="564"/>
      <point x="135" y="555"/>
      <point x="135" y="544" type="curve" smooth="yes"/>
      <point x="135" y="33" type="line" smooth="yes"/>
      <point x="135" y="22"/>
      <point x="126" y="13"/>
      <point x="115" y="13" type="curve" smooth="yes"/>
      <point x="104" y="13"/>
      <point x="95" y="22"/>
    </contour>
    <contour>
      <point x="382" y="33" type="curve" smooth="yes"/>
      <point x="382" y="233" type="line" smooth="yes"/>
      <point x="382" y="319"/>
      <point x="345" y="355"/>
      <point x="290" y="355" type="curve" smooth="yes"/>
      <point x="232" y="355"/>
      <point x="177" y="318"/>
      <point x="133" y="274" type="curve" smooth="yes"/>
      <point x="126" y="266"/>
      <point x="112" y="266"/>
      <point x="105" y="274" type="curve" smooth="yes"/>
      <point x="97" y="281"/>
      <point x="97" y="295"/>
      <point x="105" y="302" type="curve" smooth="yes"/>
      <point x="157" y="354"/>
      <point x="222" y="395"/>
      <point x="290" y="395" type="curve" smooth="yes"/>
      <point x="363" y="395"/>
      <point x="422" y="357"/>
      <point x="422" y="233" type="curve" smooth="yes"/>
      <point x="422" y="33" type="line" smooth="yes"/>
      <point x="422" y="22"/>
      <point x="413" y="13"/>
      <point x="402" y="13" type="curve" smooth="yes"/>
      <point x="391" y="13"/>
      <point x="382" y="22"/>
    </contour>
  </outline>
</glyph>
<glyph name="i" format="1">
  <advance width="217"/>
  <unicode hex="0069"/>
  <outline>
    <contour>
      <point x="109" y="603" type="curve" smooth="yes"/>
      <point x="128" y="603"/>
      <point x="146" y="585"/>
      <point x="146" y="557" type="curve" smooth="yes"/>
      <point x="146" y="529"/>
      <point x="129" y="513"/>
      <point x="109" y="513" type="curve" smooth="yes"/>
      <point x="87" y="513"/>
      <point x="70" y="530"/>
      <point x="70" y="557" type="curve" smooth="yes"/>
      <point x="70" y="584"/>
      <point x="88" y="603"/>
    </contour>
    <contour>
      <point x="88" y="33" type="curve" smooth="yes"/>
      <point x="88" y="375" type="line" smooth="yes"/>
      <point x="88" y="386"/>
      <point x="97" y="395"/>
      <point x="108" y="395" type="curve" smooth="yes"/>
      <point x="119" y="395"/>
      <point x="128" y="386"/>
      <point x="128" y="375" type="curve" smooth="yes"/>
      <point x="128" y="33" type="line" smooth="yes"/>
      <point x="128" y="22"/>
      <point x="119" y="13"/>
      <point x="108" y="13" type="curve" smooth="yes"/>
      <point x="97" y="13"/>
      <point x="88" y="22"/>
    </contour>
    <contour>
      <point x="109" y="563" type="curve" smooth="yes"/>
      <point x="106" y="563"/>
      <point x="110" y="556"/>
      <point x="110" y="557" type="curve" smooth="yes"/>
      <point x="110" y="558"/>
      <point x="107" y="553"/>
      <point x="109" y="553" type="curve" smooth="yes"/>
      <point x="111" y="553"/>
      <point x="106" y="559"/>
      <point x="106" y="557" type="curve" smooth="yes"/>
      <point x="106" y="555"/>
      <point x="112" y="563"/>
    </contour>
  </outline>
</glyph>
<glyph name="j" format="1">
  <advance width="220"/>
  <unicode hex="006A"/>
  <outline>
    <contour>
      <point x="112" y="603" type="curve" smooth="yes"/>
      <point x="131" y="603"/>
      <point x="149" y="585"/>
      <point x="149" y="557" type="curve" smooth="yes"/>
      <point x="149" y="529"/>
      <point x="132" y="513"/>
      <point x="112" y="513" type="curve" smooth="yes"/>
      <point x="90" y="513"/>
      <point x="73" y="530"/>
      <point x="73" y="557" type="curve" smooth="yes"/>
      <point x="73" y="584"/>
      <point x="91" y="603"/>
    </contour>
    <contour>
      <point x="-6" y="-106" type="curve" smooth="yes"/>
      <point x="56" y="-82"/>
      <point x="91" y="-36"/>
      <point x="91" y="52" type="curve" smooth="yes"/>
      <point x="91" y="375" type="line" smooth="yes"/>
      <point x="91" y="386"/>
      <point x="100" y="395"/>
      <point x="111" y="395" type="curve" smooth="yes"/>
      <point x="122" y="395"/>
      <point x="131" y="386"/>
      <point x="131" y="375" type="curve" smooth="yes"/>
      <point x="131" y="52" type="line" smooth="yes"/>
      <point x="131" y="-58"/>
      <point x="86" y="-114"/>
      <point x="8" y="-144" type="curve" smooth="yes"/>
      <point x="-2" y="-148"/>
      <point x="-14" y="-142"/>
      <point x="-18" y="-132" type="curve" smooth="yes"/>
      <point x="-22" y="-122"/>
      <point x="-16" y="-110"/>
    </contour>
    <contour>
      <point x="112" y="563" type="curve" smooth="yes"/>
      <point x="109" y="563"/>
      <point x="113" y="556"/>
      <point x="113" y="557" type="curve" smooth="yes"/>
      <point x="113" y="558"/>
      <point x="110" y="553"/>
      <point x="112" y="553" type="curve" smooth="yes"/>
      <point x="114" y="553"/>
      <point x="109" y="559"/>
      <point x="109" y="557" type="curve" smooth="yes"/>
      <point x="109" y="555"/>
      <point x="115" y="563"/>
    </contour>
  </outline>
</glyph>
<glyph name="k" format="1">
  <advance width="483"/>
  <unicode hex="006B"/>
  <outline>
    <contour>
      <point x="95" y="33" type="curve" smooth="yes"/>
      <point x="95" y="544" type="line" smooth="yes"/>
      <point x="95" y="555"/>
      <point x="104" y="564"/>
      <point x="115" y="564" type="curve" smooth="yes"/>
      <point x="126" y="564"/>
      <point x="135" y="555"/>
      <point x="135" y="544" type="curve" smooth="yes"/>
      <point x="135" y="33" type="line" smooth="yes"/>
      <point x="135" y="22"/>
      <point x="126" y="13"/>
      <point x="115" y="13" type="curve" smooth="yes"/>
      <point x="104" y="13"/>
      <point x="95" y="22"/>
    </contour>
    <contour>
      <point x="255" y="271" type="curve" smooth="yes"/>
      <point x="416" y="45" type="line" smooth="yes"/>
      <point x="423" y="36"/>
      <point x="420" y="23"/>
      <point x="412" y="17" type="curve" smooth="yes"/>
      <point x="403" y="10"/>
      <point x="390" y="13"/>
      <point x="384" y="21" type="curve" smooth="yes"/>
      <point x="223" y="247" type="line" smooth="yes"/>
      <point x="216" y="256"/>
      <point x="219" y="269"/>
      <point x="227" y="275" type="curve" smooth="yes"/>
      <point x="236" y="282"/>
      <point x="249" y="279"/>
    </contour>
    <contour>
      <point x="399" y="359" type="curve" smooth="yes"/>
      <point x="129" y="147" type="line" smooth="yes"/>
      <point x="121" y="141"/>
      <point x="108" y="142"/>
      <point x="101" y="151" type="curve" smooth="yes"/>
      <point x="95" y="159"/>
      <point x="96" y="172"/>
      <point x="105" y="179" type="curve" smooth="yes"/>
      <point x="375" y="391" type="line" smooth="yes"/>
      <point x="383" y="397"/>
      <point x="396" y="396"/>
      <point x="403" y="387" type="curve" smooth="yes"/>
      <point x="409" y="379"/>
      <point x="408" y="366"/>
    </contour>
  </outline>
</glyph>
<glyph name="m" format="1">
  <advance width="762"/>
  <unicode hex="006D"/>
  <outline>
    <contour>
      <point x="95" y="33" type="curve" smooth="yes"/>
      <point x="95" y="375" type="line" smooth="yes"/>
      <point x="95" y="386"/>
      <point x="104" y="395"/>
      <point x="115" y="395" type="curve" smooth="yes"/>
      <point x="126" y="395"/>
      <point x="135" y="386"/>
      <point x="135" y="375" type="curve" smooth="yes"/>
      <point x="135" y="33" type="line" smooth="yes"/>
      <point x="135" y="22"/>
      <point x="126" y="13"/>
      <point x="115" y="13" type="curve" smooth="yes"/>
      <point x="104" y="13"/>
      <point x="95" y="22"/>
    </contour>
    <contour>
      <point x="367" y="33" type="curve" smooth="yes"/>
      <point x="367" y="243" type="line" smooth="yes"/>
      <point x="367" y="327"/>
      <point x="330" y="355"/>
      <point x="278" y="355" type="curve" smooth="yes"/>
      <point x="226" y="355"/>
      <point x="172" y="317"/>
      <point x="132" y="273" type="curve" smooth="yes"/>
      <point x="125" y="265"/>
      <point x="112" y="264"/>
      <point x="104" y="271" type="curve" smooth="yes"/>
      <point x="96" y="278"/>
      <point x="95" y="291"/>
      <point x="102" y="299" type="curve" smooth="yes"/>
      <point x="150" y="353"/>
      <point x="216" y="395"/>
      <point x="278" y="395" type="curve" smooth="yes"/>
      <point x="348" y="395"/>
      <point x="407" y="365"/>
      <point x="407" y="243" type="curve" smooth="yes"/>
      <point x="407" y="33" type="line" smooth="yes"/>
      <point x="407" y="22"/>
      <point x="398" y="13"/>
      <point x="387" y="13" type="curve" smooth="yes"/>
      <point x="376" y="13"/>
      <point x="367" y="22"/>
    </contour>
    <contour>
      <point x="637" y="33" type="curve" smooth="yes"/>
      <point x="637" y="243" type="line" smooth="yes"/>
      <point x="637" y="327"/>
      <point x="600" y="355"/>
      <point x="548" y="355" type="curve" smooth="yes"/>
      <point x="496" y="355"/>
      <point x="443" y="317"/>
      <point x="402" y="272" type="curve" smooth="yes"/>
      <point x="394" y="265"/>
      <point x="381" y="264"/>
      <point x="373" y="271" type="curve" smooth="yes"/>
      <point x="366" y="279"/>
      <point x="365" y="292"/>
      <point x="372" y="300" type="curve" smooth="yes"/>
      <point x="421" y="353"/>
      <point x="486" y="395"/>
      <point x="548" y="395" type="curve" smooth="yes"/>
      <point x="618" y="395"/>
      <point x="677" y="365"/>
      <point x="677" y="243" type="curve" smooth="yes"/>
      <point x="677" y="33" type="line" smooth="yes"/>
      <point x="677" y="22"/>
      <point x="668" y="13"/>
      <point x="657" y="13" type="curve" smooth="yes"/>
      <point x="646" y="13"/>
      <point x="637" y="22"/>
    </contour>
  </outline>
</glyph>
<glyph name="o" format="1">
  <advance width="504"/>
  <unicode hex="006F"/>
  <outline>
    <contour>
      <point x="252" y="399" type="curve" smooth="yes"/>
      <point x="371" y="399"/>
      <point x="446" y="309"/>
      <point x="446" y="199" type="curve" smooth="yes"/>
      <point x="446" y="92"/>
      <point x="370" y="9"/>
      <point x="252" y="9" type="curve" smooth="yes"/>
      <point x="134" y="9"/>
      <point x="58" y="93"/>
      <point x="58" y="201" type="curve"/>
      <point x="58" y="309"/>
      <point x="132" y="399"/>
    </contour>
    <contour>
      <point x="252" y="359" type="curve" smooth="yes"/>
      <point x="156" y="359"/>
      <point x="98" y="287"/>
      <point x="98" y="201" type="curve" smooth="yes"/>
      <point x="98" y="115"/>
      <point x="158" y="49"/>
      <point x="252" y="49" type="curve" smooth="yes"/>
      <point x="346" y="49"/>
      <point x="406" y="114"/>
      <point x="406" y="199" type="curve" smooth="yes"/>
      <point x="406" y="287"/>
      <point x="347" y="359"/>
    </contour>
  </outline>
</glyph>
<glyph name="p" format="1">
  <advance width="513"/>
  <unicode hex="0070"/>
  <outline>
    <contour>
      <point x="95" y="-158" type="curve" smooth="yes"/>
      <point x="95" y="375" type="line" smooth="yes"/>
      <point x="95" y="386"/>
      <point x="104" y="395"/>
      <point x="115" y="395" type="curve" smooth="yes"/>
      <point x="126" y="395"/>
      <point x="135" y="386"/>
      <point x="135" y="375" type="curve" smooth="yes"/>
      <point x="135" y="-158" type="line" smooth="yes"/>
      <point x="135" y="-169"/>
      <point x="126" y="-178"/>
      <point x="115" y="-178" type="curve" smooth="yes"/>
      <point x="104" y="-178"/>
      <point x="95" y="-169"/>
    </contour>
    <contour>
      <point x="128" y="112" type="curve" smooth="yes"/>
      <point x="170" y="78"/>
      <point x="220" y="53"/>
      <point x="270" y="53" type="curve" smooth="yes"/>
      <point x="357" y="53"/>
      <point x="415" y="119"/>
      <point x="415" y="204" type="curve" smooth="yes"/>
      <point x="415" y="300"/>
      <point x="354" y="355"/>
      <point x="282" y="355" type="curve" smooth="yes"/>
      <point x="223" y="355"/>
      <point x="173" y="314"/>
      <point x="132" y="256" type="curve" smooth="yes"/>
      <point x="126" y="248"/>
      <point x="113" y="245"/>
      <point x="104" y="252" type="curve" smooth="yes"/>
      <point x="96" y="258"/>
      <point x="93" y="271"/>
      <point x="100" y="280" type="curve" smooth="yes"/>
      <point x="149" y="350"/>
      <point x="211" y="395"/>
      <point x="282" y="395" type="curve" smooth="yes"/>
      <point x="372" y="395"/>
      <point x="455" y="330"/>
      <point x="455" y="204" type="curve" smooth="yes"/>
      <point x="455" y="95"/>
      <point x="379" y="13"/>
      <point x="270" y="13" type="curve" smooth="yes"/>
      <point x="212" y="13"/>
      <point x="152" y="40"/>
      <point x="102" y="82" type="curve" smooth="yes"/>
      <point x="94" y="88"/>
      <point x="93" y="101"/>
      <point x="100" y="110" type="curve" smooth="yes"/>
      <point x="106" y="118"/>
      <point x="119" y="119"/>
    </contour>
  </outline>
</glyph>
<glyph name="q" format="1">
  <advance width="513"/>
  <unicode hex="0071"/>
  <outline>
    <contour>
      <point x="418" y="375" type="curve" smooth="yes"/>
      <point x="418" y="-158" type="line" smooth="yes"/>
      <point x="418" y="-169"/>
      <point x="409" y="-178"/>
      <point x="398" y="-178" type="curve" smooth="yes"/>
      <point x="387" y="-178"/>
      <point x="378" y="-169"/>
      <point x="378" y="-158" type="curve" smooth="yes"/>
      <point x="378" y="375" type="line" smooth="yes"/>
      <point x="378" y="386"/>
      <point x="387" y="395"/>
      <point x="398" y="395" type="curve" smooth="yes"/>
      <point x="409" y="395"/>
      <point x="418" y="386"/>
    </contour>
    <contour>
      <point x="387" y="317" type="curve" smooth="yes"/>
      <point x="349" y="341"/>
      <point x="308" y="355"/>
      <point x="254" y="355" type="curve" smooth="yes"/>
      <point x="169" y="355"/>
      <point x="97" y="292"/>
      <point x="97" y="189" type="curve" smooth="yes"/>
      <point x="97" y="104"/>
      <point x="159" y="53"/>
      <point x="225" y="53" type="curve" smooth="yes"/>
      <point x="283" y="53"/>
      <point x="339" y="86"/>
      <point x="380" y="151" type="curve" smooth="yes"/>
      <point x="386" y="161"/>
      <point x="398" y="164"/>
      <point x="407" y="158" type="curve" smooth="yes"/>
      <point x="417" y="152"/>
      <point x="420" y="140"/>
      <point x="414" y="131" type="curve" smooth="yes"/>
      <point x="365" y="50"/>
      <point x="295" y="13"/>
      <point x="225" y="13" type="curve" smooth="yes"/>
      <point x="139" y="13"/>
      <point x="57" y="78"/>
      <point x="57" y="189" type="curve"/>
      <point x="57" y="318"/>
      <point x="149" y="395"/>
      <point x="254" y="395" type="curve" smooth="yes"/>
      <point x="316" y="395"/>
      <point x="365" y="379"/>
      <point x="409" y="351" type="curve" smooth="yes"/>
      <point x="418" y="345"/>
      <point x="421" y="332"/>
      <point x="415" y="323" type="curve" smooth="yes"/>
      <point x="409" y="314"/>
      <point x="396" y="311"/>
    </contour>
  </outline>
</glyph>
<glyph name="r" format="1">
  <advance width="358"/>
  <unicode hex="0072"/>
  <outline>
    <contour>
      <point x="95" y="33" type="curve" smooth="yes"/>
      <point x="95" y="375" type="line" smooth="yes"/>
      <point x="95" y="386"/>
      <point x="104" y="395"/>
      <point x="115" y="395" type="curve" smooth="yes"/>
      <point x="126" y="395"/>
      <point x="135" y="386"/>
      <point x="135" y="375" type="curve" smooth="yes"/>
      <point x="135" y="33" type="line" smooth="yes"/>
      <point x="135" y="22"/>
      <point x="126" y="13"/>
      <point x="115" y="13" type="curve" smooth="yes"/>
      <point x="104" y="13"/>
      <point x="95" y="22"/>
    </contour>
    <contour>
      <point x="99" y="255" type="curve" smooth="yes"/>
      <point x="150" y="333"/>
      <point x="210" y="383"/>
      <point x="305" y="395" type="curve" smooth="yes"/>
      <point x="315" y="396"/>
      <point x="326" y="388"/>
      <point x="327" y="377" type="curve" smooth="yes"/>
      <point x="328" y="367"/>
      <point x="320" y="356"/>
      <point x="309" y="355" type="curve" smooth="yes"/>
      <point x="228" y="345"/>
      <point x="176" y="301"/>
      <point x="133" y="233" type="curve" smooth="yes"/>
      <point x="127" y="224"/>
      <point x="114" y="221"/>
      <point x="105" y="227" type="curve" smooth="yes"/>
      <point x="96" y="233"/>
      <point x="93" y="246"/>
    </contour>
  </outline>
</glyph>
<glyph name="s" format="1">
  <advance width="462"/>
  <unicode hex="0073"/>
  <outline>
    <contour>
      <point x="338" y="341" type="curve" smooth="yes"/>
      <point x="310" y="348"/>
      <point x="274" y="355"/>
      <point x="234" y="355" type="curve" smooth="yes"/>
      <point x="164" y="355"/>
      <point x="126" y="328"/>
      <point x="126" y="293" type="curve" smooth="yes"/>
      <point x="126" y="262"/>
      <point x="161" y="241"/>
      <point x="228" y="234" type="curve" smooth="yes"/>
      <point x="268" y="230" type="line" smooth="yes"/>
      <point x="363" y="220"/>
      <point x="396" y="170"/>
      <point x="396" y="119" type="curve" smooth="yes"/>
      <point x="396" y="66"/>
      <point x="361" y="9"/>
      <point x="240" y="9" type="curve" smooth="yes"/>
      <point x="190" y="9"/>
      <point x="139" y="19"/>
      <point x="92" y="39" type="curve" smooth="yes"/>
      <point x="82" y="43"/>
      <point x="77" y="55"/>
      <point x="82" y="65" type="curve" smooth="yes"/>
      <point x="86" y="75"/>
      <point x="98" y="80"/>
      <point x="108" y="75" type="curve" smooth="yes"/>
      <point x="149" y="57"/>
      <point x="196" y="49"/>
      <point x="240" y="49" type="curve" smooth="yes"/>
      <point x="317" y="49"/>
      <point x="356" y="80"/>
      <point x="356" y="119" type="curve" smooth="yes"/>
      <point x="356" y="156"/>
      <point x="325" y="184"/>
      <point x="264" y="190" type="curve" smooth="yes"/>
      <point x="224" y="194" type="line" smooth="yes"/>
      <point x="111" y="205"/>
      <point x="86" y="250"/>
      <point x="86" y="293" type="curve" smooth="yes"/>
      <point x="86" y="340"/>
      <point x="118" y="395"/>
      <point x="234" y="395" type="curve" smooth="yes"/>
      <point x="278" y="395"/>
      <point x="318" y="388"/>
      <point x="348" y="379" type="curve" smooth="yes"/>
      <point x="359" y="376"/>
      <point x="365" y="365"/>
      <point x="362" y="355" type="curve" smooth="yes"/>
      <point x="359" y="344"/>
      <point x="348" y="338"/>
    </contour>
  </outline>
</glyph>
<glyph name="t" format="1">
  <advance width="364"/>
  <unicode hex="0074"/>
  <outline>
    <contour>
      <point x="159" y="501" type="curve" smooth="yes"/>
      <point x="159" y="150" type="line" smooth="yes"/>
      <point x="159" y="86"/>
      <point x="201" y="55"/>
      <point x="284" y="53" type="curve" smooth="yes"/>
      <point x="295" y="53"/>
      <point x="304" y="43"/>
      <point x="304" y="33" type="curve" smooth="yes"/>
      <point x="304" y="22"/>
      <point x="294" y="13"/>
      <point x="284" y="13" type="curve" smooth="yes"/>
      <point x="165" y="15"/>
      <point x="119" y="66"/>
      <point x="119" y="150" type="curve" smooth="yes"/>
      <point x="119" y="501" type="line" smooth="yes"/>
      <point x="119" y="512"/>
      <point x="128" y="521"/>
      <point x="139" y="521" type="curve" smooth="yes"/>
      <point x="150" y="521"/>
      <point x="159" y="512"/>
    </contour>
    <contour>
      <point x="51" y="395" type="curve" smooth="yes"/>
      <point x="297" y="395" type="line" smooth="yes"/>
      <point x="308" y="395"/>
      <point x="317" y="386"/>
      <point x="317" y="375" type="curve" smooth="yes"/>
      <point x="317" y="364"/>
      <point x="308" y="355"/>
      <point x="297" y="355" type="curve" smooth="yes"/>
      <point x="51" y="355" type="line" smooth="yes"/>
      <point x="40" y="355"/>
      <point x="31" y="364"/>
      <point x="31" y="375" type="curve" smooth="yes"/>
      <point x="31" y="386"/>
      <point x="40" y="395"/>
    </contour>
  </outline>
</glyph>
<glyph name="u" format="1">
  <advance width="507"/>
  <unicode hex="0075"/>
  <outline>
    <contour>
      <point x="412" y="375" type="curve" smooth="yes"/>
      <point x="412" y="33" type="line" smooth="yes"/>
      <point x="412" y="22"/>
      <point x="403" y="13"/>
      <point x="392" y="13" type="curve" smooth="yes"/>
      <point x="381" y="13"/>
      <point x="372" y="22"/>
      <point x="372" y="33" type="curve" smooth="yes"/>
      <point x="372" y="375" type="line" smooth="yes"/>
      <point x="372" y="386"/>
      <point x="381" y="395"/>
      <point x="392" y="395" type="curve" smooth="yes"/>
      <point x="403" y="395"/>
      <point x="412" y="386"/>
    </contour>
    <contour>
      <point x="125" y="375" type="curve" smooth="yes"/>
      <point x="125" y="175" type="line" smooth="yes"/>
      <point x="125" y="89"/>
      <point x="162" y="53"/>
      <point x="217" y="53" type="curve" smooth="yes"/>
      <point x="275" y="53"/>
      <point x="334" y="99"/>
      <point x="372" y="152" type="curve" smooth="yes"/>
      <point x="378" y="160"/>
      <point x="391" y="163"/>
      <point x="400" y="156" type="curve" smooth="yes"/>
      <point x="408" y="150"/>
      <point x="411" y="137"/>
      <point x="404" y="128" type="curve" smooth="yes"/>
      <point x="358" y="65"/>
      <point x="285" y="13"/>
      <point x="217" y="13" type="curve" smooth="yes"/>
      <point x="144" y="13"/>
      <point x="85" y="51"/>
      <point x="85" y="175" type="curve" smooth="yes"/>
      <point x="85" y="375" type="line" smooth="yes"/>
      <point x="85" y="386"/>
      <point x="94" y="395"/>
      <point x="105" y="395" type="curve" smooth="yes"/>
      <point x="116" y="395"/>
      <point x="125" y="386"/>
    </contour>
  </outline>
</glyph>
<glyph name="v" format="1">
  <advance width="461"/>
  <unicode hex="0076"/>
  <outline>
    <contour>
      <point x="87" y="382" type="curve" smooth="yes"/>
      <point x="145" y="231"/>
      <point x="199" y="125"/>
      <point x="251" y="39" type="curve"/>
      <point x="234" y="49" type="line"/>
      <point x="237" y="49" type="line"/>
      <point x="220" y="39" type="line"/>
      <point x="271" y="124"/>
      <point x="336" y="273"/>
      <point x="375" y="382" type="curve" smooth="yes"/>
      <point x="379" y="392"/>
      <point x="391" y="397"/>
      <point x="401" y="394" type="curve" smooth="yes"/>
      <point x="411" y="390"/>
      <point x="416" y="378"/>
      <point x="413" y="368" type="curve" smooth="yes"/>
      <point x="372" y="257"/>
      <point x="307" y="106"/>
      <point x="254" y="19" type="curve" smooth="yes"/>
      <point x="251" y="13"/>
      <point x="243" y="9"/>
      <point x="237" y="9" type="curve" smooth="yes"/>
      <point x="234" y="9" type="line" smooth="yes"/>
      <point x="228" y="9"/>
      <point x="220" y="13"/>
      <point x="217" y="19" type="curve" smooth="yes"/>
      <point x="163" y="105"/>
      <point x="109" y="213"/>
      <point x="49" y="368" type="curve" smooth="yes"/>
      <point x="45" y="378"/>
      <point x="51" y="390"/>
      <point x="61" y="394" type="curve" smooth="yes"/>
      <point x="71" y="398"/>
      <point x="83" y="392"/>
    </contour>
  </outline>
</glyph>
<glyph name="w" format="1">
  <advance width="709"/>
  <unicode hex="0077"/>
  <outline>
    <contour>
      <point x="97" y="379" type="curve" smooth="yes"/>
      <point x="134" y="248"/>
      <point x="181" y="124"/>
      <point x="222" y="39" type="curve"/>
      <point x="204" y="50" type="line"/>
      <point x="206" y="50" type="line"/>
      <point x="188" y="39" type="line"/>
      <point x="231" y="124"/>
      <point x="298" y="262"/>
      <point x="332" y="370" type="curve" smooth="yes"/>
      <point x="335" y="380"/>
      <point x="347" y="386"/>
      <point x="357" y="383" type="curve" smooth="yes"/>
      <point x="367" y="380"/>
      <point x="373" y="368"/>
      <point x="370" y="358" type="curve" smooth="yes"/>
      <point x="336" y="248"/>
      <point x="267" y="108"/>
      <point x="224" y="21" type="curve" smooth="yes"/>
      <point x="221" y="15"/>
      <point x="213" y="10"/>
      <point x="206" y="10" type="curve" smooth="yes"/>
      <point x="204" y="10" type="line" smooth="yes"/>
      <point x="197" y="10"/>
      <point x="189" y="15"/>
      <point x="186" y="21" type="curve" smooth="yes"/>
      <point x="145" y="108"/>
      <point x="96" y="234"/>
      <point x="59" y="369" type="curve" smooth="yes"/>
      <point x="56" y="379"/>
      <point x="62" y="390"/>
      <point x="73" y="393" type="curve" smooth="yes"/>
      <point x="83" y="396"/>
      <point x="94" y="390"/>
    </contour>
    <contour>
      <point x="377" y="371" type="curve" smooth="yes"/>
      <point x="423" y="239"/>
      <point x="476" y="124"/>
      <point x="522" y="38" type="curve"/>
      <point x="504" y="49" type="line"/>
      <point x="506" y="49" type="line"/>
      <point x="488" y="37" type="line"/>
      <point x="526" y="123"/>
      <point x="580" y="259"/>
      <point x="613" y="378" type="curve" smooth="yes"/>
      <point x="616" y="389"/>
      <point x="627" y="395"/>
      <point x="637" y="392" type="curve" smooth="yes"/>
      <point x="648" y="389"/>
      <point x="654" y="378"/>
      <point x="651" y="368" type="curve" smooth="yes"/>
      <point x="618" y="247"/>
      <point x="564" y="107"/>
      <point x="524" y="21" type="curve" smooth="yes"/>
      <point x="521" y="14"/>
      <point x="513" y="9"/>
      <point x="506" y="9" type="curve" smooth="yes"/>
      <point x="504" y="9" type="line" smooth="yes"/>
      <point x="497" y="9"/>
      <point x="489" y="14"/>
      <point x="486" y="20" type="curve" smooth="yes"/>
      <point x="440" y="106"/>
      <point x="387" y="223"/>
      <point x="339" y="357" type="curve" smooth="yes"/>
      <point x="336" y="368"/>
      <point x="341" y="379"/>
      <point x="351" y="383" type="curve" smooth="yes"/>
      <point x="362" y="386"/>
      <point x="373" y="381"/>
    </contour>
  </outline>
</glyph>
<glyph name="x" format="1">
  <advance width="457"/>
  <unicode hex="0078"/>
  <outline>
    <contour>
      <point x="53" y="46" type="curve" smooth="yes"/>
      <point x="118" y="120"/>
      <point x="276" y="290"/>
      <point x="353" y="387" type="curve" smooth="yes"/>
      <point x="360" y="396"/>
      <point x="373" y="397"/>
      <point x="381" y="391" type="curve" smooth="yes"/>
      <point x="390" y="384"/>
      <point x="391" y="371"/>
      <point x="385" y="363" type="curve" smooth="yes"/>
      <point x="306" y="264"/>
      <point x="148" y="94"/>
      <point x="83" y="20" type="curve" smooth="yes"/>
      <point x="76" y="12"/>
      <point x="63" y="11"/>
      <point x="55" y="18" type="curve" smooth="yes"/>
      <point x="47" y="25"/>
      <point x="46" y="38"/>
    </contour>
    <contour>
      <point x="96" y="388" type="curve" smooth="yes"/>
      <point x="174" y="296"/>
      <point x="314" y="149"/>
      <point x="404" y="46" type="curve" smooth="yes"/>
      <point x="411" y="38"/>
      <point x="410" y="25"/>
      <point x="402" y="18" type="curve" smooth="yes"/>
      <point x="394" y="11"/>
      <point x="381" y="12"/>
      <point x="374" y="20" type="curve" smooth="yes"/>
      <point x="284" y="123"/>
      <point x="144" y="270"/>
      <point x="66" y="362" type="curve" smooth="yes"/>
      <point x="59" y="370"/>
      <point x="60" y="383"/>
      <point x="68" y="390" type="curve" smooth="yes"/>
      <point x="76" y="397"/>
      <point x="89" y="396"/>
    </contour>
  </outline>
</glyph>
<glyph name="y" format="1">
  <advance width="460"/>
  <unicode hex="0079"/>
  <outline>
    <contour>
      <point x="58" y="-124" type="curve" smooth="yes"/>
      <point x="118" y="-89"/>
      <point x="173" y="-47"/>
      <point x="227" y="44" type="curve" smooth="yes"/>
      <point x="279" y="133"/>
      <point x="338" y="269"/>
      <point x="372" y="381" type="curve" smooth="yes"/>
      <point x="375" y="391"/>
      <point x="386" y="397"/>
      <point x="397" y="394" type="curve" smooth="yes"/>
      <point x="407" y="391"/>
      <point x="413" y="380"/>
      <point x="410" y="369" type="curve" smooth="yes"/>
      <point x="376" y="255"/>
      <point x="315" y="115"/>
      <point x="261" y="24" type="curve" smooth="yes"/>
      <point x="203" y="-75"/>
      <point x="144" y="-121"/>
      <point x="78" y="-158" type="curve" smooth="yes"/>
      <point x="69" y="-164"/>
      <point x="56" y="-160"/>
      <point x="51" y="-151" type="curve" smooth="yes"/>
      <point x="45" y="-142"/>
      <point x="49" y="-129"/>
    </contour>
    <contour>
      <point x="89" y="383" type="curve" smooth="yes"/>
      <point x="142" y="232"/>
      <point x="207" y="123"/>
      <point x="258" y="45" type="curve" smooth="yes"/>
      <point x="264" y="36"/>
      <point x="261" y="23"/>
      <point x="252" y="17" type="curve" smooth="yes"/>
      <point x="243" y="11"/>
      <point x="230" y="14"/>
      <point x="224" y="23" type="curve" smooth="yes"/>
      <point x="173" y="103"/>
      <point x="106" y="214"/>
      <point x="51" y="369" type="curve" smooth="yes"/>
      <point x="48" y="380"/>
      <point x="53" y="391"/>
      <point x="63" y="395" type="curve" smooth="yes"/>
      <point x="74" y="398"/>
      <point x="85" y="393"/>
    </contour>
  </outline>
</glyph>
<glyph name="z" format="1">
  <advance width="454"/>
  <unicode hex="007A"/>
  <outline>
    <contour>
      <point x="360" y="355" type="curve" smooth="yes"/>
      <point x="91" y="355" type="line" smooth="yes"/>
      <point x="80" y="355"/>
      <point x="71" y="364"/>
      <point x="71" y="375" type="curve" smooth="yes"/>
      <point x="71" y="386"/>
      <point x="80" y="395"/>
      <point x="91" y="395" type="curve" smooth="yes"/>
      <point x="360" y="395" type="line" smooth="yes"/>
      <point x="371" y="395"/>
      <point x="380" y="386"/>
      <point x="380" y="375" type="curve" smooth="yes"/>
      <point x="380" y="364"/>
      <point x="371" y="355"/>
    </contour>
    <contour>
      <point x="76" y="53" type="curve" smooth="yes"/>
      <point x="377" y="53" type="line" smooth="yes"/>
      <point x="388" y="53"/>
      <point x="397" y="44"/>
      <point x="397" y="33" type="curve" smooth="yes"/>
      <point x="397" y="22"/>
      <point x="388" y="13"/>
      <point x="377" y="13" type="curve" smooth="yes"/>
      <point x="76" y="13" type="line" smooth="yes"/>
      <point x="65" y="13"/>
      <point x="56" y="22"/>
      <point x="56" y="33" type="curve" smooth="yes"/>
      <point x="56" y="44"/>
      <point x="65" y="53"/>
    </contour>
    <contour>
      <point x="381" y="362" type="curve" smooth="yes"/>
      <point x="97" y="28" type="line" smooth="yes"/>
      <point x="90" y="20"/>
      <point x="77" y="19"/>
      <point x="69" y="26" type="curve" smooth="yes"/>
      <point x="61" y="33"/>
      <point x="60" y="46"/>
      <point x="67" y="54" type="curve" smooth="yes"/>
      <point x="351" y="388" type="line" smooth="yes"/>
      <point x="358" y="396"/>
      <point x="371" y="397"/>
      <point x="379" y="390" type="curve" smooth="yes"/>
      <point x="387" y="383"/>
      <point x="388" y="370"/>
    </contour>
  </outline>
</glyph>
<glyph name="braceleft" format="1">
  <advance width="325"/>
  <unicode hex="007B"/>
  <outline>
    <contour>
      <point x="278" y="593" type="curve" smooth="yes"/>
      <point x="258" y="593" type="line" smooth="yes"/>
      <point x="178" y="593"/>
      <point x="120" y="555"/>
      <point x="120" y="505" type="curve" smooth="yes"/>
      <point x="120" y="440"/>
      <point x="187" y="405"/>
      <point x="187" y="347" type="curve" smooth="yes"/>
      <point x="187" y="305"/>
      <point x="155" y="269"/>
      <point x="68" y="256" type="curve"/>
      <point x="85" y="276" type="line"/>
      <point x="85" y="270" type="line"/>
      <point x="68" y="290" type="line"/>
      <point x="155" y="277"/>
      <point x="187" y="241"/>
      <point x="187" y="199" type="curve" smooth="yes"/>
      <point x="187" y="141"/>
      <point x="120" y="106"/>
      <point x="120" y="41" type="curve" smooth="yes"/>
      <point x="120" y="-9"/>
      <point x="178" y="-47"/>
      <point x="258" y="-47" type="curve" smooth="yes"/>
      <point x="278" y="-47" type="line" smooth="yes"/>
      <point x="289" y="-47"/>
      <point x="298" y="-56"/>
      <point x="298" y="-67" type="curve" smooth="yes"/>
      <point x="298" y="-78"/>
      <point x="289" y="-87"/>
      <point x="278" y="-87" type="curve" smooth="yes"/>
      <point x="258" y="-87" type="line" smooth="yes"/>
      <point x="142" y="-87"/>
      <point x="80" y="-23"/>
      <point x="80" y="41" type="curve" smooth="yes"/>
      <point x="80" y="106"/>
      <point x="147" y="141"/>
      <point x="147" y="199" type="curve" smooth="yes"/>
      <point x="147" y="229"/>
      <point x="111" y="243"/>
      <point x="62" y="250" type="curve" smooth="yes"/>
      <point x="53" y="252"/>
      <point x="45" y="260"/>
      <point x="45" y="270" type="curve" smooth="yes"/>
      <point x="45" y="276" type="line" smooth="yes"/>
      <point x="45" y="286"/>
      <point x="53" y="294"/>
      <point x="62" y="296" type="curve" smooth="yes"/>
      <point x="111" y="303"/>
      <point x="147" y="317"/>
      <point x="147" y="347" type="curve" smooth="yes"/>
      <point x="147" y="405"/>
      <point x="80" y="440"/>
      <point x="80" y="505" type="curve" smooth="yes"/>
      <point x="80" y="569"/>
      <point x="142" y="633"/>
      <point x="258" y="633" type="curve" smooth="yes"/>
      <point x="278" y="633" type="line" smooth="yes"/>
      <point x="289" y="633"/>
      <point x="298" y="624"/>
      <point x="298" y="613" type="curve" smooth="yes"/>
      <point x="298" y="602"/>
      <point x="289" y="593"/>
    </contour>
  </outline>
</glyph>
<glyph name="bar" format="1">
  <advance width="310"/>
  <unicode hex="007C"/>
  <outline>
    <contour>
      <point x="175" y="545" type="curve" smooth="yes"/>
      <point x="175" y="-68" type="line" smooth="yes"/>
      <point x="175" y="-79"/>
      <point x="166" y="-88"/>
      <point x="155" y="-88" type="curve" smooth="yes"/>
      <point x="144" y="-88"/>
      <point x="135" y="-79"/>
      <point x="135" y="-68" type="curve" smooth="yes"/>
      <point x="135" y="545" type="line" smooth="yes"/>
      <point x="135" y="556"/>
      <point x="144" y="565"/>
      <point x="155" y="565" type="curve" smooth="yes"/>
      <point x="166" y="565"/>
      <point x="175" y="556"/>
    </contour>
  </outline>
</glyph>
<glyph name="asciitilde" format="1">
  <advance width="565"/>
  <unicode hex="007E"/>
  <outline>
    <contour>
      <point x="89" y="226" type="curve" smooth="yes"/>
      <point x="127" y="303"/>
      <point x="162" y="335"/>
      <point x="206" y="335" type="curve" smooth="yes"/>
      <point x="244" y="335"/>
      <point x="269" y="311"/>
      <point x="300" y="276" type="curve" smooth="yes"/>
      <point x="324" y="249"/>
      <point x="342" y="230"/>
      <point x="368" y="230" type="curve" smooth="yes"/>
      <point x="407" y="230"/>
      <point x="426" y="266"/>
      <point x="456" y="328" type="curve" smooth="yes"/>
      <point x="461" y="337"/>
      <point x="473" y="342"/>
      <point x="483" y="337" type="curve" smooth="yes"/>
      <point x="492" y="332"/>
      <point x="497" y="320"/>
      <point x="492" y="310" type="curve" smooth="yes"/>
      <point x="450" y="224"/>
      <point x="417" y="190"/>
      <point x="368" y="190" type="curve" smooth="yes"/>
      <point x="332" y="190"/>
      <point x="304" y="211"/>
      <point x="270" y="250" type="curve" smooth="yes"/>
      <point x="249" y="273"/>
      <point x="234" y="295"/>
      <point x="206" y="295" type="curve" smooth="yes"/>
      <point x="172" y="295"/>
      <point x="151" y="261"/>
      <point x="125" y="208" type="curve" smooth="yes"/>
      <point x="120" y="198"/>
      <point x="108" y="194"/>
      <point x="98" y="199" type="curve" smooth="yes"/>
      <point x="88" y="204"/>
      <point x="84" y="216"/>
    </contour>
  </outline>
</glyph>
<glyph name="cent" format="1">
  <advance width="443"/>
  <unicode hex="00A2"/>
  <outline>
    <contour>
      <point x="264" y="517" type="curve" smooth="yes"/>
      <point x="264" y="33" type="line" smooth="yes"/>
      <point x="264" y="22"/>
      <point x="255" y="13"/>
      <point x="244" y="13" type="curve" smooth="yes"/>
      <point x="233" y="13"/>
      <point x="224" y="22"/>
      <point x="224" y="33" type="curve" smooth="yes"/>
      <point x="224" y="517" type="line" smooth="yes"/>
      <point x="224" y="528"/>
      <point x="233" y="537"/>
      <point x="244" y="537" type="curve" smooth="yes"/>
      <point x="255" y="537"/>
      <point x="264" y="528"/>
    </contour>
    <contour>
      <point x="348" y="403" type="curve" smooth="yes"/>
      <point x="323" y="410"/>
      <point x="292" y="416"/>
      <point x="265" y="416" type="curve" smooth="yes"/>
      <point x="161" y="416"/>
      <point x="99" y="353"/>
      <point x="99" y="265" type="curve" smooth="yes"/>
      <point x="99" y="187"/>
      <point x="160" y="130"/>
      <point x="264" y="130" type="curve" smooth="yes"/>
      <point x="302" y="130"/>
      <point x="333" y="137"/>
      <point x="359" y="147" type="curve" smooth="yes"/>
      <point x="369" y="150"/>
      <point x="381" y="145"/>
      <point x="385" y="135" type="curve" smooth="yes"/>
      <point x="388" y="125"/>
      <point x="383" y="113"/>
      <point x="373" y="109" type="curve" smooth="yes"/>
      <point x="343" y="99"/>
      <point x="308" y="90"/>
      <point x="264" y="90" type="curve" smooth="yes"/>
      <point x="130" y="90"/>
      <point x="59" y="169"/>
      <point x="59" y="265" type="curve"/>
      <point x="59" y="375"/>
      <point x="133" y="456"/>
      <point x="265" y="456" type="curve" smooth="yes"/>
      <point x="296" y="456"/>
      <point x="331" y="450"/>
      <point x="360" y="441" type="curve" smooth="yes"/>
      <point x="370" y="438"/>
      <point x="376" y="427"/>
      <point x="373" y="416" type="curve" smooth="yes"/>
      <point x="370" y="406"/>
      <point x="359" y="400"/>
    </contour>
  </outline>
</glyph>
<glyph name="sterling" format="1">
  <advance width="466"/>
  <unicode hex="00A3"/>
  <outline>
    <contour>
      <point x="58" y="57" type="curve" smooth="yes"/>
      <point x="135" y="127" type="line" smooth="yes"/>
      <point x="159" y="148"/>
      <point x="178" y="175"/>
      <point x="178" y="200" type="curve" smooth="yes"/>
      <point x="178" y="222"/>
      <point x="164" y="250"/>
      <point x="144" y="274" type="curve" smooth="yes"/>
      <point x="102" y="324"/>
      <point x="77" y="361"/>
      <point x="77" y="414" type="curve" smooth="yes"/>
      <point x="77" y="480"/>
      <point x="126" y="547"/>
      <point x="219" y="547" type="curve" smooth="yes"/>
      <point x="269" y="547"/>
      <point x="315" y="532"/>
      <point x="353" y="508" type="curve" smooth="yes"/>
      <point x="362" y="502"/>
      <point x="365" y="490"/>
      <point x="359" y="480" type="curve" smooth="yes"/>
      <point x="353" y="471"/>
      <point x="341" y="468"/>
      <point x="331" y="474" type="curve" smooth="yes"/>
      <point x="299" y="494"/>
      <point x="261" y="507"/>
      <point x="219" y="507" type="curve" smooth="yes"/>
      <point x="154" y="507"/>
      <point x="117" y="462"/>
      <point x="117" y="414" type="curve" smooth="yes"/>
      <point x="117" y="371"/>
      <point x="140" y="340"/>
      <point x="174" y="300" type="curve" smooth="yes"/>
      <point x="202" y="268"/>
      <point x="218" y="230"/>
      <point x="218" y="200" type="curve" smooth="yes"/>
      <point x="218" y="167"/>
      <point x="195" y="128"/>
      <point x="161" y="97" type="curve" smooth="yes"/>
      <point x="84" y="27" type="line" smooth="yes"/>
      <point x="76" y="20"/>
      <point x="63" y="21"/>
      <point x="56" y="29" type="curve" smooth="yes"/>
      <point x="49" y="37"/>
      <point x="50" y="50"/>
    </contour>
    <contour>
      <point x="375" y="13" type="curve" smooth="yes"/>
      <point x="61" y="13" type="line" smooth="yes"/>
      <point x="50" y="13"/>
      <point x="41" y="22"/>
      <point x="41" y="33" type="curve" smooth="yes"/>
      <point x="41" y="44"/>
      <point x="50" y="53"/>
      <point x="61" y="53" type="curve" smooth="yes"/>
      <point x="375" y="53" type="line" smooth="yes"/>
      <point x="386" y="53"/>
      <point x="395" y="44"/>
      <point x="395" y="33" type="curve" smooth="yes"/>
      <point x="395" y="22"/>
      <point x="386" y="13"/>
    </contour>
    <contour>
      <point x="67" y="278" type="curve" smooth="yes"/>
      <point x="366" y="278" type="line" smooth="yes"/>
      <point x="377" y="278"/>
      <point x="386" y="269"/>
      <point x="386" y="258" type="curve" smooth="yes"/>
      <point x="386" y="247"/>
      <point x="377" y="238"/>
      <point x="366" y="238" type="curve" smooth="yes"/>
      <point x="67" y="238" type="line" smooth="yes"/>
      <point x="56" y="238"/>
      <point x="47" y="247"/>
      <point x="47" y="258" type="curve" smooth="yes"/>
      <point x="47" y="269"/>
      <point x="56" y="278"/>
    </contour>
  </outline>
</glyph>
<glyph name="currency" format="1">
  <advance width="531.0"/>
  <unicode hex="00A4"/>
  <outline>
    <contour>
      <point x="265" y="416" type="curve" smooth="yes"/>
      <point x="374" y="416"/>
      <point x="443" y="333"/>
      <point x="443" y="232" type="curve" smooth="yes"/>
      <point x="443" y="134"/>
      <point x="373" y="58"/>
      <point x="265" y="58" type="curve" smooth="yes"/>
      <point x="157" y="58"/>
      <point x="87" y="135"/>
      <point x="87" y="234" type="curve" smooth="yes"/>
      <point x="87" y="333"/>
      <point x="155" y="416"/>
    </contour>
    <contour>
      <point x="265" y="376" type="curve" smooth="yes"/>
      <point x="179" y="376"/>
      <point x="127" y="311"/>
      <point x="127" y="234" type="curve" smooth="yes"/>
      <point x="127" y="157"/>
      <point x="181" y="98"/>
      <point x="265" y="98" type="curve" smooth="yes"/>
      <point x="349" y="98"/>
      <point x="403" y="156"/>
      <point x="403" y="232" type="curve" smooth="yes"/>
      <point x="403" y="311"/>
      <point x="350" y="376"/>
    </contour>
    <contour>
      <point x="434" y="21" type="curve" smooth="yes"/>
      <point x="363" y="99" type="line" smooth="yes"/>
      <point x="356" y="107"/>
      <point x="357" y="120"/>
      <point x="365" y="127" type="curve" smooth="yes"/>
      <point x="373" y="134"/>
      <point x="386" y="133"/>
      <point x="393" y="125" type="curve" smooth="yes"/>
      <point x="464" y="47" type="line" smooth="yes"/>
      <point x="471" y="39"/>
      <point x="470" y="26"/>
      <point x="462" y="19" type="curve" smooth="yes"/>
      <point x="454" y="12"/>
      <point x="441" y="13"/>
    </contour>
    <contour>
      <point x="137" y="345" type="curve" smooth="yes"/>
      <point x="72" y="416" type="line" smooth="yes"/>
      <point x="65" y="424"/>
      <point x="66" y="437"/>
      <point x="73" y="445" type="curve" smooth="yes"/>
      <point x="81" y="452"/>
      <point x="94" y="451"/>
      <point x="102" y="444" type="curve" smooth="yes"/>
      <point x="167" y="373" type="line" smooth="yes"/>
      <point x="174" y="365"/>
      <point x="173" y="352"/>
      <point x="166" y="344" type="curve" smooth="yes"/>
      <point x="158" y="337"/>
      <point x="145" y="338"/>
    </contour>
    <contour>
      <point x="363" y="373" type="curve" smooth="yes"/>
      <point x="428" y="445" type="line" smooth="yes"/>
      <point x="435" y="453"/>
      <point x="448" y="454"/>
      <point x="456" y="447" type="curve" smooth="yes"/>
      <point x="464" y="440"/>
      <point x="465" y="427"/>
      <point x="458" y="419" type="curve" smooth="yes"/>
      <point x="393" y="347" type="line" smooth="yes"/>
      <point x="386" y="339"/>
      <point x="373" y="338"/>
      <point x="365" y="345" type="curve" smooth="yes"/>
      <point x="357" y="352"/>
      <point x="356" y="365"/>
    </contour>
    <contour>
      <point x="67" y="47" type="curve" smooth="yes"/>
      <point x="135" y="122" type="line" smooth="yes"/>
      <point x="142" y="130"/>
      <point x="155" y="131"/>
      <point x="163" y="124" type="curve" smooth="yes"/>
      <point x="171" y="117"/>
      <point x="172" y="104"/>
      <point x="165" y="96" type="curve" smooth="yes"/>
      <point x="97" y="21" type="line" smooth="yes"/>
      <point x="90" y="13"/>
      <point x="77" y="12"/>
      <point x="69" y="19" type="curve" smooth="yes"/>
      <point x="61" y="26"/>
      <point x="60" y="39"/>
    </contour>
  </outline>
</glyph>
<glyph name="yen" format="1">
  <advance width="570"/>
  <unicode hex="00A5"/>
  <outline>
    <contour>
      <point x="313" y="275" type="curve" smooth="yes"/>
      <point x="313" y="33" type="line" smooth="yes"/>
      <point x="313" y="22"/>
      <point x="304" y="13"/>
      <point x="293" y="13" type="curve" smooth="yes"/>
      <point x="282" y="13"/>
      <point x="273" y="22"/>
      <point x="273" y="33" type="curve" smooth="yes"/>
      <point x="273" y="275" type="line" smooth="yes"/>
      <point x="273" y="286"/>
      <point x="282" y="295"/>
      <point x="293" y="295" type="curve" smooth="yes"/>
      <point x="304" y="295"/>
      <point x="313" y="286"/>
    </contour>
    <contour>
      <point x="114" y="529" type="curve" smooth="yes"/>
      <point x="163" y="460"/>
      <point x="266" y="342"/>
      <point x="304" y="305" type="curve" smooth="yes"/>
      <point x="312" y="298"/>
      <point x="312" y="285"/>
      <point x="304" y="277" type="curve" smooth="yes"/>
      <point x="297" y="269"/>
      <point x="284" y="269"/>
      <point x="276" y="277" type="curve" smooth="yes"/>
      <point x="238" y="314"/>
      <point x="131" y="436"/>
      <point x="82" y="507" type="curve" smooth="yes"/>
      <point x="75" y="515"/>
      <point x="78" y="528"/>
      <point x="87" y="534" type="curve" smooth="yes"/>
      <point x="95" y="541"/>
      <point x="108" y="538"/>
    </contour>
    <contour>
      <point x="279" y="295" type="curve" smooth="yes"/>
      <point x="328" y="345"/>
      <point x="419" y="461"/>
      <point x="468" y="530" type="curve" smooth="yes"/>
      <point x="474" y="538"/>
      <point x="487" y="541"/>
      <point x="496" y="534" type="curve" smooth="yes"/>
      <point x="504" y="528"/>
      <point x="507" y="515"/>
      <point x="500" y="506" type="curve" smooth="yes"/>
      <point x="451" y="437"/>
      <point x="358" y="317"/>
      <point x="307" y="267" type="curve" smooth="yes"/>
      <point x="300" y="259"/>
      <point x="286" y="259"/>
      <point x="279" y="267" type="curve" smooth="yes"/>
      <point x="271" y="274"/>
      <point x="271" y="288"/>
    </contour>
    <contour>
      <point x="118" y="297" type="curve" smooth="yes"/>
      <point x="466" y="297" type="line" smooth="yes"/>
      <point x="477" y="297"/>
      <point x="486" y="288"/>
      <point x="486" y="277" type="curve" smooth="yes"/>
      <point x="486" y="266"/>
      <point x="477" y="257"/>
      <point x="466" y="257" type="curve" smooth="yes"/>
      <point x="118" y="257" type="line" smooth="yes"/>
      <point x="107" y="257"/>
      <point x="98" y="266"/>
      <point x="98" y="277" type="curve" smooth="yes"/>
      <point x="98" y="288"/>
      <point x="107" y="297"/>
    </contour>
    <contour>
      <point x="118" y="155" type="curve" smooth="yes"/>
      <point x="466" y="155" type="line" smooth="yes"/>
      <point x="477" y="155"/>
      <point x="486" y="146"/>
      <point x="486" y="135" type="curve" smooth="yes"/>
      <point x="486" y="124"/>
      <point x="477" y="115"/>
      <point x="466" y="115" type="curve" smooth="yes"/>
      <point x="118" y="115" type="line" smooth="yes"/>
      <point x="107" y="115"/>
      <point x="98" y="124"/>
      <point x="98" y="135" type="curve" smooth="yes"/>
      <point x="98" y="146"/>
      <point x="107" y="155"/>
    </contour>
  </outline>
</glyph>
<glyph name="brokenbar" format="1">
  <advance width="310"/>
  <unicode hex="00A6"/>
  <outline>
    <contour>
      <point x="175" y="159" type="curve" smooth="yes"/>
      <point x="175" y="-68" type="line" smooth="yes"/>
      <point x="175" y="-79"/>
      <point x="166" y="-88"/>
      <point x="155" y="-88" type="curve" smooth="yes"/>
      <point x="144" y="-88"/>
      <point x="135" y="-79"/>
      <point x="135" y="-68" type="curve" smooth="yes"/>
      <point x="135" y="159" type="line" smooth="yes"/>
      <point x="135" y="170"/>
      <point x="144" y="179"/>
      <point x="155" y="179" type="curve" smooth="yes"/>
      <point x="166" y="179"/>
      <point x="175" y="170"/>
    </contour>
    <contour>
      <point x="175" y="545" type="curve" smooth="yes"/>
      <point x="175" y="318" type="line" smooth="yes"/>
      <point x="175" y="307"/>
      <point x="166" y="298"/>
      <point x="155" y="298" type="curve" smooth="yes"/>
      <point x="144" y="298"/>
      <point x="135" y="307"/>
      <point x="135" y="318" type="curve" smooth="yes"/>
      <point x="135" y="545" type="line" smooth="yes"/>
      <point x="135" y="556"/>
      <point x="144" y="565"/>
      <point x="155" y="565" type="curve" smooth="yes"/>
      <point x="166" y="565"/>
      <point x="175" y="556"/>
    </contour>
  </outline>
</glyph>
<glyph name="section" format="1">
  <advance width="535"/>
  <unicode hex="00A7"/>
  <outline>
    <contour>
      <point x="392" y="481" type="curve" smooth="yes"/>
      <point x="347" y="495"/>
      <point x="314" y="504"/>
      <point x="248" y="504" type="curve" smooth="yes"/>
      <point x="183" y="504"/>
      <point x="132" y="476"/>
      <point x="132" y="438" type="curve" smooth="yes"/>
      <point x="132" y="402"/>
      <point x="162" y="366"/>
      <point x="272" y="350" type="curve" smooth="yes"/>
      <point x="415" y="322"/>
      <point x="452" y="270"/>
      <point x="452" y="211" type="curve" smooth="yes"/>
      <point x="452" y="152"/>
      <point x="406" y="95"/>
      <point x="268" y="95" type="curve" smooth="yes"/>
      <point x="257" y="95"/>
      <point x="248" y="104"/>
      <point x="248" y="115" type="curve" smooth="yes"/>
      <point x="248" y="126"/>
      <point x="257" y="135"/>
      <point x="268" y="135" type="curve" smooth="yes"/>
      <point x="358" y="135"/>
      <point x="412" y="164"/>
      <point x="412" y="211" type="curve" smooth="yes"/>
      <point x="412" y="258"/>
      <point x="367" y="290"/>
      <point x="266" y="310" type="curve" smooth="yes"/>
      <point x="108" y="334"/>
      <point x="92" y="392"/>
      <point x="92" y="438" type="curve" smooth="yes"/>
      <point x="92" y="488"/>
      <point x="143" y="544"/>
      <point x="248" y="544" type="curve" smooth="yes"/>
      <point x="320" y="544"/>
      <point x="355" y="535"/>
      <point x="404" y="519" type="curve" smooth="yes"/>
      <point x="414" y="516"/>
      <point x="420" y="504"/>
      <point x="417" y="494" type="curve" smooth="yes"/>
      <point x="414" y="484"/>
      <point x="402" y="478"/>
    </contour>
    <contour>
      <point x="238" y="311" type="curve" smooth="yes"/>
      <point x="170" y="311"/>
      <point x="122" y="283"/>
      <point x="122" y="231" type="curve" smooth="yes"/>
      <point x="122" y="192"/>
      <point x="151" y="154"/>
      <point x="262" y="135" type="curve" smooth="yes"/>
      <point x="408" y="110"/>
      <point x="442" y="71"/>
      <point x="442" y="11" type="curve" smooth="yes"/>
      <point x="442" y="-48"/>
      <point x="395" y="-110"/>
      <point x="258" y="-110" type="curve" smooth="yes"/>
      <point x="195" y="-110"/>
      <point x="135" y="-98"/>
      <point x="81" y="-73" type="curve" smooth="yes"/>
      <point x="71" y="-69"/>
      <point x="66" y="-56"/>
      <point x="71" y="-47" type="curve" smooth="yes"/>
      <point x="75" y="-37"/>
      <point x="88" y="-32"/>
      <point x="97" y="-37" type="curve" smooth="yes"/>
      <point x="147" y="-60"/>
      <point x="201" y="-70"/>
      <point x="258" y="-70" type="curve" smooth="yes"/>
      <point x="349" y="-70"/>
      <point x="402" y="-36"/>
      <point x="402" y="11" type="curve" smooth="yes"/>
      <point x="402" y="59"/>
      <point x="354" y="78"/>
      <point x="256" y="95" type="curve" smooth="yes"/>
      <point x="99" y="122"/>
      <point x="82" y="182"/>
      <point x="82" y="231" type="curve" smooth="yes"/>
      <point x="82" y="301"/>
      <point x="136" y="351"/>
      <point x="238" y="351" type="curve" smooth="yes"/>
      <point x="249" y="351"/>
      <point x="258" y="342"/>
      <point x="258" y="331" type="curve" smooth="yes"/>
      <point x="258" y="320"/>
      <point x="249" y="311"/>
    </contour>
  </outline>
</glyph>
<glyph name="dieresis" format="1">
  <advance width="500"/>
  <unicode hex="00A8"/>
  <outline>
    <contour>
      <point x="156" y="606" type="curve" smooth="yes"/>
      <point x="174" y="606"/>
      <point x="191" y="590"/>
      <point x="191" y="560" type="curve" smooth="yes"/>
      <point x="191" y="530"/>
      <point x="174" y="516"/>
      <point x="156" y="516" type="curve" smooth="yes"/>
      <point x="136" y="516"/>
      <point x="118" y="533"/>
      <point x="118" y="560" type="curve" smooth="yes"/>
      <point x="118" y="587"/>
      <point x="137" y="606"/>
    </contour>
    <contour>
      <point x="334" y="606" type="curve" smooth="yes"/>
      <point x="352" y="606"/>
      <point x="369" y="590"/>
      <point x="369" y="560" type="curve" smooth="yes"/>
      <point x="369" y="530"/>
      <point x="352" y="516"/>
      <point x="334" y="516" type="curve" smooth="yes"/>
      <point x="314" y="516"/>
      <point x="296" y="533"/>
      <point x="296" y="560" type="curve" smooth="yes"/>
      <point x="296" y="587"/>
      <point x="315" y="606"/>
    </contour>
    <contour>
      <point x="156" y="566" type="curve" smooth="yes"/>
      <point x="153" y="566"/>
      <point x="158" y="559"/>
      <point x="158" y="560" type="curve" smooth="yes"/>
      <point x="158" y="561"/>
      <point x="154" y="556"/>
      <point x="156" y="556" type="curve" smooth="yes"/>
      <point x="158" y="556"/>
      <point x="151" y="564"/>
      <point x="151" y="560" type="curve" smooth="yes"/>
      <point x="151" y="556"/>
      <point x="158" y="566"/>
    </contour>
    <contour>
      <point x="334" y="566" type="curve" smooth="yes"/>
      <point x="331" y="566"/>
      <point x="336" y="559"/>
      <point x="336" y="560" type="curve" smooth="yes"/>
      <point x="336" y="561"/>
      <point x="332" y="556"/>
      <point x="334" y="556" type="curve" smooth="yes"/>
      <point x="336" y="556"/>
      <point x="329" y="564"/>
      <point x="329" y="560" type="curve" smooth="yes"/>
      <point x="329" y="556"/>
      <point x="336" y="566"/>
    </contour>
  </outline>
</glyph>
<glyph name="copyright" format="1">
  <advance width="663"/>
  <unicode hex="00A9"/>
  <outline>
    <contour>
      <point x="334" y="547" type="curve" smooth="yes"/>
      <point x="484" y="547"/>
      <point x="604" y="435"/>
      <point x="604" y="275" type="curve" smooth="yes"/>
      <point x="604" y="123"/>
      <point x="505" y="4"/>
      <point x="334" y="4" type="curve" smooth="yes"/>
      <point x="172" y="4"/>
      <point x="59" y="123"/>
      <point x="59" y="272" type="curve"/>
      <point x="59" y="435"/>
      <point x="169" y="547"/>
    </contour>
    <contour>
      <point x="401" y="372" type="curve" smooth="yes"/>
      <point x="386" y="380"/>
      <point x="364" y="386"/>
      <point x="340" y="386" type="curve" smooth="yes"/>
      <point x="282" y="386"/>
      <point x="231" y="340"/>
      <point x="231" y="274" type="curve" smooth="yes"/>
      <point x="231" y="212"/>
      <point x="273" y="165"/>
      <point x="343" y="165" type="curve" smooth="yes"/>
      <point x="366" y="165"/>
      <point x="387" y="170"/>
      <point x="404" y="179" type="curve" smooth="yes"/>
      <point x="413" y="184"/>
      <point x="426" y="180"/>
      <point x="431" y="170" type="curve" smooth="yes"/>
      <point x="436" y="161"/>
      <point x="432" y="148"/>
      <point x="422" y="143" type="curve" smooth="yes"/>
      <point x="401" y="132"/>
      <point x="374" y="125"/>
      <point x="343" y="125" type="curve" smooth="yes"/>
      <point x="247" y="125"/>
      <point x="191" y="190"/>
      <point x="191" y="274" type="curve" smooth="yes"/>
      <point x="191" y="364"/>
      <point x="262" y="426"/>
      <point x="340" y="426" type="curve" smooth="yes"/>
      <point x="372" y="426"/>
      <point x="400" y="418"/>
      <point x="419" y="408" type="curve" smooth="yes"/>
      <point x="429" y="403"/>
      <point x="433" y="390"/>
      <point x="428" y="381" type="curve" smooth="yes"/>
      <point x="423" y="371"/>
      <point x="410" y="367"/>
    </contour>
    <contour>
      <point x="334" y="507" type="curve" smooth="yes"/>
      <point x="193" y="507"/>
      <point x="99" y="411"/>
      <point x="99" y="272" type="curve" smooth="yes"/>
      <point x="99" y="145"/>
      <point x="196" y="44"/>
      <point x="334" y="44" type="curve" smooth="yes"/>
      <point x="479" y="44"/>
      <point x="564" y="145"/>
      <point x="564" y="275" type="curve" smooth="yes"/>
      <point x="564" y="411"/>
      <point x="462" y="507"/>
    </contour>
  </outline>
</glyph>
<glyph name="ordfeminine" format="1">
  <advance width="454"/>
  <unicode hex="00AA"/>
  <outline>
    <contour>
      <point x="103" y="194" type="curve" smooth="yes"/>
      <point x="361" y="194" type="line" smooth="yes"/>
      <point x="372" y="194"/>
      <point x="381" y="185"/>
      <point x="381" y="174" type="curve" smooth="yes"/>
      <point x="381" y="163"/>
      <point x="372" y="154"/>
      <point x="361" y="154" type="curve" smooth="yes"/>
      <point x="103" y="154" type="line" smooth="yes"/>
      <point x="92" y="154"/>
      <point x="83" y="163"/>
      <point x="83" y="174" type="curve" smooth="yes"/>
      <point x="83" y="185"/>
      <point x="92" y="194"/>
    </contour>
    <contour>
      <point x="145" y="525" type="curve" smooth="yes"/>
      <point x="161" y="530"/>
      <point x="189" y="537"/>
      <point x="214" y="537" type="curve" smooth="yes"/>
      <point x="291" y="537"/>
      <point x="326" y="491"/>
      <point x="326" y="424" type="curve" smooth="yes"/>
      <point x="326" y="364" type="line" smooth="yes"/>
      <point x="326" y="335"/>
      <point x="332" y="316"/>
      <point x="345" y="301" type="curve" smooth="yes"/>
      <point x="352" y="293"/>
      <point x="351" y="280"/>
      <point x="343" y="273" type="curve" smooth="yes"/>
      <point x="335" y="266"/>
      <point x="322" y="267"/>
      <point x="315" y="275" type="curve" smooth="yes"/>
      <point x="296" y="296"/>
      <point x="286" y="321"/>
      <point x="286" y="364" type="curve" smooth="yes"/>
      <point x="286" y="424" type="line" smooth="yes"/>
      <point x="286" y="467"/>
      <point x="263" y="497"/>
      <point x="214" y="497" type="curve" smooth="yes"/>
      <point x="193" y="497"/>
      <point x="171" y="492"/>
      <point x="157" y="487" type="curve" smooth="yes"/>
      <point x="147" y="484"/>
      <point x="135" y="489"/>
      <point x="132" y="500" type="curve" smooth="yes"/>
      <point x="129" y="510"/>
      <point x="134" y="522"/>
    </contour>
    <contour>
      <point x="303" y="397" type="curve" smooth="yes"/>
      <point x="280" y="398"/>
      <point x="261" y="400"/>
      <point x="241" y="400" type="curve" smooth="yes"/>
      <point x="198" y="400"/>
      <point x="169" y="389"/>
      <point x="150" y="373" type="curve"/>
      <point x="151" y="374" type="line"/>
      <point x="141" y="364"/>
      <point x="139" y="354"/>
      <point x="139" y="342" type="curve" smooth="yes"/>
      <point x="139" y="325"/>
      <point x="154" y="308"/>
      <point x="184" y="308" type="curve" smooth="yes"/>
      <point x="229" y="308"/>
      <point x="261" y="325"/>
      <point x="290" y="364" type="curve" smooth="yes"/>
      <point x="296" y="373"/>
      <point x="309" y="375"/>
      <point x="318" y="368" type="curve" smooth="yes"/>
      <point x="327" y="362"/>
      <point x="329" y="349"/>
      <point x="322" y="340" type="curve" smooth="yes"/>
      <point x="285" y="289"/>
      <point x="243" y="268"/>
      <point x="184" y="268" type="curve" smooth="yes"/>
      <point x="120" y="268"/>
      <point x="99" y="311"/>
      <point x="99" y="342" type="curve" smooth="yes"/>
      <point x="99" y="366"/>
      <point x="105" y="384"/>
      <point x="123" y="402" type="curve" smooth="yes"/>
      <point x="123" y="402"/>
      <point x="124" y="403"/>
      <point x="124" y="403" type="curve" smooth="yes"/>
      <point x="149" y="425"/>
      <point x="184" y="440"/>
      <point x="241" y="440" type="curve" smooth="yes"/>
      <point x="261" y="440"/>
      <point x="282" y="438"/>
      <point x="305" y="437" type="curve" smooth="yes"/>
      <point x="316" y="437"/>
      <point x="324" y="427"/>
      <point x="324" y="416" type="curve" smooth="yes"/>
      <point x="324" y="405"/>
      <point x="314" y="397"/>
    </contour>
  </outline>
</glyph>
<glyph name="guillemotleft" format="1">
  <advance width="448"/>
  <unicode hex="00AB"/>
  <outline>
    <contour>
      <point x="261" y="211" type="curve" smooth="yes"/>
      <point x="372" y="87" type="line" smooth="yes"/>
      <point x="379" y="79"/>
      <point x="378" y="66"/>
      <point x="370" y="59" type="curve" smooth="yes"/>
      <point x="362" y="52"/>
      <point x="349" y="53"/>
      <point x="342" y="61" type="curve" smooth="yes"/>
      <point x="231" y="185" type="line" smooth="yes"/>
      <point x="224" y="193"/>
      <point x="225" y="206"/>
      <point x="233" y="213" type="curve" smooth="yes"/>
      <point x="241" y="220"/>
      <point x="254" y="219"/>
    </contour>
    <contour>
      <point x="372" y="313" type="curve" smooth="yes"/>
      <point x="261" y="189" type="line" smooth="yes"/>
      <point x="254" y="181"/>
      <point x="241" y="180"/>
      <point x="233" y="187" type="curve" smooth="yes"/>
      <point x="225" y="194"/>
      <point x="224" y="207"/>
      <point x="231" y="215" type="curve" smooth="yes"/>
      <point x="342" y="339" type="line" smooth="yes"/>
      <point x="349" y="347"/>
      <point x="362" y="348"/>
      <point x="370" y="341" type="curve" smooth="yes"/>
      <point x="378" y="334"/>
      <point x="379" y="321"/>
    </contour>
    <contour>
      <point x="91" y="211" type="curve" smooth="yes"/>
      <point x="202" y="87" type="line" smooth="yes"/>
      <point x="209" y="79"/>
      <point x="208" y="66"/>
      <point x="200" y="59" type="curve" smooth="yes"/>
      <point x="192" y="52"/>
      <point x="179" y="53"/>
      <point x="172" y="61" type="curve" smooth="yes"/>
      <point x="61" y="185" type="line" smooth="yes"/>
      <point x="54" y="193"/>
      <point x="55" y="206"/>
      <point x="63" y="213" type="curve" smooth="yes"/>
      <point x="71" y="220"/>
      <point x="84" y="219"/>
    </contour>
    <contour>
      <point x="202" y="313" type="curve" smooth="yes"/>
      <point x="91" y="189" type="line" smooth="yes"/>
      <point x="84" y="181"/>
      <point x="71" y="180"/>
      <point x="63" y="187" type="curve" smooth="yes"/>
      <point x="55" y="194"/>
      <point x="54" y="207"/>
      <point x="61" y="215" type="curve" smooth="yes"/>
      <point x="172" y="339" type="line" smooth="yes"/>
      <point x="179" y="347"/>
      <point x="192" y="348"/>
      <point x="200" y="341" type="curve" smooth="yes"/>
      <point x="208" y="334"/>
      <point x="209" y="321"/>
    </contour>
  </outline>
</glyph>
<glyph name="logicalnot" format="1">
  <advance width="491"/>
  <unicode hex="00AC"/>
  <outline>
    <contour>
      <point x="114" y="279" type="curve" smooth="yes"/>
      <point x="377" y="279" type="line" smooth="yes"/>
      <point x="388" y="279"/>
      <point x="397" y="270"/>
      <point x="397" y="259" type="curve" smooth="yes"/>
      <point x="397" y="248"/>
      <point x="388" y="239"/>
      <point x="377" y="239" type="curve" smooth="yes"/>
      <point x="114" y="239" type="line" smooth="yes"/>
      <point x="103" y="239"/>
      <point x="94" y="248"/>
      <point x="94" y="259" type="curve" smooth="yes"/>
      <point x="94" y="270"/>
      <point x="103" y="279"/>
    </contour>
    <contour>
      <point x="397" y="253" type="curve" smooth="yes"/>
      <point x="397" y="152" type="line" smooth="yes"/>
      <point x="397" y="141"/>
      <point x="388" y="132"/>
      <point x="377" y="132" type="curve" smooth="yes"/>
      <point x="366" y="132"/>
      <point x="357" y="141"/>
      <point x="357" y="152" type="curve" smooth="yes"/>
      <point x="357" y="253" type="line" smooth="yes"/>
      <point x="357" y="264"/>
      <point x="366" y="273"/>
      <point x="377" y="273" type="curve" smooth="yes"/>
      <point x="388" y="273"/>
      <point x="397" y="264"/>
    </contour>
  </outline>
</glyph>
<glyph name="registered" format="1">
  <advance width="570"/>
  <unicode hex="00AE"/>
  <outline>
    <contour>
      <point x="282" y="589" type="curve" smooth="yes"/>
      <point x="180" y="589"/>
      <point x="110" y="518"/>
      <point x="110" y="416" type="curve" smooth="yes"/>
      <point x="110" y="319"/>
      <point x="180" y="236"/>
      <point x="289" y="236" type="curve" smooth="yes"/>
      <point x="391" y="236"/>
      <point x="466" y="311"/>
      <point x="466" y="413" type="curve" smooth="yes"/>
      <point x="466" y="514"/>
      <point x="391" y="589"/>
    </contour>
    <contour>
      <point x="240" y="407" type="curve" smooth="yes"/>
      <point x="287" y="407" type="line" smooth="yes"/>
      <point x="315" y="407"/>
      <point x="330" y="424"/>
      <point x="330" y="446" type="curve" smooth="yes"/>
      <point x="330" y="470"/>
      <point x="311" y="482"/>
      <point x="287" y="482" type="curve" smooth="yes"/>
      <point x="230" y="482" type="line"/>
      <point x="250" y="502" type="line"/>
      <point x="250" y="326" type="line" smooth="yes"/>
      <point x="250" y="315"/>
      <point x="241" y="306"/>
      <point x="230" y="306" type="curve" smooth="yes"/>
      <point x="219" y="306"/>
      <point x="210" y="315"/>
      <point x="210" y="326" type="curve" smooth="yes"/>
      <point x="210" y="502" type="line" smooth="yes"/>
      <point x="210" y="513"/>
      <point x="219" y="522"/>
      <point x="230" y="522" type="curve" smooth="yes"/>
      <point x="287" y="522" type="line" smooth="yes"/>
      <point x="339" y="522"/>
      <point x="370" y="492"/>
      <point x="370" y="446" type="curve" smooth="yes"/>
      <point x="370" y="404"/>
      <point x="345" y="367"/>
      <point x="287" y="367" type="curve" smooth="yes"/>
      <point x="240" y="367" type="line" smooth="yes"/>
      <point x="229" y="367"/>
      <point x="220" y="376"/>
      <point x="220" y="387" type="curve" smooth="yes"/>
      <point x="220" y="398"/>
      <point x="229" y="407"/>
    </contour>
    <contour>
      <point x="329" y="394" type="curve" smooth="yes"/>
      <point x="376" y="339" type="line" smooth="yes"/>
      <point x="383" y="331"/>
      <point x="382" y="318"/>
      <point x="374" y="311" type="curve" smooth="yes"/>
      <point x="366" y="304"/>
      <point x="353" y="305"/>
      <point x="346" y="313" type="curve" smooth="yes"/>
      <point x="299" y="368" type="line" smooth="yes"/>
      <point x="292" y="376"/>
      <point x="293" y="389"/>
      <point x="301" y="396" type="curve" smooth="yes"/>
      <point x="309" y="403"/>
      <point x="322" y="402"/>
    </contour>
    <contour>
      <point x="282" y="629" type="curve" smooth="yes"/>
      <point x="415" y="629"/>
      <point x="506" y="536"/>
      <point x="506" y="413" type="curve" smooth="yes"/>
      <point x="506" y="289"/>
      <point x="413" y="196"/>
      <point x="289" y="196" type="curve" smooth="yes"/>
      <point x="156" y="196"/>
      <point x="70" y="297"/>
      <point x="70" y="416" type="curve" smooth="yes"/>
      <point x="70" y="542"/>
      <point x="156" y="629"/>
    </contour>
  </outline>
</glyph>
<glyph name="macron" format="1">
  <advance width="500"/>
  <unicode hex="00AF"/>
  <outline>
    <contour>
      <point x="355" y="524" type="curve" smooth="yes"/>
      <point x="146" y="524" type="line" smooth="yes"/>
      <point x="135" y="524"/>
      <point x="126" y="533"/>
      <point x="126" y="544" type="curve" smooth="yes"/>
      <point x="126" y="555"/>
      <point x="135" y="564"/>
      <point x="146" y="564" type="curve" smooth="yes"/>
      <point x="355" y="564" type="line" smooth="yes"/>
      <point x="366" y="564"/>
      <point x="375" y="555"/>
      <point x="375" y="544" type="curve" smooth="yes"/>
      <point x="375" y="533"/>
      <point x="366" y="524"/>
    </contour>
  </outline>
</glyph>
<glyph name="degree" format="1">
  <advance width="369"/>
  <unicode hex="00B0"/>
  <outline>
    <contour>
      <point x="185" y="543" type="curve" smooth="yes"/>
      <point x="261" y="543"/>
      <point x="308" y="488"/>
      <point x="308" y="419" type="curve" smooth="yes"/>
      <point x="308" y="353"/>
      <point x="261" y="300"/>
      <point x="185" y="300" type="curve" smooth="yes"/>
      <point x="108" y="300"/>
      <point x="61" y="352"/>
      <point x="61" y="419" type="curve"/>
      <point x="61" y="487"/>
      <point x="106" y="543"/>
    </contour>
    <contour>
      <point x="185" y="503" type="curve" smooth="yes"/>
      <point x="132" y="503"/>
      <point x="101" y="465"/>
      <point x="101" y="419" type="curve" smooth="yes"/>
      <point x="101" y="374"/>
      <point x="134" y="340"/>
      <point x="185" y="340" type="curve" smooth="yes"/>
      <point x="235" y="340"/>
      <point x="268" y="375"/>
      <point x="268" y="419" type="curve" smooth="yes"/>
      <point x="268" y="466"/>
      <point x="237" y="503"/>
    </contour>
  </outline>
</glyph>
<glyph name="plusminus" format="1">
  <advance width="491"/>
  <unicode hex="00B1"/>
  <outline>
    <contour>
      <point x="92" y="336" type="curve" smooth="yes"/>
      <point x="398" y="336" type="line" smooth="yes"/>
      <point x="409" y="336"/>
      <point x="418" y="327"/>
      <point x="418" y="316" type="curve" smooth="yes"/>
      <point x="418" y="305"/>
      <point x="409" y="296"/>
      <point x="398" y="296" type="curve" smooth="yes"/>
      <point x="92" y="296" type="line" smooth="yes"/>
      <point x="81" y="296"/>
      <point x="72" y="305"/>
      <point x="72" y="316" type="curve" smooth="yes"/>
      <point x="72" y="327"/>
      <point x="81" y="336"/>
    </contour>
    <contour>
      <point x="225" y="207" type="curve" smooth="yes"/>
      <point x="225" y="424" type="line" smooth="yes"/>
      <point x="225" y="435"/>
      <point x="234" y="444"/>
      <point x="245" y="444" type="curve" smooth="yes"/>
      <point x="256" y="444"/>
      <point x="265" y="435"/>
      <point x="265" y="424" type="curve" smooth="yes"/>
      <point x="265" y="207" type="line" smooth="yes"/>
      <point x="265" y="196"/>
      <point x="256" y="187"/>
      <point x="245" y="187" type="curve" smooth="yes"/>
      <point x="234" y="187"/>
      <point x="225" y="196"/>
    </contour>
    <contour>
      <point x="92" y="112" type="curve" smooth="yes"/>
      <point x="398" y="112" type="line" smooth="yes"/>
      <point x="409" y="112"/>
      <point x="418" y="103"/>
      <point x="418" y="92" type="curve" smooth="yes"/>
      <point x="418" y="81"/>
      <point x="409" y="72"/>
      <point x="398" y="72" type="curve" smooth="yes"/>
      <point x="92" y="72" type="line" smooth="yes"/>
      <point x="81" y="72"/>
      <point x="72" y="81"/>
      <point x="72" y="92" type="curve" smooth="yes"/>
      <point x="72" y="103"/>
      <point x="81" y="112"/>
    </contour>
  </outline>
</glyph>
<glyph name="acute" format="1">
  <advance width="500"/>
  <unicode hex="00B4"/>
  <outline>
    <contour>
      <point x="300" y="583" type="curve" smooth="yes"/>
      <point x="267" y="548"/>
      <point x="247" y="525"/>
      <point x="228" y="495" type="curve" smooth="yes"/>
      <point x="222" y="486"/>
      <point x="209" y="483"/>
      <point x="200" y="489" type="curve" smooth="yes"/>
      <point x="191" y="495"/>
      <point x="188" y="508"/>
      <point x="194" y="517" type="curve" smooth="yes"/>
      <point x="215" y="549"/>
      <point x="235" y="574"/>
      <point x="270" y="611" type="curve" smooth="yes"/>
      <point x="278" y="619"/>
      <point x="291" y="619"/>
      <point x="299" y="612" type="curve" smooth="yes"/>
      <point x="307" y="604"/>
      <point x="307" y="591"/>
    </contour>
  </outline>
</glyph>
<glyph name="paragraph" format="1">
  <advance width="566"/>
  <unicode hex="00B6"/>
  <outline>
    <contour>
      <point x="418" y="33" type="curve" smooth="yes"/>
      <point x="418" y="518" type="line"/>
      <point x="438" y="498" type="line"/>
      <point x="250" y="498" type="line" smooth="yes"/>
      <point x="162" y="498"/>
      <point x="102" y="443"/>
      <point x="102" y="364" type="curve" smooth="yes"/>
      <point x="102" y="289"/>
      <point x="152" y="229"/>
      <point x="250" y="229" type="curve" smooth="yes"/>
      <point x="306" y="229" type="line" smooth="yes"/>
      <point x="317" y="229"/>
      <point x="326" y="220"/>
      <point x="326" y="209" type="curve" smooth="yes"/>
      <point x="326" y="198"/>
      <point x="317" y="189"/>
      <point x="306" y="189" type="curve" smooth="yes"/>
      <point x="250" y="189" type="line" smooth="yes"/>
      <point x="122" y="189"/>
      <point x="62" y="269"/>
      <point x="62" y="364" type="curve"/>
      <point x="62" y="465"/>
      <point x="136" y="538"/>
      <point x="250" y="538" type="curve" smooth="yes"/>
      <point x="438" y="538" type="line" smooth="yes"/>
      <point x="449" y="538"/>
      <point x="458" y="529"/>
      <point x="458" y="518" type="curve" smooth="yes"/>
      <point x="458" y="33" type="line" smooth="yes"/>
      <point x="458" y="22"/>
      <point x="449" y="13"/>
      <point x="438" y="13" type="curve" smooth="yes"/>
      <point x="427" y="13"/>
      <point x="418" y="22"/>
    </contour>
    <contour>
      <point x="286" y="33" type="curve" smooth="yes"/>
      <point x="286" y="516" type="line" smooth="yes"/>
      <point x="286" y="527"/>
      <point x="295" y="536"/>
      <point x="306" y="536" type="curve" smooth="yes"/>
      <point x="317" y="536"/>
      <point x="326" y="527"/>
      <point x="326" y="516" type="curve" smooth="yes"/>
      <point x="326" y="33" type="line" smooth="yes"/>
      <point x="326" y="22"/>
      <point x="317" y="13"/>
      <point x="306" y="13" type="curve" smooth="yes"/>
      <point x="295" y="13"/>
      <point x="286" y="22"/>
    </contour>
  </outline>
</glyph>
<glyph name="cedilla" format="1">
  <advance width="500"/>
  <unicode hex="00B8"/>
  <outline>
    <contour>
      <point x="307" y="-88" type="curve" smooth="yes"/>
      <point x="282" y="-113"/>
      <point x="242" y="-152"/>
      <point x="219" y="-175" type="curve" smooth="yes"/>
      <point x="212" y="-183"/>
      <point x="198" y="-183"/>
      <point x="191" y="-175" type="curve" smooth="yes"/>
      <point x="183" y="-168"/>
      <point x="183" y="-154"/>
      <point x="191" y="-147" type="curve" smooth="yes"/>
      <point x="214" y="-124"/>
      <point x="254" y="-85"/>
      <point x="279" y="-60" type="curve" smooth="yes"/>
      <point x="286" y="-52"/>
      <point x="300" y="-52"/>
      <point x="307" y="-60" type="curve" smooth="yes"/>
      <point x="315" y="-67"/>
      <point x="315" y="-81"/>
    </contour>
  </outline>
</glyph>
<glyph name="ordmasculine" format="1">
  <advance width="448"/>
  <unicode hex="00BA"/>
  <outline>
    <contour>
      <point x="224" y="537" type="curve" smooth="yes"/>
      <point x="305" y="537"/>
      <point x="357" y="475"/>
      <point x="357" y="401" type="curve" smooth="yes"/>
      <point x="357" y="326"/>
      <point x="305" y="269"/>
      <point x="224" y="269" type="curve" smooth="yes"/>
      <point x="143" y="269"/>
      <point x="90" y="326"/>
      <point x="90" y="401" type="curve" smooth="yes"/>
      <point x="90" y="475"/>
      <point x="141" y="537"/>
    </contour>
    <contour>
      <point x="224" y="497" type="curve" smooth="yes"/>
      <point x="165" y="497"/>
      <point x="130" y="453"/>
      <point x="130" y="401" type="curve" smooth="yes"/>
      <point x="130" y="348"/>
      <point x="167" y="309"/>
      <point x="224" y="309" type="curve" smooth="yes"/>
      <point x="281" y="309"/>
      <point x="317" y="348"/>
      <point x="317" y="401" type="curve" smooth="yes"/>
      <point x="317" y="453"/>
      <point x="281" y="497"/>
    </contour>
    <contour>
      <point x="103" y="194" type="curve" smooth="yes"/>
      <point x="352" y="194" type="line" smooth="yes"/>
      <point x="363" y="194"/>
      <point x="372" y="185"/>
      <point x="372" y="174" type="curve" smooth="yes"/>
      <point x="372" y="163"/>
      <point x="363" y="154"/>
      <point x="352" y="154" type="curve" smooth="yes"/>
      <point x="103" y="154" type="line" smooth="yes"/>
      <point x="92" y="154"/>
      <point x="83" y="163"/>
      <point x="83" y="174" type="curve" smooth="yes"/>
      <point x="83" y="185"/>
      <point x="92" y="194"/>
    </contour>
  </outline>
</glyph>
<glyph name="guillemotright" format="1">
  <advance width="448"/>
  <unicode hex="00BB"/>
  <outline>
    <contour>
      <point x="76" y="87" type="curve" smooth="yes"/>
      <point x="187" y="211" type="line" smooth="yes"/>
      <point x="194" y="219"/>
      <point x="207" y="220"/>
      <point x="215" y="213" type="curve" smooth="yes"/>
      <point x="223" y="206"/>
      <point x="224" y="193"/>
      <point x="217" y="185" type="curve" smooth="yes"/>
      <point x="106" y="61" type="line" smooth="yes"/>
      <point x="99" y="53"/>
      <point x="86" y="52"/>
      <point x="78" y="59" type="curve" smooth="yes"/>
      <point x="70" y="66"/>
      <point x="69" y="79"/>
    </contour>
    <contour>
      <point x="187" y="189" type="curve" smooth="yes"/>
      <point x="76" y="313" type="line" smooth="yes"/>
      <point x="69" y="321"/>
      <point x="70" y="334"/>
      <point x="78" y="341" type="curve" smooth="yes"/>
      <point x="86" y="348"/>
      <point x="99" y="347"/>
      <point x="106" y="339" type="curve" smooth="yes"/>
      <point x="217" y="215" type="line" smooth="yes"/>
      <point x="224" y="207"/>
      <point x="223" y="194"/>
      <point x="215" y="187" type="curve" smooth="yes"/>
      <point x="207" y="180"/>
      <point x="194" y="181"/>
    </contour>
    <contour>
      <point x="246" y="87" type="curve" smooth="yes"/>
      <point x="357" y="211" type="line" smooth="yes"/>
      <point x="364" y="219"/>
      <point x="377" y="220"/>
      <point x="385" y="213" type="curve" smooth="yes"/>
      <point x="393" y="206"/>
      <point x="394" y="193"/>
      <point x="387" y="185" type="curve" smooth="yes"/>
      <point x="276" y="61" type="line" smooth="yes"/>
      <point x="269" y="53"/>
      <point x="256" y="52"/>
      <point x="248" y="59" type="curve" smooth="yes"/>
      <point x="240" y="66"/>
      <point x="239" y="79"/>
    </contour>
    <contour>
      <point x="357" y="189" type="curve" smooth="yes"/>
      <point x="246" y="313" type="line" smooth="yes"/>
      <point x="239" y="321"/>
      <point x="240" y="334"/>
      <point x="248" y="341" type="curve" smooth="yes"/>
      <point x="256" y="348"/>
      <point x="269" y="347"/>
      <point x="276" y="339" type="curve" smooth="yes"/>
      <point x="387" y="215" type="line" smooth="yes"/>
      <point x="394" y="207"/>
      <point x="393" y="194"/>
      <point x="385" y="187" type="curve" smooth="yes"/>
      <point x="377" y="180"/>
      <point x="364" y="181"/>
    </contour>
  </outline>
</glyph>
